<?xml version="1.0" encoding="UTF-8" standalone="no"?>
<!DOCTYPE svg PUBLIC "-//W3C//DTD SVG 1.1//EN"
 "http://www.w3.org/Graphics/SVG/1.1/DTD/svg11.dtd">
<!-- Generated by graphviz version 2.40.1 (20161225.0304)
 -->
<!-- Title: Loader Pages: 1 -->
<svg width="95pt" height="215pt"
 viewBox="0.00 0.00 95.00 215.00" xmlns="http://www.w3.org/2000/svg" xmlns:xlink="http://www.w3.org/1999/xlink">
<g id="graph0" class="graph" transform="scale(1 1) rotate(0) translate(4 211)">
<title>Loader</title>
<polygon fill="#ffffff" stroke="transparent" points="-4,4 -4,-211 91,-211 91,4 -4,4"/>
<!-- Node4 -->
<g id="node1" class="node">
<title>Node4</title>
<polygon fill="#bfbfbf" stroke="#000000" points="0,-.5 0,-112.5 87,-112.5 87,-.5 0,-.5"/>
<text text-anchor="middle" x="43.5" y="-100.5" font-family="Helvetica,sans-Serif" font-size="10.00" fill="#000000">Loader</text>
<polyline fill="none" stroke="#000000" points="0,-93.5 87,-93.5 "/>
<text text-anchor="start" x="8" y="-81.5" font-family="Helvetica,sans-Serif" font-size="10.00" fill="#000000"># fileName</text>
<text text-anchor="start" x="8" y="-70.5" font-family="Helvetica,sans-Serif" font-size="10.00" fill="#000000"># client</text>
<text text-anchor="start" x="8" y="-59.5" font-family="Helvetica,sans-Serif" font-size="10.00" fill="#000000"># processId</text>
<text text-anchor="start" x="8" y="-48.5" font-family="Helvetica,sans-Serif" font-size="10.00" fill="#000000"># loger</text>
<polyline fill="none" stroke="#000000" points="0,-41.5 87,-41.5 "/>
<text text-anchor="start" x="8" y="-29.5" font-family="Helvetica,sans-Serif" font-size="10.00" fill="#000000">+ getFileName()</text>
<text text-anchor="start" x="8" y="-18.5" font-family="Helvetica,sans-Serif" font-size="10.00" fill="#000000"># Loader()</text>
<text text-anchor="start" x="8" y="-7.5" font-family="Helvetica,sans-Serif" font-size="10.00" fill="#000000"># ~Loader()</text>
</g>
<!-- Node5 -->
<g id="node2" class="node">
<title>Node5</title>
<polygon fill="#ffffff" stroke="#bfbfbf" points="16.5,-149.5 16.5,-206.5 70.5,-206.5 70.5,-149.5 16.5,-149.5"/>
<text text-anchor="middle" x="43.5" y="-194.5" font-family="Helvetica,sans-Serif" font-size="10.00" fill="#000000">QThread</text>
<polyline fill="none" stroke="#bfbfbf" points="16.5,-187.5 70.5,-187.5 "/>
<text text-anchor="middle" x="43.5" y="-175.5" font-family="Helvetica,sans-Serif" font-size="10.00" fill="#000000"> </text>
<polyline fill="none" stroke="#bfbfbf" points="16.5,-168.5 70.5,-168.5 "/>
<text text-anchor="middle" x="43.5" y="-156.5" font-family="Helvetica,sans-Serif" font-size="10.00" fill="#000000"> </text>
</g>
<!-- Node5&#45;&gt;Node4 -->
<g id="edge1" class="edge">
<title>Node5&#45;&gt;Node4</title>
<path fill="none" stroke="#191970" d="M43.5,-139.0021C43.5,-130.6329 43.5,-121.6292 43.5,-112.7541"/>
<polygon fill="none" stroke="#191970" points="40.0001,-139.2062 43.5,-149.2062 47.0001,-139.2062 40.0001,-139.2062"/>
</g>
</g>
</svg>
