<?xml version="1.0" encoding="UTF-8" standalone="no"?>
<!DOCTYPE svg PUBLIC "-//W3C//DTD SVG 1.1//EN"
 "http://www.w3.org/Graphics/SVG/1.1/DTD/svg11.dtd">
<!-- Generated by graphviz version 2.40.1 (20161225.0304)
 -->
<!-- Title: Downloader Pages: 1 -->
<svg width="156pt" height="342pt"
 viewBox="0.00 0.00 156.00 342.00" xmlns="http://www.w3.org/2000/svg" xmlns:xlink="http://www.w3.org/1999/xlink">
<g id="graph0" class="graph" transform="scale(1 1) rotate(0) translate(4 338)">
<title>Downloader</title>
<polygon fill="#ffffff" stroke="transparent" points="-4,4 -4,-338 152,-338 152,4 -4,4"/>
<!-- Node3 -->
<g id="node1" class="node">
<title>Node3</title>
<polygon fill="#bfbfbf" stroke="#000000" points="0,-.5 0,-90.5 148,-90.5 148,-.5 0,-.5"/>
<text text-anchor="middle" x="74" y="-78.5" font-family="Helvetica,sans-Serif" font-size="10.00" fill="#000000">Downloader</text>
<polyline fill="none" stroke="#000000" points="0,-71.5 148,-71.5 "/>
<text text-anchor="middle" x="74" y="-59.5" font-family="Helvetica,sans-Serif" font-size="10.00" fill="#000000"> </text>
<polyline fill="none" stroke="#000000" points="0,-52.5 148,-52.5 "/>
<text text-anchor="start" x="8" y="-40.5" font-family="Helvetica,sans-Serif" font-size="10.00" fill="#000000">+ Downloader()</text>
<text text-anchor="start" x="8" y="-29.5" font-family="Helvetica,sans-Serif" font-size="10.00" fill="#000000">+ run()</text>
<text text-anchor="start" x="8" y="-18.5" font-family="Helvetica,sans-Serif" font-size="10.00" fill="#000000">+ ~Downloader()</text>
<text text-anchor="start" x="8" y="-7.5" font-family="Helvetica,sans-Serif" font-size="10.00" fill="#000000">+ downloadProcessProgress()</text>
</g>
<!-- Node4 -->
<g id="node2" class="node">
<title>Node4</title>
<g id="a_node2"><a xlink:href="classLoader.html" target="_top" xlink:title="{Loader\n|# fileName\l# client\l# processId\l# loger\l|+ getFileName()\l# Loader()\l# ~Loader()\l}">
<polygon fill="#ffffff" stroke="#000000" points="30.5,-127.5 30.5,-239.5 117.5,-239.5 117.5,-127.5 30.5,-127.5"/>
<text text-anchor="middle" x="74" y="-227.5" font-family="Helvetica,sans-Serif" font-size="10.00" fill="#000000">Loader</text>
<polyline fill="none" stroke="#000000" points="30.5,-220.5 117.5,-220.5 "/>
<text text-anchor="start" x="38.5" y="-208.5" font-family="Helvetica,sans-Serif" font-size="10.00" fill="#000000"># fileName</text>
<text text-anchor="start" x="38.5" y="-197.5" font-family="Helvetica,sans-Serif" font-size="10.00" fill="#000000"># client</text>
<text text-anchor="start" x="38.5" y="-186.5" font-family="Helvetica,sans-Serif" font-size="10.00" fill="#000000"># processId</text>
<text text-anchor="start" x="38.5" y="-175.5" font-family="Helvetica,sans-Serif" font-size="10.00" fill="#000000"># loger</text>
<polyline fill="none" stroke="#000000" points="30.5,-168.5 117.5,-168.5 "/>
<text text-anchor="start" x="38.5" y="-156.5" font-family="Helvetica,sans-Serif" font-size="10.00" fill="#000000">+ getFileName()</text>
<text text-anchor="start" x="38.5" y="-145.5" font-family="Helvetica,sans-Serif" font-size="10.00" fill="#000000"># Loader()</text>
<text text-anchor="start" x="38.5" y="-134.5" font-family="Helvetica,sans-Serif" font-size="10.00" fill="#000000"># ~Loader()</text>
</a>
</g>
</g>
<!-- Node4&#45;&gt;Node3 -->
<g id="edge1" class="edge">
<title>Node4&#45;&gt;Node3</title>
<path fill="none" stroke="#191970" d="M74,-117.2386C74,-108.2122 74,-99.1233 74,-90.5909"/>
<polygon fill="none" stroke="#191970" points="70.5001,-117.3701 74,-127.3701 77.5001,-117.3702 70.5001,-117.3701"/>
</g>
<!-- Node5 -->
<g id="node3" class="node">
<title>Node5</title>
<polygon fill="#ffffff" stroke="#bfbfbf" points="47,-276.5 47,-333.5 101,-333.5 101,-276.5 47,-276.5"/>
<text text-anchor="middle" x="74" y="-321.5" font-family="Helvetica,sans-Serif" font-size="10.00" fill="#000000">QThread</text>
<polyline fill="none" stroke="#bfbfbf" points="47,-314.5 101,-314.5 "/>
<text text-anchor="middle" x="74" y="-302.5" font-family="Helvetica,sans-Serif" font-size="10.00" fill="#000000"> </text>
<polyline fill="none" stroke="#bfbfbf" points="47,-295.5 101,-295.5 "/>
<text text-anchor="middle" x="74" y="-283.5" font-family="Helvetica,sans-Serif" font-size="10.00" fill="#000000"> </text>
</g>
<!-- Node5&#45;&gt;Node4 -->
<g id="edge2" class="edge">
<title>Node5&#45;&gt;Node4</title>
<path fill="none" stroke="#191970" d="M74,-266.0021C74,-257.6329 74,-248.6292 74,-239.7541"/>
<polygon fill="none" stroke="#191970" points="70.5001,-266.2062 74,-276.2062 77.5001,-266.2062 70.5001,-266.2062"/>
</g>
</g>
</svg>
