<?xml version="1.0" encoding="UTF-8" standalone="no"?>
<!DOCTYPE svg PUBLIC "-//W3C//DTD SVG 1.1//EN"
 "http://www.w3.org/Graphics/SVG/1.1/DTD/svg11.dtd">
<!-- Generated by graphviz version 2.40.1 (20161225.0304)
 -->
<!-- Title: Loader Pages: 1 -->
<svg width="310pt" height="342pt"
 viewBox="0.00 0.00 309.50 342.00" xmlns="http://www.w3.org/2000/svg" xmlns:xlink="http://www.w3.org/1999/xlink">
<g id="graph0" class="graph" transform="scale(1 1) rotate(0) translate(4 338)">
<title>Loader</title>
<polygon fill="#ffffff" stroke="transparent" points="-4,4 -4,-338 305.5,-338 305.5,4 -4,4"/>
<!-- Node0 -->
<g id="node1" class="node">
<title>Node0</title>
<polygon fill="#bfbfbf" stroke="#000000" points="110.5,-127.5 110.5,-239.5 197.5,-239.5 197.5,-127.5 110.5,-127.5"/>
<text text-anchor="middle" x="154" y="-227.5" font-family="Helvetica,sans-Serif" font-size="10.00" fill="#000000">Loader</text>
<polyline fill="none" stroke="#000000" points="110.5,-220.5 197.5,-220.5 "/>
<text text-anchor="start" x="118.5" y="-208.5" font-family="Helvetica,sans-Serif" font-size="10.00" fill="#000000"># fileName</text>
<text text-anchor="start" x="118.5" y="-197.5" font-family="Helvetica,sans-Serif" font-size="10.00" fill="#000000"># client</text>
<text text-anchor="start" x="118.5" y="-186.5" font-family="Helvetica,sans-Serif" font-size="10.00" fill="#000000"># processId</text>
<text text-anchor="start" x="118.5" y="-175.5" font-family="Helvetica,sans-Serif" font-size="10.00" fill="#000000"># loger</text>
<polyline fill="none" stroke="#000000" points="110.5,-168.5 197.5,-168.5 "/>
<text text-anchor="start" x="118.5" y="-156.5" font-family="Helvetica,sans-Serif" font-size="10.00" fill="#000000">+ getFileName()</text>
<text text-anchor="start" x="118.5" y="-145.5" font-family="Helvetica,sans-Serif" font-size="10.00" fill="#000000"># Loader()</text>
<text text-anchor="start" x="118.5" y="-134.5" font-family="Helvetica,sans-Serif" font-size="10.00" fill="#000000"># ~Loader()</text>
</g>
<!-- Node2 -->
<g id="node3" class="node">
<title>Node2</title>
<g id="a_node3"><a xlink:href="classDownloader.html" target="_top" xlink:title="{Downloader\n||+ Downloader()\l+ run()\l+ ~Downloader()\l+ downloadProcessProgress()\l}">
<polygon fill="#ffffff" stroke="#000000" points="0,-.5 0,-90.5 148,-90.5 148,-.5 0,-.5"/>
<text text-anchor="middle" x="74" y="-78.5" font-family="Helvetica,sans-Serif" font-size="10.00" fill="#000000">Downloader</text>
<polyline fill="none" stroke="#000000" points="0,-71.5 148,-71.5 "/>
<text text-anchor="middle" x="74" y="-59.5" font-family="Helvetica,sans-Serif" font-size="10.00" fill="#000000"> </text>
<polyline fill="none" stroke="#000000" points="0,-52.5 148,-52.5 "/>
<text text-anchor="start" x="8" y="-40.5" font-family="Helvetica,sans-Serif" font-size="10.00" fill="#000000">+ Downloader()</text>
<text text-anchor="start" x="8" y="-29.5" font-family="Helvetica,sans-Serif" font-size="10.00" fill="#000000">+ run()</text>
<text text-anchor="start" x="8" y="-18.5" font-family="Helvetica,sans-Serif" font-size="10.00" fill="#000000">+ ~Downloader()</text>
<text text-anchor="start" x="8" y="-7.5" font-family="Helvetica,sans-Serif" font-size="10.00" fill="#000000">+ downloadProcessProgress()</text>
</a>
</g>
</g>
<!-- Node0&#45;&gt;Node2 -->
<g id="edge2" class="edge">
<title>Node0&#45;&gt;Node2</title>
<path fill="none" stroke="#191970" d="M116.4312,-118.6939C110.9224,-109.1912 105.3519,-99.582 100.1396,-90.5909"/>
<polygon fill="none" stroke="#191970" points="113.4176,-120.4741 121.4609,-127.3701 119.4736,-116.9633 113.4176,-120.4741"/>
</g>
<!-- Node3 -->
<g id="node4" class="node">
<title>Node3</title>
<g id="a_node4"><a xlink:href="classUploader.html" target="_top" xlink:title="{Uploader\n||+ Uploader()\l+ run()\l+ ~Uploader()\l+ uploadProcessProgress()\l}">
<polygon fill="#ffffff" stroke="#000000" points="166.5,-.5 166.5,-90.5 301.5,-90.5 301.5,-.5 166.5,-.5"/>
<text text-anchor="middle" x="234" y="-78.5" font-family="Helvetica,sans-Serif" font-size="10.00" fill="#000000">Uploader</text>
<polyline fill="none" stroke="#000000" points="166.5,-71.5 301.5,-71.5 "/>
<text text-anchor="middle" x="234" y="-59.5" font-family="Helvetica,sans-Serif" font-size="10.00" fill="#000000"> </text>
<polyline fill="none" stroke="#000000" points="166.5,-52.5 301.5,-52.5 "/>
<text text-anchor="start" x="174.5" y="-40.5" font-family="Helvetica,sans-Serif" font-size="10.00" fill="#000000">+ Uploader()</text>
<text text-anchor="start" x="174.5" y="-29.5" font-family="Helvetica,sans-Serif" font-size="10.00" fill="#000000">+ run()</text>
<text text-anchor="start" x="174.5" y="-18.5" font-family="Helvetica,sans-Serif" font-size="10.00" fill="#000000">+ ~Uploader()</text>
<text text-anchor="start" x="174.5" y="-7.5" font-family="Helvetica,sans-Serif" font-size="10.00" fill="#000000">+ uploadProcessProgress()</text>
</a>
</g>
</g>
<!-- Node0&#45;&gt;Node3 -->
<g id="edge3" class="edge">
<title>Node0&#45;&gt;Node3</title>
<path fill="none" stroke="#191970" d="M191.5688,-118.6939C197.0776,-109.1912 202.6481,-99.582 207.8604,-90.5909"/>
<polygon fill="none" stroke="#191970" points="188.5264,-116.9633 186.5391,-127.3701 194.5824,-120.4741 188.5264,-116.9633"/>
</g>
<!-- Node1 -->
<g id="node2" class="node">
<title>Node1</title>
<polygon fill="#ffffff" stroke="#bfbfbf" points="127,-276.5 127,-333.5 181,-333.5 181,-276.5 127,-276.5"/>
<text text-anchor="middle" x="154" y="-321.5" font-family="Helvetica,sans-Serif" font-size="10.00" fill="#000000">QThread</text>
<polyline fill="none" stroke="#bfbfbf" points="127,-314.5 181,-314.5 "/>
<text text-anchor="middle" x="154" y="-302.5" font-family="Helvetica,sans-Serif" font-size="10.00" fill="#000000"> </text>
<polyline fill="none" stroke="#bfbfbf" points="127,-295.5 181,-295.5 "/>
<text text-anchor="middle" x="154" y="-283.5" font-family="Helvetica,sans-Serif" font-size="10.00" fill="#000000"> </text>
</g>
<!-- Node1&#45;&gt;Node0 -->
<g id="edge1" class="edge">
<title>Node1&#45;&gt;Node0</title>
<path fill="none" stroke="#191970" d="M154,-266.0021C154,-257.6329 154,-248.6292 154,-239.7541"/>
<polygon fill="none" stroke="#191970" points="150.5001,-266.2062 154,-276.2062 157.5001,-266.2062 150.5001,-266.2062"/>
</g>
</g>
</svg>
