<?xml version="1.0" encoding="UTF-8" standalone="no"?>
<!DOCTYPE svg PUBLIC "-//W3C//DTD SVG 1.1//EN"
 "http://www.w3.org/Graphics/SVG/1.1/DTD/svg11.dtd">
<!-- Generated by graphviz version 2.40.1 (20161225.0304)
 -->
<!-- Title: InputDialog Pages: 1 -->
<svg width="89pt" height="182pt"
 viewBox="0.00 0.00 89.00 182.00" xmlns="http://www.w3.org/2000/svg" xmlns:xlink="http://www.w3.org/1999/xlink">
<g id="graph0" class="graph" transform="scale(1 1) rotate(0) translate(4 178)">
<title>InputDialog</title>
<polygon fill="#ffffff" stroke="transparent" points="-4,4 -4,-178 85,-178 85,4 -4,4"/>
<!-- Node0 -->
<g id="node1" class="node">
<title>Node0</title>
<polygon fill="#bfbfbf" stroke="#000000" points="0,-.5 0,-79.5 81,-79.5 81,-.5 0,-.5"/>
<text text-anchor="middle" x="40.5" y="-67.5" font-family="Helvetica,sans-Serif" font-size="10.00" fill="#000000">InputDialog</text>
<polyline fill="none" stroke="#000000" points="0,-60.5 81,-60.5 "/>
<text text-anchor="middle" x="40.5" y="-48.5" font-family="Helvetica,sans-Serif" font-size="10.00" fill="#000000"> </text>
<polyline fill="none" stroke="#000000" points="0,-41.5 81,-41.5 "/>
<text text-anchor="start" x="8" y="-29.5" font-family="Helvetica,sans-Serif" font-size="10.00" fill="#000000">+ InputDialog()</text>
<text text-anchor="start" x="8" y="-18.5" font-family="Helvetica,sans-Serif" font-size="10.00" fill="#000000">+ getStrings()</text>
<text text-anchor="start" x="8" y="-7.5" font-family="Helvetica,sans-Serif" font-size="10.00" fill="#000000">+ ok_clicked()</text>
</g>
<!-- Node1 -->
<g id="node2" class="node">
<title>Node1</title>
<polygon fill="#ffffff" stroke="#bfbfbf" points="14.5,-116.5 14.5,-173.5 66.5,-173.5 66.5,-116.5 14.5,-116.5"/>
<text text-anchor="middle" x="40.5" y="-161.5" font-family="Helvetica,sans-Serif" font-size="10.00" fill="#000000">QDialog</text>
<polyline fill="none" stroke="#bfbfbf" points="14.5,-154.5 66.5,-154.5 "/>
<text text-anchor="middle" x="40.5" y="-142.5" font-family="Helvetica,sans-Serif" font-size="10.00" fill="#000000"> </text>
<polyline fill="none" stroke="#bfbfbf" points="14.5,-135.5 66.5,-135.5 "/>
<text text-anchor="middle" x="40.5" y="-123.5" font-family="Helvetica,sans-Serif" font-size="10.00" fill="#000000"> </text>
</g>
<!-- Node1&#45;&gt;Node0 -->
<g id="edge1" class="edge">
<title>Node1&#45;&gt;Node0</title>
<path fill="none" stroke="#191970" d="M40.5,-106.1156C40.5,-97.4889 40.5,-88.3353 40.5,-79.6773"/>
<polygon fill="none" stroke="#191970" points="37.0001,-106.3083 40.5,-116.3083 44.0001,-106.3083 37.0001,-106.3083"/>
</g>
</g>
</svg>
