<?xml version="1.0" encoding="UTF-8" standalone="no"?>
<!DOCTYPE svg PUBLIC "-//W3C//DTD SVG 1.1//EN"
 "http://www.w3.org/Graphics/SVG/1.1/DTD/svg11.dtd">
<!-- Generated by graphviz version 2.40.1 (20161225.0304)
 -->
<!-- Title: Graphical Class Hierarchy Pages: 1 -->
<svg width="171pt" height="66pt"
 viewBox="0.00 0.00 171.00 66.00" xmlns="http://www.w3.org/2000/svg" xmlns:xlink="http://www.w3.org/1999/xlink">
<g id="graph0" class="graph" transform="scale(1 1) rotate(0) translate(4 62)">
<title>Graphical Class Hierarchy</title>
<polygon fill="#ffffff" stroke="transparent" points="-4,4 -4,-62 167,-62 167,4 -4,4"/>
<!-- Node10 -->
<g id="node1" class="node">
<title>Node10</title>
<polygon fill="#ffffff" stroke="#bfbfbf" points="0,-19.5 0,-38.5 52,-38.5 52,-19.5 0,-19.5"/>
<text text-anchor="middle" x="26" y="-26.5" font-family="Helvetica,sans-Serif" font-size="10.00" fill="#000000">QDialog</text>
</g>
<!-- Node0 -->
<g id="node2" class="node">
<title>Node0</title>
<g id="a_node2"><a xlink:href="classInputDialog.html" target="_top" xlink:title="InputDialog">
<polygon fill="#ffffff" stroke="#000000" points="92.5,-38.5 92.5,-57.5 158.5,-57.5 158.5,-38.5 92.5,-38.5"/>
<text text-anchor="middle" x="125.5" y="-45.5" font-family="Helvetica,sans-Serif" font-size="10.00" fill="#000000">InputDialog</text>
</a>
</g>
</g>
<!-- Node10&#45;&gt;Node0 -->
<g id="edge1" class="edge">
<title>Node10&#45;&gt;Node0</title>
<path fill="none" stroke="#191970" d="M62.1012,-35.8937C71.9989,-37.7837 82.6777,-39.8229 92.3982,-41.6791"/>
<polygon fill="#191970" stroke="#191970" points="62.6215,-32.4299 52.1425,-33.992 61.3085,-39.3056 62.6215,-32.4299"/>
</g>
<!-- Node12 -->
<g id="node3" class="node">
<title>Node12</title>
<g id="a_node3"><a xlink:href="classSearchDialog.html" target="_top" xlink:title="SearchDialog">
<polygon fill="#ffffff" stroke="#000000" points="88,-.5 88,-19.5 163,-19.5 163,-.5 88,-.5"/>
<text text-anchor="middle" x="125.5" y="-7.5" font-family="Helvetica,sans-Serif" font-size="10.00" fill="#000000">SearchDialog</text>
</a>
</g>
</g>
<!-- Node10&#45;&gt;Node12 -->
<g id="edge2" class="edge">
<title>Node10&#45;&gt;Node12</title>
<path fill="none" stroke="#191970" d="M62.0545,-22.1152C70.47,-20.5082 79.4526,-18.793 87.9321,-17.1738"/>
<polygon fill="#191970" stroke="#191970" points="61.3085,-18.6944 52.1425,-24.008 62.6215,-25.5701 61.3085,-18.6944"/>
</g>
</g>
</svg>
