<?xml version="1.0" encoding="UTF-8" standalone="no"?>
<!DOCTYPE svg PUBLIC "-//W3C//DTD SVG 1.1//EN"
 "http://www.w3.org/Graphics/SVG/1.1/DTD/svg11.dtd">
<!-- Generated by graphviz version 2.40.1 (20161225.0304)
 -->
<!-- Title: Graphical Class Hierarchy Pages: 1 -->
<svg width="158pt" height="104pt"
 viewBox="0.00 0.00 158.00 104.00" xmlns="http://www.w3.org/2000/svg" xmlns:xlink="http://www.w3.org/1999/xlink">
<g id="graph0" class="graph" transform="scale(1 1) rotate(0) translate(4 100)">
<title>Graphical Class Hierarchy</title>
<polygon fill="#ffffff" stroke="transparent" points="-4,4 -4,-100 154,-100 154,4 -4,4"/>
<!-- Node0 -->
<g id="node1" class="node">
<title>Node0</title>
<g id="a_node1"><a xlink:href="classLoader.html" target="_top" xlink:title="Loader">
<polygon fill="#ffffff" stroke="#000000" points="0,-38.5 0,-57.5 46,-57.5 46,-38.5 0,-38.5"/>
<text text-anchor="middle" x="23" y="-45.5" font-family="Helvetica,sans-Serif" font-size="10.00" fill="#000000">Loader</text>
</a>
</g>
</g>
<!-- Node0&#45;&gt;Node0 -->
<g id="edge1" class="edge">
<title>Node0&#45;&gt;Node0</title>
<path fill="none" stroke="#191970" d="M5.9638,-67.4C7.1015,-72.3146 12.7803,-76 23,-76 39.3516,-76 44.0782,-66.5653 37.1799,-57.7571"/>
<polygon fill="#191970" stroke="#191970" points="9.3358,-68.3393 8.8201,-57.7571 2.6241,-66.3512 9.3358,-68.3393"/>
</g>
<!-- Node1 -->
<g id="node2" class="node">
<title>Node1</title>
<g id="a_node2"><a xlink:href="classDownloader.html" target="_top" xlink:title="Downloader">
<polygon fill="#ffffff" stroke="#000000" points="82,-76.5 82,-95.5 150,-95.5 150,-76.5 82,-76.5"/>
<text text-anchor="middle" x="116" y="-83.5" font-family="Helvetica,sans-Serif" font-size="10.00" fill="#000000">Downloader</text>
</a>
</g>
</g>
<!-- Node0&#45;&gt;Node1 -->
<g id="edge2" class="edge">
<title>Node0&#45;&gt;Node1</title>
<path fill="none" stroke="#191970" d="M55.8228,-61.4114C67.9396,-66.3624 81.4165,-71.8691 92.5397,-76.4141"/>
<polygon fill="#191970" stroke="#191970" points="57.0488,-58.1315 46.4678,-57.589 54.401,-64.6115 57.0488,-58.1315"/>
</g>
<!-- Node2 -->
<g id="node3" class="node">
<title>Node2</title>
<g id="a_node3"><a xlink:href="classUploader.html" target="_top" xlink:title="Uploader">
<polygon fill="#ffffff" stroke="#000000" points="88,-38.5 88,-57.5 144,-57.5 144,-38.5 88,-38.5"/>
<text text-anchor="middle" x="116" y="-45.5" font-family="Helvetica,sans-Serif" font-size="10.00" fill="#000000">Uploader</text>
</a>
</g>
</g>
<!-- Node0&#45;&gt;Node2 -->
<g id="edge3" class="edge">
<title>Node0&#45;&gt;Node2</title>
<path fill="none" stroke="#191970" d="M56.7153,-48C66.9484,-48 78.0771,-48 87.8998,-48"/>
<polygon fill="#191970" stroke="#191970" points="56.4679,-44.5001 46.4678,-48 56.4678,-51.5001 56.4679,-44.5001"/>
</g>
<!-- Node4 -->
<g id="node4" class="node">
<title>Node4</title>
<g id="a_node4"><a xlink:href="classSearch.html" target="_top" xlink:title="Search">
<polygon fill="#ffffff" stroke="#000000" points="92.5,-.5 92.5,-19.5 139.5,-19.5 139.5,-.5 92.5,-.5"/>
<text text-anchor="middle" x="116" y="-7.5" font-family="Helvetica,sans-Serif" font-size="10.00" fill="#000000">Search</text>
</a>
</g>
</g>
<!-- Node0&#45;&gt;Node4 -->
<g id="edge4" class="edge">
<title>Node0&#45;&gt;Node4</title>
<path fill="none" stroke="#191970" d="M55.8228,-34.5886C67.9396,-29.6376 81.4165,-24.1309 92.5397,-19.5859"/>
<polygon fill="#191970" stroke="#191970" points="54.401,-31.3885 46.4678,-38.411 57.0488,-37.8685 54.401,-31.3885"/>
</g>
</g>
</svg>
