<?xml version="1.0" encoding="UTF-8" standalone="no"?>
<!DOCTYPE svg PUBLIC "-//W3C//DTD SVG 1.1//EN"
 "http://www.w3.org/Graphics/SVG/1.1/DTD/svg11.dtd">
<!-- Generated by graphviz version 2.40.1 (20161225.0304)
 -->
<!-- Title: inputDialog.h Pages: 1 -->
<svg width="294pt" height="252pt"
 viewBox="0.00 0.00 294.00 252.00" xmlns="http://www.w3.org/2000/svg" xmlns:xlink="http://www.w3.org/1999/xlink">
<g id="graph0" class="graph" transform="scale(1 1) rotate(0) translate(4 248)">
<title>inputDialog.h</title>
<polygon fill="#ffffff" stroke="transparent" points="-4,4 -4,-248 290,-248 290,4 -4,4"/>
<!-- Node8 -->
<g id="node1" class="node">
<title>Node8</title>
<polygon fill="#bfbfbf" stroke="#000000" points="81,-224.5 81,-243.5 155,-243.5 155,-224.5 81,-224.5"/>
<text text-anchor="middle" x="118" y="-231.5" font-family="Helvetica,sans-Serif" font-size="10.00" fill="#000000">inputDialog.h</text>
</g>
<!-- Node9 -->
<g id="node2" class="node">
<title>Node9</title>
<g id="a_node2"><a xlink:href="inputDialog_8cpp.html" target="_top" xlink:title="inputDialog.cpp">
<polygon fill="#ffffff" stroke="#000000" points="6,-168.5 6,-187.5 90,-187.5 90,-168.5 6,-168.5"/>
<text text-anchor="middle" x="48" y="-175.5" font-family="Helvetica,sans-Serif" font-size="10.00" fill="#000000">inputDialog.cpp</text>
</a>
</g>
</g>
<!-- Node8&#45;&gt;Node9 -->
<g id="edge1" class="edge">
<title>Node8&#45;&gt;Node9</title>
<path fill="none" stroke="#191970" d="M97.91,-217.928C85.6747,-208.1397 70.4493,-195.9595 60.0533,-187.6427"/>
<polygon fill="#191970" stroke="#191970" points="95.8118,-220.7316 105.8069,-224.2455 100.1847,-215.2655 95.8118,-220.7316"/>
</g>
<!-- Node10 -->
<g id="node3" class="node">
<title>Node10</title>
<g id="a_node3"><a xlink:href="serverconnection_8h.html" target="_top" xlink:title="serverconnection.h">
<polygon fill="#ffffff" stroke="#000000" points="146.5,-168.5 146.5,-187.5 245.5,-187.5 245.5,-168.5 146.5,-168.5"/>
<text text-anchor="middle" x="196" y="-175.5" font-family="Helvetica,sans-Serif" font-size="10.00" fill="#000000">serverconnection.h</text>
</a>
</g>
</g>
<!-- Node8&#45;&gt;Node10 -->
<g id="edge2" class="edge">
<title>Node8&#45;&gt;Node10</title>
<path fill="none" stroke="#191970" d="M139.9936,-218.2097C153.6929,-208.3743 170.8736,-196.0394 182.5691,-187.6427"/>
<polygon fill="#191970" stroke="#191970" points="137.6686,-215.5703 131.5866,-224.2455 141.7511,-221.2566 137.6686,-215.5703"/>
</g>
<!-- Node11 -->
<g id="node4" class="node">
<title>Node11</title>
<g id="a_node4"><a xlink:href="mainwindow_8h.html" target="_top" xlink:title="mainwindow.h">
<polygon fill="#ffffff" stroke="#000000" points="78.5,-112.5 78.5,-131.5 157.5,-131.5 157.5,-112.5 78.5,-112.5"/>
<text text-anchor="middle" x="118" y="-119.5" font-family="Helvetica,sans-Serif" font-size="10.00" fill="#000000">mainwindow.h</text>
</a>
</g>
</g>
<!-- Node8&#45;&gt;Node11 -->
<g id="edge11" class="edge">
<title>Node8&#45;&gt;Node11</title>
<path fill="none" stroke="#191970" d="M118,-214.2702C118,-189.9985 118,-149.7725 118,-131.5249"/>
<polygon fill="#191970" stroke="#191970" points="114.5001,-214.4509 118,-224.4509 121.5001,-214.451 114.5001,-214.4509"/>
</g>
<!-- Node10&#45;&gt;Node11 -->
<g id="edge3" class="edge">
<title>Node10&#45;&gt;Node11</title>
<path fill="none" stroke="#191970" d="M174.0064,-162.2097C160.3071,-152.3743 143.1264,-140.0394 131.4309,-131.6427"/>
<polygon fill="#191970" stroke="#191970" points="172.2489,-165.2566 182.4134,-168.2455 176.3314,-159.5703 172.2489,-165.2566"/>
</g>
<!-- Node16 -->
<g id="node9" class="node">
<title>Node16</title>
<g id="a_node9"><a xlink:href="serverconnection_8cpp.html" target="_top" xlink:title="serverconnection.cpp">
<polygon fill="#ffffff" stroke="#000000" points="176,-112.5 176,-131.5 286,-131.5 286,-112.5 176,-112.5"/>
<text text-anchor="middle" x="231" y="-119.5" font-family="Helvetica,sans-Serif" font-size="10.00" fill="#000000">serverconnection.cpp</text>
</a>
</g>
</g>
<!-- Node10&#45;&gt;Node16 -->
<g id="edge10" class="edge">
<title>Node10&#45;&gt;Node16</title>
<path fill="none" stroke="#191970" d="M207.4815,-159.6296C213.3196,-150.2887 220.1752,-139.3197 224.9733,-131.6427"/>
<polygon fill="#191970" stroke="#191970" points="204.4286,-157.9105 202.0965,-168.2455 210.3646,-161.6206 204.4286,-157.9105"/>
</g>
<!-- Node12 -->
<g id="node5" class="node">
<title>Node12</title>
<g id="a_node5"><a xlink:href="main_8cpp.html" target="_top" xlink:title="main.cpp">
<polygon fill="#ffffff" stroke="#000000" points="0,-56.5 0,-75.5 56,-75.5 56,-56.5 0,-56.5"/>
<text text-anchor="middle" x="28" y="-63.5" font-family="Helvetica,sans-Serif" font-size="10.00" fill="#000000">main.cpp</text>
</a>
</g>
</g>
<!-- Node11&#45;&gt;Node12 -->
<g id="edge4" class="edge">
<title>Node11&#45;&gt;Node12</title>
<path fill="none" stroke="#191970" d="M93.5216,-106.769C77.5734,-96.8456 57.249,-84.1994 43.4972,-75.6427"/>
<polygon fill="#191970" stroke="#191970" points="91.9835,-109.9342 102.3232,-112.2455 95.6817,-103.9908 91.9835,-109.9342"/>
</g>
<!-- Node13 -->
<g id="node6" class="node">
<title>Node13</title>
<g id="a_node6"><a xlink:href="mainwindow_8cpp.html" target="_top" xlink:title="mainwindow.cpp">
<polygon fill="#ffffff" stroke="#000000" points="53.5,-.5 53.5,-19.5 142.5,-19.5 142.5,-.5 53.5,-.5"/>
<text text-anchor="middle" x="98" y="-7.5" font-family="Helvetica,sans-Serif" font-size="10.00" fill="#000000">mainwindow.cpp</text>
</a>
</g>
</g>
<!-- Node11&#45;&gt;Node13 -->
<g id="edge5" class="edge">
<title>Node11&#45;&gt;Node13</title>
<path fill="none" stroke="#191970" d="M110.5594,-102.6818C107.732,-94.56 104.7692,-84.9379 103,-76 99.1176,-56.3859 98.203,-32.9444 98.0154,-19.9395"/>
<polygon fill="#191970" stroke="#191970" points="107.3605,-104.1248 114.0864,-112.3109 113.9334,-101.7171 107.3605,-104.1248"/>
</g>
<!-- Node14 -->
<g id="node7" class="node">
<title>Node14</title>
<g id="a_node7"><a xlink:href="searchdialog_8h.html" target="_top" xlink:title="searchdialog.h">
<polygon fill="#ffffff" stroke="#000000" points="112,-56.5 112,-75.5 192,-75.5 192,-56.5 112,-56.5"/>
<text text-anchor="middle" x="152" y="-63.5" font-family="Helvetica,sans-Serif" font-size="10.00" fill="#000000">searchdialog.h</text>
</a>
</g>
</g>
<!-- Node11&#45;&gt;Node14 -->
<g id="edge6" class="edge">
<title>Node11&#45;&gt;Node14</title>
<path fill="none" stroke="#191970" d="M129.1535,-103.6296C134.8247,-94.2887 141.4845,-83.3197 146.1455,-75.6427"/>
<polygon fill="#191970" stroke="#191970" points="126.1204,-101.8812 123.9223,-112.2455 132.1039,-105.5141 126.1204,-101.8812"/>
</g>
<!-- Node15 -->
<g id="node8" class="node">
<title>Node15</title>
<g id="a_node8"><a xlink:href="searchdialog_8cpp.html" target="_top" xlink:title="searchdialog.cpp">
<polygon fill="#ffffff" stroke="#000000" points="168,-.5 168,-19.5 258,-19.5 258,-.5 168,-.5"/>
<text text-anchor="middle" x="213" y="-7.5" font-family="Helvetica,sans-Serif" font-size="10.00" fill="#000000">searchdialog.cpp</text>
</a>
</g>
</g>
<!-- Node11&#45;&gt;Node15 -->
<g id="edge9" class="edge">
<title>Node11&#45;&gt;Node15</title>
<path fill="none" stroke="#191970" d="M158.5399,-108.2468C174.0888,-100.9971 190.5822,-90.5223 201,-76 213.0835,-59.1557 214.1649,-33.8272 213.7021,-19.9564"/>
<polygon fill="#191970" stroke="#191970" points="156.834,-105.1711 149.0434,-112.3514 159.6113,-111.5967 156.834,-105.1711"/>
</g>
<!-- Node14&#45;&gt;Node13 -->
<g id="edge7" class="edge">
<title>Node14&#45;&gt;Node13</title>
<path fill="none" stroke="#191970" d="M135.4031,-48.7884C126.1653,-39.2085 115.0096,-27.6396 107.2983,-19.6427"/>
<polygon fill="#191970" stroke="#191970" points="133.1331,-51.4766 142.5939,-56.2455 138.172,-46.6176 133.1331,-51.4766"/>
</g>
<!-- Node14&#45;&gt;Node15 -->
<g id="edge8" class="edge">
<title>Node14&#45;&gt;Node15</title>
<path fill="none" stroke="#191970" d="M170.1249,-49.3607C180.678,-39.6727 193.6112,-27.7995 202.4964,-19.6427"/>
<polygon fill="#191970" stroke="#191970" points="167.625,-46.9045 162.6254,-56.2455 172.3589,-52.0611 167.625,-46.9045"/>
</g>
</g>
</svg>
