<?xml version="1.0" encoding="UTF-8" standalone="no"?>
<!DOCTYPE svg PUBLIC "-//W3C//DTD SVG 1.1//EN"
 "http://www.w3.org/Graphics/SVG/1.1/DTD/svg11.dtd">
<!-- Generated by graphviz version 2.40.1 (20161225.0304)
 -->
<!-- Title: inputDialog.cpp Pages: 1 -->
<svg width="558pt" height="140pt"
 viewBox="0.00 0.00 558.00 140.00" xmlns="http://www.w3.org/2000/svg" xmlns:xlink="http://www.w3.org/1999/xlink">
<g id="graph0" class="graph" transform="scale(1 1) rotate(0) translate(4 136)">
<title>inputDialog.cpp</title>
<polygon fill="#ffffff" stroke="transparent" points="-4,4 -4,-136 554,-136 554,4 -4,4"/>
<!-- Node0 -->
<g id="node1" class="node">
<title>Node0</title>
<polygon fill="#bfbfbf" stroke="#000000" points="301,-112.5 301,-131.5 385,-131.5 385,-112.5 301,-112.5"/>
<text text-anchor="middle" x="343" y="-119.5" font-family="Helvetica,sans-Serif" font-size="10.00" fill="#000000">inputDialog.cpp</text>
</g>
<!-- Node1 -->
<g id="node2" class="node">
<title>Node1</title>
<g id="a_node2"><a xlink:href="inputDialog_8h.html" target="_top" xlink:title="inputDialog.h">
<polygon fill="#ffffff" stroke="#000000" points="274,-56.5 274,-75.5 348,-75.5 348,-56.5 274,-56.5"/>
<text text-anchor="middle" x="311" y="-63.5" font-family="Helvetica,sans-Serif" font-size="10.00" fill="#000000">inputDialog.h</text>
</a>
</g>
</g>
<!-- Node0&#45;&gt;Node1 -->
<g id="edge1" class="edge">
<title>Node0&#45;&gt;Node1</title>
<path fill="none" stroke="#191970" d="M337.426,-112.2455C333.0669,-104.617 326.8789,-93.7881 321.5867,-84.5267"/>
<polygon fill="#191970" stroke="#191970" points="324.5104,-82.5886 316.5101,-75.6427 318.4327,-86.0616 324.5104,-82.5886"/>
</g>
<!-- Node8 -->
<g id="node9" class="node">
<title>Node8</title>
<polygon fill="#ffffff" stroke="#bfbfbf" points="496,-.5 496,-19.5 550,-19.5 550,-.5 496,-.5"/>
<text text-anchor="middle" x="523" y="-7.5" font-family="Helvetica,sans-Serif" font-size="10.00" fill="#000000">iostream</text>
</g>
<!-- Node0&#45;&gt;Node8 -->
<g id="edge9" class="edge">
<title>Node0&#45;&gt;Node8</title>
<path fill="none" stroke="#191970" d="M358.3467,-112.4509C389.697,-92.9441 461.2966,-48.3932 498.9075,-24.9909"/>
<polygon fill="#191970" stroke="#191970" points="501.0506,-27.7797 507.6921,-19.5249 497.3525,-21.8362 501.0506,-27.7797"/>
</g>
<!-- Node2 -->
<g id="node3" class="node">
<title>Node2</title>
<polygon fill="#ffffff" stroke="#bfbfbf" points="0,-.5 0,-19.5 52,-19.5 52,-.5 0,-.5"/>
<text text-anchor="middle" x="26" y="-7.5" font-family="Helvetica,sans-Serif" font-size="10.00" fill="#000000">QDialog</text>
</g>
<!-- Node1&#45;&gt;Node2 -->
<g id="edge2" class="edge">
<title>Node1&#45;&gt;Node2</title>
<path fill="none" stroke="#191970" d="M273.9167,-60.323C226.8138,-52.8613 142.865,-38.7265 62.1294,-20.1021"/>
<polygon fill="#191970" stroke="#191970" points="62.836,-16.6731 52.3022,-17.8088 61.2451,-23.4899 62.836,-16.6731"/>
</g>
<!-- Node3 -->
<g id="node4" class="node">
<title>Node3</title>
<polygon fill="#ffffff" stroke="#bfbfbf" points="70.5,-.5 70.5,-19.5 129.5,-19.5 129.5,-.5 70.5,-.5"/>
<text text-anchor="middle" x="100" y="-7.5" font-family="Helvetica,sans-Serif" font-size="10.00" fill="#000000">QLineEdit</text>
</g>
<!-- Node1&#45;&gt;Node3 -->
<g id="edge3" class="edge">
<title>Node1&#45;&gt;Node3</title>
<path fill="none" stroke="#191970" d="M274.7278,-56.3733C237.0872,-46.3833 178.397,-30.8068 139.5774,-20.5039"/>
<polygon fill="#191970" stroke="#191970" points="140.2389,-17.0584 129.6756,-17.876 138.4432,-23.8242 140.2389,-17.0584"/>
</g>
<!-- Node4 -->
<g id="node5" class="node">
<title>Node4</title>
<polygon fill="#ffffff" stroke="#bfbfbf" points="148,-.5 148,-19.5 224,-19.5 224,-.5 148,-.5"/>
<text text-anchor="middle" x="186" y="-7.5" font-family="Helvetica,sans-Serif" font-size="10.00" fill="#000000">QFormLayout</text>
</g>
<!-- Node1&#45;&gt;Node4 -->
<g id="edge4" class="edge">
<title>Node1&#45;&gt;Node4</title>
<path fill="none" stroke="#191970" d="M289.5117,-56.3733C269.356,-47.3435 239.012,-33.7494 216.382,-23.6111"/>
<polygon fill="#191970" stroke="#191970" points="217.7649,-20.3955 207.2079,-19.5011 214.9029,-26.7838 217.7649,-20.3955"/>
</g>
<!-- Node5 -->
<g id="node6" class="node">
<title>Node5</title>
<polygon fill="#ffffff" stroke="#bfbfbf" points="242.5,-.5 242.5,-19.5 289.5,-19.5 289.5,-.5 242.5,-.5"/>
<text text-anchor="middle" x="266" y="-7.5" font-family="Helvetica,sans-Serif" font-size="10.00" fill="#000000">QLabel</text>
</g>
<!-- Node1&#45;&gt;Node5 -->
<g id="edge5" class="edge">
<title>Node1&#45;&gt;Node5</title>
<path fill="none" stroke="#191970" d="M303.1616,-56.2455C296.838,-48.3761 287.7776,-37.101 280.1864,-27.6542"/>
<polygon fill="#191970" stroke="#191970" points="282.7408,-25.2454 273.7486,-19.6427 277.2842,-29.6302 282.7408,-25.2454"/>
</g>
<!-- Node6 -->
<g id="node7" class="node">
<title>Node6</title>
<polygon fill="#ffffff" stroke="#bfbfbf" points="308,-.5 308,-19.5 406,-19.5 406,-.5 308,-.5"/>
<text text-anchor="middle" x="357" y="-7.5" font-family="Helvetica,sans-Serif" font-size="10.00" fill="#000000">QDialogButtonBox</text>
</g>
<!-- Node1&#45;&gt;Node6 -->
<g id="edge6" class="edge">
<title>Node1&#45;&gt;Node6</title>
<path fill="none" stroke="#191970" d="M319.0126,-56.2455C325.4768,-48.3761 334.7385,-37.101 342.4983,-27.6542"/>
<polygon fill="#191970" stroke="#191970" points="345.4364,-29.5916 349.0792,-19.6427 340.0273,-25.1484 345.4364,-29.5916"/>
</g>
<!-- Node7 -->
<g id="node8" class="node">
<title>Node7</title>
<polygon fill="#ffffff" stroke="#bfbfbf" points="424.5,-.5 424.5,-19.5 477.5,-19.5 477.5,-.5 424.5,-.5"/>
<text text-anchor="middle" x="451" y="-7.5" font-family="Helvetica,sans-Serif" font-size="10.00" fill="#000000">QDebug</text>
</g>
<!-- Node1&#45;&gt;Node7 -->
<g id="edge7" class="edge">
<title>Node1&#45;&gt;Node7</title>
<path fill="none" stroke="#191970" d="M335.0669,-56.3733C357.8428,-47.2629 392.2344,-33.5062 417.649,-23.3404"/>
<polygon fill="#191970" stroke="#191970" points="419.2623,-26.4648 427.2472,-19.5011 416.6625,-19.9654 419.2623,-26.4648"/>
</g>
<!-- Node1&#45;&gt;Node8 -->
<g id="edge8" class="edge">
<title>Node1&#45;&gt;Node8</title>
<path fill="none" stroke="#191970" d="M348.1262,-56.4725C381.6869,-47.8208 432.7065,-34.5719 485.9262,-20.2629"/>
<polygon fill="#191970" stroke="#191970" points="487.1402,-23.5607 495.8854,-17.5797 485.3191,-16.8017 487.1402,-23.5607"/>
</g>
</g>
</svg>
