<?xml version="1.0" encoding="UTF-8" standalone="no"?>
<!DOCTYPE svg PUBLIC "-//W3C//DTD SVG 1.1//EN"
 "http://www.w3.org/Graphics/SVG/1.1/DTD/svg11.dtd">
<!-- Generated by graphviz version 2.40.1 (20161225.0304)
 -->
<!-- Title: inputDialog.h Pages: 1 -->
<svg width="558pt" height="84pt"
 viewBox="0.00 0.00 558.00 84.00" xmlns="http://www.w3.org/2000/svg" xmlns:xlink="http://www.w3.org/1999/xlink">
<g id="graph0" class="graph" transform="scale(1 1) rotate(0) translate(4 80)">
<title>inputDialog.h</title>
<polygon fill="#ffffff" stroke="transparent" points="-4,4 -4,-80 554,-80 554,4 -4,4"/>
<!-- Node0 -->
<g id="node1" class="node">
<title>Node0</title>
<polygon fill="#bfbfbf" stroke="#000000" points="229,-56.5 229,-75.5 303,-75.5 303,-56.5 229,-56.5"/>
<text text-anchor="middle" x="266" y="-63.5" font-family="Helvetica,sans-Serif" font-size="10.00" fill="#000000">inputDialog.h</text>
</g>
<!-- Node1 -->
<g id="node2" class="node">
<title>Node1</title>
<polygon fill="#ffffff" stroke="#bfbfbf" points="0,-.5 0,-19.5 52,-19.5 52,-.5 0,-.5"/>
<text text-anchor="middle" x="26" y="-7.5" font-family="Helvetica,sans-Serif" font-size="10.00" fill="#000000">QDialog</text>
</g>
<!-- Node0&#45;&gt;Node1 -->
<g id="edge1" class="edge">
<title>Node0&#45;&gt;Node1</title>
<path fill="none" stroke="#191970" d="M228.8133,-58.3286C189.6346,-50.0976 125.926,-36.2936 62.1484,-20.1952"/>
<polygon fill="#191970" stroke="#191970" points="62.8834,-16.7707 52.3292,-17.6983 61.1582,-23.5548 62.8834,-16.7707"/>
</g>
<!-- Node2 -->
<g id="node3" class="node">
<title>Node2</title>
<polygon fill="#ffffff" stroke="#bfbfbf" points="70.5,-.5 70.5,-19.5 129.5,-19.5 129.5,-.5 70.5,-.5"/>
<text text-anchor="middle" x="100" y="-7.5" font-family="Helvetica,sans-Serif" font-size="10.00" fill="#000000">QLineEdit</text>
</g>
<!-- Node0&#45;&gt;Node2 -->
<g id="edge2" class="edge">
<title>Node0&#45;&gt;Node2</title>
<path fill="none" stroke="#191970" d="M237.4636,-56.3733C209.9798,-47.1016 168.2314,-33.0178 137.9548,-22.804"/>
<polygon fill="#191970" stroke="#191970" points="138.7582,-19.3813 128.164,-19.5011 136.5206,-26.0141 138.7582,-19.3813"/>
</g>
<!-- Node3 -->
<g id="node4" class="node">
<title>Node3</title>
<polygon fill="#ffffff" stroke="#bfbfbf" points="148,-.5 148,-19.5 224,-19.5 224,-.5 148,-.5"/>
<text text-anchor="middle" x="186" y="-7.5" font-family="Helvetica,sans-Serif" font-size="10.00" fill="#000000">QFormLayout</text>
</g>
<!-- Node0&#45;&gt;Node3 -->
<g id="edge3" class="edge">
<title>Node0&#45;&gt;Node3</title>
<path fill="none" stroke="#191970" d="M252.0651,-56.2455C239.9053,-47.7337 222.0536,-35.2375 207.9715,-25.3801"/>
<polygon fill="#191970" stroke="#191970" points="209.9747,-22.51 199.7752,-19.6427 205.9605,-28.2447 209.9747,-22.51"/>
</g>
<!-- Node4 -->
<g id="node5" class="node">
<title>Node4</title>
<polygon fill="#ffffff" stroke="#bfbfbf" points="242.5,-.5 242.5,-19.5 289.5,-19.5 289.5,-.5 242.5,-.5"/>
<text text-anchor="middle" x="266" y="-7.5" font-family="Helvetica,sans-Serif" font-size="10.00" fill="#000000">QLabel</text>
</g>
<!-- Node0&#45;&gt;Node4 -->
<g id="edge4" class="edge">
<title>Node0&#45;&gt;Node4</title>
<path fill="none" stroke="#191970" d="M266,-56.2455C266,-48.9382 266,-38.6944 266,-29.7046"/>
<polygon fill="#191970" stroke="#191970" points="269.5001,-29.6426 266,-19.6427 262.5001,-29.6427 269.5001,-29.6426"/>
</g>
<!-- Node5 -->
<g id="node6" class="node">
<title>Node5</title>
<polygon fill="#ffffff" stroke="#bfbfbf" points="308,-.5 308,-19.5 406,-19.5 406,-.5 308,-.5"/>
<text text-anchor="middle" x="357" y="-7.5" font-family="Helvetica,sans-Serif" font-size="10.00" fill="#000000">QDialogButtonBox</text>
</g>
<!-- Node0&#45;&gt;Node5 -->
<g id="edge5" class="edge">
<title>Node0&#45;&gt;Node5</title>
<path fill="none" stroke="#191970" d="M281.851,-56.2455C295.8132,-47.6534 316.3728,-35.0014 332.4596,-25.1018"/>
<polygon fill="#191970" stroke="#191970" points="334.6484,-27.8645 341.3307,-19.6427 330.9797,-21.9029 334.6484,-27.8645"/>
</g>
<!-- Node6 -->
<g id="node7" class="node">
<title>Node6</title>
<polygon fill="#ffffff" stroke="#bfbfbf" points="424.5,-.5 424.5,-19.5 477.5,-19.5 477.5,-.5 424.5,-.5"/>
<text text-anchor="middle" x="451" y="-7.5" font-family="Helvetica,sans-Serif" font-size="10.00" fill="#000000">QDebug</text>
</g>
<!-- Node0&#45;&gt;Node6 -->
<g id="edge6" class="edge">
<title>Node0&#45;&gt;Node6</title>
<path fill="none" stroke="#191970" d="M297.8026,-56.3733C330.1965,-46.5676 380.3718,-31.3793 414.3991,-21.0792"/>
<polygon fill="#191970" stroke="#191970" points="415.8462,-24.2981 424.4033,-18.0509 413.8181,-17.5983 415.8462,-24.2981"/>
</g>
<!-- Node7 -->
<g id="node8" class="node">
<title>Node7</title>
<polygon fill="#ffffff" stroke="#bfbfbf" points="496,-.5 496,-19.5 550,-19.5 550,-.5 496,-.5"/>
<text text-anchor="middle" x="523" y="-7.5" font-family="Helvetica,sans-Serif" font-size="10.00" fill="#000000">iostream</text>
</g>
<!-- Node0&#45;&gt;Node7 -->
<g id="edge7" class="edge">
<title>Node0&#45;&gt;Node7</title>
<path fill="none" stroke="#191970" d="M303.3147,-59.01C345.4077,-50.9537 416.1125,-36.9082 486.0611,-20.1144"/>
<polygon fill="#191970" stroke="#191970" points="487.0274,-23.4816 495.9231,-17.7268 485.3802,-16.6782 487.0274,-23.4816"/>
</g>
</g>
</svg>
