<?xml version="1.0" encoding="UTF-8" standalone="no"?>
<!DOCTYPE svg PUBLIC "-//W3C//DTD SVG 1.1//EN"
 "http://www.w3.org/Graphics/SVG/1.1/DTD/svg11.dtd">
<!-- Generated by graphviz version 2.40.1 (20161225.0304)
 -->
<!-- Title: listFiles.h Pages: 1 -->
<svg width="360pt" height="252pt"
 viewBox="0.00 0.00 360.00 252.00" xmlns="http://www.w3.org/2000/svg" xmlns:xlink="http://www.w3.org/1999/xlink">
<g id="graph0" class="graph" transform="scale(1 1) rotate(0) translate(4 248)">
<title>listFiles.h</title>
<polygon fill="#ffffff" stroke="transparent" points="-4,4 -4,-248 356,-248 356,4 -4,4"/>
<!-- Node7 -->
<g id="node1" class="node">
<title>Node7</title>
<polygon fill="#bfbfbf" stroke="#000000" points="141,-224.5 141,-243.5 200,-243.5 200,-224.5 141,-224.5"/>
<text text-anchor="middle" x="170.5" y="-231.5" font-family="Helvetica,sans-Serif" font-size="10.00" fill="#000000">listFiles.h</text>
</g>
<!-- Node8 -->
<g id="node2" class="node">
<title>Node8</title>
<g id="a_node2"><a xlink:href="listFiles_8cpp.html" target="_top" xlink:title="listFiles.cpp">
<polygon fill="#ffffff" stroke="#000000" points="5,-168.5 5,-187.5 74,-187.5 74,-168.5 5,-168.5"/>
<text text-anchor="middle" x="39.5" y="-175.5" font-family="Helvetica,sans-Serif" font-size="10.00" fill="#000000">listFiles.cpp</text>
</a>
</g>
</g>
<!-- Node7&#45;&gt;Node8 -->
<g id="edge1" class="edge">
<title>Node7&#45;&gt;Node8</title>
<path fill="none" stroke="#191970" d="M138.6466,-220.3833C114.8215,-210.1985 82.8432,-196.5284 61.7258,-187.5011"/>
<polygon fill="#191970" stroke="#191970" points="137.4094,-223.6608 147.9803,-224.3733 140.161,-217.2242 137.4094,-223.6608"/>
</g>
<!-- Node9 -->
<g id="node3" class="node">
<title>Node9</title>
<g id="a_node3"><a xlink:href="mainwindow_8h.html" target="_top" xlink:title="mainwindow.h">
<polygon fill="#ffffff" stroke="#000000" points="131,-112.5 131,-131.5 210,-131.5 210,-112.5 131,-112.5"/>
<text text-anchor="middle" x="170.5" y="-119.5" font-family="Helvetica,sans-Serif" font-size="10.00" fill="#000000">mainwindow.h</text>
</a>
</g>
</g>
<!-- Node7&#45;&gt;Node9 -->
<g id="edge2" class="edge">
<title>Node7&#45;&gt;Node9</title>
<path fill="none" stroke="#191970" d="M170.5,-214.2702C170.5,-189.9985 170.5,-149.7725 170.5,-131.5249"/>
<polygon fill="#191970" stroke="#191970" points="167.0001,-214.4509 170.5,-224.4509 174.0001,-214.451 167.0001,-214.4509"/>
</g>
<!-- Node12 -->
<g id="node6" class="node">
<title>Node12</title>
<g id="a_node6"><a xlink:href="searchdialog_8h.html" target="_top" xlink:title="searchdialog.h">
<polygon fill="#ffffff" stroke="#000000" points="38.5,-56.5 38.5,-75.5 118.5,-75.5 118.5,-56.5 38.5,-56.5"/>
<text text-anchor="middle" x="78.5" y="-63.5" font-family="Helvetica,sans-Serif" font-size="10.00" fill="#000000">searchdialog.h</text>
</a>
</g>
</g>
<!-- Node7&#45;&gt;Node12 -->
<g id="edge13" class="edge">
<title>Node7&#45;&gt;Node12</title>
<path fill="none" stroke="#191970" d="M160.4492,-215.6463C141.0017,-180.1336 98.8251,-103.1154 83.8819,-75.8279"/>
<polygon fill="#191970" stroke="#191970" points="157.417,-217.3964 165.2901,-224.4862 163.5567,-214.0341 157.417,-217.3964"/>
</g>
<!-- Node14 -->
<g id="node8" class="node">
<title>Node14</title>
<g id="a_node8"><a xlink:href="search_8h.html" target="_top" xlink:title="search.h">
<polygon fill="#ffffff" stroke="#000000" points="217.5,-168.5 217.5,-187.5 271.5,-187.5 271.5,-168.5 217.5,-168.5"/>
<text text-anchor="middle" x="244.5" y="-175.5" font-family="Helvetica,sans-Serif" font-size="10.00" fill="#000000">search.h</text>
</a>
</g>
</g>
<!-- Node7&#45;&gt;Node14 -->
<g id="edge9" class="edge">
<title>Node7&#45;&gt;Node14</title>
<path fill="none" stroke="#191970" d="M191.3657,-218.2097C204.3625,-208.3743 220.6622,-196.0394 231.7579,-187.6427"/>
<polygon fill="#191970" stroke="#191970" points="189.2518,-215.4201 183.3898,-224.2455 193.476,-221.002 189.2518,-215.4201"/>
</g>
<!-- Node15 -->
<g id="node9" class="node">
<title>Node15</title>
<g id="a_node9"><a xlink:href="search_8cpp.html" target="_top" xlink:title="search.cpp">
<polygon fill="#ffffff" stroke="#000000" points="287,-112.5 287,-131.5 352,-131.5 352,-112.5 287,-112.5"/>
<text text-anchor="middle" x="319.5" y="-119.5" font-family="Helvetica,sans-Serif" font-size="10.00" fill="#000000">search.cpp</text>
</a>
</g>
</g>
<!-- Node7&#45;&gt;Node15 -->
<g id="edge14" class="edge">
<title>Node7&#45;&gt;Node15</title>
<path fill="none" stroke="#191970" d="M210.0301,-224.2059C232.6243,-217.0681 260.3769,-205.5281 280.5,-188 298.5647,-172.2649 310.5069,-146.0279 316.0055,-131.8365"/>
<polygon fill="#191970" stroke="#191970" points="208.9585,-220.8731 200.3799,-227.0906 210.9634,-227.5799 208.9585,-220.8731"/>
</g>
<!-- Node10 -->
<g id="node4" class="node">
<title>Node10</title>
<g id="a_node4"><a xlink:href="main_8cpp.html" target="_top" xlink:title="main.cpp">
<polygon fill="#ffffff" stroke="#000000" points="136.5,-56.5 136.5,-75.5 192.5,-75.5 192.5,-56.5 136.5,-56.5"/>
<text text-anchor="middle" x="164.5" y="-63.5" font-family="Helvetica,sans-Serif" font-size="10.00" fill="#000000">main.cpp</text>
</a>
</g>
</g>
<!-- Node9&#45;&gt;Node10 -->
<g id="edge3" class="edge">
<title>Node9&#45;&gt;Node10</title>
<path fill="none" stroke="#191970" d="M168.374,-102.1575C167.4095,-93.155 166.3128,-82.9199 165.5331,-75.6427"/>
<polygon fill="#191970" stroke="#191970" points="164.9094,-102.6753 169.4549,-112.2455 171.8695,-101.9296 164.9094,-102.6753"/>
</g>
<!-- Node11 -->
<g id="node5" class="node">
<title>Node11</title>
<g id="a_node5"><a xlink:href="mainwindow_8cpp.html" target="_top" xlink:title="mainwindow.cpp">
<polygon fill="#ffffff" stroke="#000000" points="0,-.5 0,-19.5 89,-19.5 89,-.5 0,-.5"/>
<text text-anchor="middle" x="44.5" y="-7.5" font-family="Helvetica,sans-Serif" font-size="10.00" fill="#000000">mainwindow.cpp</text>
</a>
</g>
</g>
<!-- Node9&#45;&gt;Node11 -->
<g id="edge4" class="edge">
<title>Node9&#45;&gt;Node11</title>
<path fill="none" stroke="#191970" d="M121.0728,-112.2884C84.9999,-104.0798 40.5583,-91.2395 29.5,-76 17.216,-59.0713 29.2663,-33.7757 37.7499,-19.9328"/>
<polygon fill="#191970" stroke="#191970" points="120.471,-115.7397 130.9905,-114.4789 121.9808,-108.9045 120.471,-115.7397"/>
</g>
<!-- Node9&#45;&gt;Node12 -->
<g id="edge5" class="edge">
<title>Node9&#45;&gt;Node12</title>
<path fill="none" stroke="#191970" d="M145.4776,-106.769C129.175,-96.8456 108.399,-84.1994 94.3415,-75.6427"/>
<polygon fill="#191970" stroke="#191970" points="144.113,-110.0357 154.4748,-112.2455 147.7527,-104.0563 144.113,-110.0357"/>
</g>
<!-- Node13 -->
<g id="node7" class="node">
<title>Node13</title>
<g id="a_node7"><a xlink:href="searchdialog_8cpp.html" target="_top" xlink:title="searchdialog.cpp">
<polygon fill="#ffffff" stroke="#000000" points="175.5,-.5 175.5,-19.5 265.5,-19.5 265.5,-.5 175.5,-.5"/>
<text text-anchor="middle" x="220.5" y="-7.5" font-family="Helvetica,sans-Serif" font-size="10.00" fill="#000000">searchdialog.cpp</text>
</a>
</g>
</g>
<!-- Node9&#45;&gt;Node13 -->
<g id="edge8" class="edge">
<title>Node9&#45;&gt;Node13</title>
<path fill="none" stroke="#191970" d="M184.3894,-104.2269C190.3075,-95.9962 196.894,-85.8694 201.5,-76 210.375,-56.9833 216.0273,-32.9193 218.6934,-19.7363"/>
<polygon fill="#191970" stroke="#191970" points="181.5315,-102.2044 178.3552,-112.3119 187.1414,-106.3913 181.5315,-102.2044"/>
</g>
<!-- Node12&#45;&gt;Node11 -->
<g id="edge6" class="edge">
<title>Node12&#45;&gt;Node11</title>
<path fill="none" stroke="#191970" d="M67.3465,-47.6296C61.6753,-38.2887 55.0155,-27.3197 50.3545,-19.6427"/>
<polygon fill="#191970" stroke="#191970" points="64.3961,-49.5141 72.5777,-56.2455 70.3796,-45.8812 64.3961,-49.5141"/>
</g>
<!-- Node12&#45;&gt;Node13 -->
<g id="edge7" class="edge">
<title>Node12&#45;&gt;Node13</title>
<path fill="none" stroke="#191970" d="M112.3415,-52.6541C138.2366,-42.4419 173.3138,-28.6086 196.4079,-19.5011"/>
<polygon fill="#191970" stroke="#191970" points="110.9293,-49.4486 102.9107,-56.3733 113.4975,-55.9605 110.9293,-49.4486"/>
</g>
<!-- Node14&#45;&gt;Node9 -->
<g id="edge10" class="edge">
<title>Node14&#45;&gt;Node9</title>
<path fill="none" stroke="#191970" d="M223.6343,-162.2097C210.6375,-152.3743 194.3378,-140.0394 183.2421,-131.6427"/>
<polygon fill="#191970" stroke="#191970" points="221.524,-165.002 231.6102,-168.2455 225.7482,-159.4201 221.524,-165.002"/>
</g>
<!-- Node14&#45;&gt;Node13 -->
<g id="edge12" class="edge">
<title>Node14&#45;&gt;Node13</title>
<path fill="none" stroke="#191970" d="M241.68,-158.2601C236.5238,-122.1669 225.7522,-46.7656 221.904,-19.8279"/>
<polygon fill="#191970" stroke="#191970" points="238.2618,-159.0817 243.1409,-168.4862 245.1914,-158.0917 238.2618,-159.0817"/>
</g>
<!-- Node14&#45;&gt;Node15 -->
<g id="edge11" class="edge">
<title>Node14&#45;&gt;Node15</title>
<path fill="none" stroke="#191970" d="M265.6477,-162.2097C278.8201,-152.3743 295.34,-140.0394 306.5857,-131.6427"/>
<polygon fill="#191970" stroke="#191970" points="263.4828,-159.4581 257.564,-168.2455 267.6709,-165.0671 263.4828,-159.4581"/>
</g>
</g>
</svg>
