<?xml version="1.0" encoding="UTF-8" standalone="no"?>
<!DOCTYPE svg PUBLIC "-//W3C//DTD SVG 1.1//EN"
 "http://www.w3.org/Graphics/SVG/1.1/DTD/svg11.dtd">
<!-- Generated by graphviz version 2.40.1 (20161225.0304)
 -->
<!-- Title: listFiles.cpp Pages: 1 -->
<svg width="475pt" height="140pt"
 viewBox="0.00 0.00 475.00 140.00" xmlns="http://www.w3.org/2000/svg" xmlns:xlink="http://www.w3.org/1999/xlink">
<g id="graph0" class="graph" transform="scale(1 1) rotate(0) translate(4 136)">
<title>listFiles.cpp</title>
<polygon fill="#ffffff" stroke="transparent" points="-4,4 -4,-136 471,-136 471,4 -4,4"/>
<!-- Node0 -->
<g id="node1" class="node">
<title>Node0</title>
<polygon fill="#bfbfbf" stroke="#000000" points="285.5,-112.5 285.5,-131.5 354.5,-131.5 354.5,-112.5 285.5,-112.5"/>
<text text-anchor="middle" x="320" y="-119.5" font-family="Helvetica,sans-Serif" font-size="10.00" fill="#000000">listFiles.cpp</text>
</g>
<!-- Node1 -->
<g id="node2" class="node">
<title>Node1</title>
<g id="a_node2"><a xlink:href="listFiles_8h.html" target="_top" xlink:title="listFiles.h">
<polygon fill="#ffffff" stroke="#000000" points="261.5,-56.5 261.5,-75.5 320.5,-75.5 320.5,-56.5 261.5,-56.5"/>
<text text-anchor="middle" x="291" y="-63.5" font-family="Helvetica,sans-Serif" font-size="10.00" fill="#000000">listFiles.h</text>
</a>
</g>
</g>
<!-- Node0&#45;&gt;Node1 -->
<g id="edge1" class="edge">
<title>Node0&#45;&gt;Node1</title>
<path fill="none" stroke="#191970" d="M314.9486,-112.2455C310.9981,-104.617 305.3903,-93.7881 300.5942,-84.5267"/>
<polygon fill="#191970" stroke="#191970" points="303.7001,-82.9131 295.9935,-75.6427 297.4841,-86.1321 303.7001,-82.9131"/>
</g>
<!-- Node7 -->
<g id="node8" class="node">
<title>Node7</title>
<polygon fill="#ffffff" stroke="#bfbfbf" points="413,-.5 413,-19.5 467,-19.5 467,-.5 413,-.5"/>
<text text-anchor="middle" x="440" y="-7.5" font-family="Helvetica,sans-Serif" font-size="10.00" fill="#000000">iostream</text>
</g>
<!-- Node0&#45;&gt;Node7 -->
<g id="edge8" class="edge">
<title>Node0&#45;&gt;Node7</title>
<path fill="none" stroke="#191970" d="M330.2311,-112.4509C350.6885,-93.3574 396.8538,-50.2697 422.3146,-26.5063"/>
<polygon fill="#191970" stroke="#191970" points="424.8723,-28.9068 429.7948,-19.5249 420.0961,-23.7894 424.8723,-28.9068"/>
</g>
<!-- Node2 -->
<g id="node3" class="node">
<title>Node2</title>
<polygon fill="#ffffff" stroke="#bfbfbf" points="0,-.5 0,-19.5 38,-19.5 38,-.5 0,-.5"/>
<text text-anchor="middle" x="19" y="-7.5" font-family="Helvetica,sans-Serif" font-size="10.00" fill="#000000">QFtp</text>
</g>
<!-- Node1&#45;&gt;Node2 -->
<g id="edge2" class="edge">
<title>Node1&#45;&gt;Node2</title>
<path fill="none" stroke="#191970" d="M261.367,-61.9461C216.8694,-55.5295 130.0784,-41.7403 47.8915,-19.9171"/>
<polygon fill="#191970" stroke="#191970" points="48.7205,-16.5157 38.1538,-17.2871 46.8952,-23.2736 48.7205,-16.5157"/>
</g>
<!-- Node3 -->
<g id="node4" class="node">
<title>Node3</title>
<polygon fill="#ffffff" stroke="#bfbfbf" points="56,-.5 56,-19.5 142,-19.5 142,-.5 56,-.5"/>
<text text-anchor="middle" x="99" y="-7.5" font-family="Helvetica,sans-Serif" font-size="10.00" fill="#000000">QSharedPointer</text>
</g>
<!-- Node1&#45;&gt;Node3 -->
<g id="edge3" class="edge">
<title>Node1&#45;&gt;Node3</title>
<path fill="none" stroke="#191970" d="M261.4208,-57.3727C229.4026,-48.0341 178.0499,-33.0562 141.6675,-22.4447"/>
<polygon fill="#191970" stroke="#191970" points="142.4113,-19.0158 131.8312,-19.5758 140.4512,-25.7358 142.4113,-19.0158"/>
</g>
<!-- Node4 -->
<g id="node5" class="node">
<title>Node4</title>
<polygon fill="#ffffff" stroke="#bfbfbf" points="160,-.5 160,-19.5 234,-19.5 234,-.5 160,-.5"/>
<text text-anchor="middle" x="197" y="-7.5" font-family="Helvetica,sans-Serif" font-size="10.00" fill="#000000">QTreeWidget</text>
</g>
<!-- Node1&#45;&gt;Node4 -->
<g id="edge4" class="edge">
<title>Node1&#45;&gt;Node4</title>
<path fill="none" stroke="#191970" d="M274.6264,-56.2455C260.0692,-47.5731 238.569,-34.7645 221.8848,-24.825"/>
<polygon fill="#191970" stroke="#191970" points="223.5683,-21.7539 213.1859,-19.6427 219.9856,-27.7676 223.5683,-21.7539"/>
</g>
<!-- Node5 -->
<g id="node6" class="node">
<title>Node5</title>
<polygon fill="#ffffff" stroke="#bfbfbf" points="252.5,-.5 252.5,-19.5 329.5,-19.5 329.5,-.5 252.5,-.5"/>
<text text-anchor="middle" x="291" y="-7.5" font-family="Helvetica,sans-Serif" font-size="10.00" fill="#000000">QHeaderView</text>
</g>
<!-- Node1&#45;&gt;Node5 -->
<g id="edge5" class="edge">
<title>Node1&#45;&gt;Node5</title>
<path fill="none" stroke="#191970" d="M291,-56.2455C291,-48.9382 291,-38.6944 291,-29.7046"/>
<polygon fill="#191970" stroke="#191970" points="294.5001,-29.6426 291,-19.6427 287.5001,-29.6427 294.5001,-29.6426"/>
</g>
<!-- Node6 -->
<g id="node7" class="node">
<title>Node6</title>
<polygon fill="#ffffff" stroke="#bfbfbf" points="347.5,-.5 347.5,-19.5 394.5,-19.5 394.5,-.5 347.5,-.5"/>
<text text-anchor="middle" x="371" y="-7.5" font-family="Helvetica,sans-Serif" font-size="10.00" fill="#000000">QHash</text>
</g>
<!-- Node1&#45;&gt;Node6 -->
<g id="edge6" class="edge">
<title>Node1&#45;&gt;Node6</title>
<path fill="none" stroke="#191970" d="M304.9349,-56.2455C317.0947,-47.7337 334.9464,-35.2375 349.0285,-25.3801"/>
<polygon fill="#191970" stroke="#191970" points="351.0395,-28.2447 357.2248,-19.6427 347.0253,-22.51 351.0395,-28.2447"/>
</g>
<!-- Node1&#45;&gt;Node7 -->
<g id="edge7" class="edge">
<title>Node1&#45;&gt;Node7</title>
<path fill="none" stroke="#191970" d="M316.614,-56.3733C341.0687,-47.1822 378.1054,-33.2624 405.2209,-23.0713"/>
<polygon fill="#191970" stroke="#191970" points="406.5909,-26.2956 414.7202,-19.5011 404.1281,-19.7431 406.5909,-26.2956"/>
</g>
</g>
</svg>
