<?xml version="1.0" encoding="UTF-8" standalone="no"?>
<!DOCTYPE svg PUBLIC "-//W3C//DTD SVG 1.1//EN"
 "http://www.w3.org/Graphics/SVG/1.1/DTD/svg11.dtd">
<!-- Generated by graphviz version 2.40.1 (20161225.0304)
 -->
<!-- Title: listFiles.h Pages: 1 -->
<svg width="475pt" height="84pt"
 viewBox="0.00 0.00 475.00 84.00" xmlns="http://www.w3.org/2000/svg" xmlns:xlink="http://www.w3.org/1999/xlink">
<g id="graph0" class="graph" transform="scale(1 1) rotate(0) translate(4 80)">
<title>listFiles.h</title>
<polygon fill="#ffffff" stroke="transparent" points="-4,4 -4,-80 471,-80 471,4 -4,4"/>
<!-- Node0 -->
<g id="node1" class="node">
<title>Node0</title>
<polygon fill="#bfbfbf" stroke="#000000" points="214.5,-56.5 214.5,-75.5 273.5,-75.5 273.5,-56.5 214.5,-56.5"/>
<text text-anchor="middle" x="244" y="-63.5" font-family="Helvetica,sans-Serif" font-size="10.00" fill="#000000">listFiles.h</text>
</g>
<!-- Node1 -->
<g id="node2" class="node">
<title>Node1</title>
<polygon fill="#ffffff" stroke="#bfbfbf" points="0,-.5 0,-19.5 38,-19.5 38,-.5 0,-.5"/>
<text text-anchor="middle" x="19" y="-7.5" font-family="Helvetica,sans-Serif" font-size="10.00" fill="#000000">QFtp</text>
</g>
<!-- Node0&#45;&gt;Node1 -->
<g id="edge1" class="edge">
<title>Node0&#45;&gt;Node1</title>
<path fill="none" stroke="#191970" d="M214.3567,-60.1751C177.46,-52.6877 112.3812,-38.7054 48.0781,-20.0806"/>
<polygon fill="#191970" stroke="#191970" points="48.7662,-16.6349 38.1852,-17.1758 46.7941,-23.3514 48.7662,-16.6349"/>
</g>
<!-- Node2 -->
<g id="node3" class="node">
<title>Node2</title>
<polygon fill="#ffffff" stroke="#bfbfbf" points="56,-.5 56,-19.5 142,-19.5 142,-.5 56,-.5"/>
<text text-anchor="middle" x="99" y="-7.5" font-family="Helvetica,sans-Serif" font-size="10.00" fill="#000000">QSharedPointer</text>
</g>
<!-- Node0&#45;&gt;Node2 -->
<g id="edge2" class="edge">
<title>Node0&#45;&gt;Node2</title>
<path fill="none" stroke="#191970" d="M219.0736,-56.3733C195.3798,-47.2226 159.5489,-33.3844 133.1932,-23.2057"/>
<polygon fill="#191970" stroke="#191970" points="134.1906,-19.8389 123.6011,-19.5011 131.6686,-26.3689 134.1906,-19.8389"/>
</g>
<!-- Node3 -->
<g id="node4" class="node">
<title>Node3</title>
<polygon fill="#ffffff" stroke="#bfbfbf" points="160,-.5 160,-19.5 234,-19.5 234,-.5 160,-.5"/>
<text text-anchor="middle" x="197" y="-7.5" font-family="Helvetica,sans-Serif" font-size="10.00" fill="#000000">QTreeWidget</text>
</g>
<!-- Node0&#45;&gt;Node3 -->
<g id="edge3" class="edge">
<title>Node0&#45;&gt;Node3</title>
<path fill="none" stroke="#191970" d="M235.8132,-56.2455C229.1411,-48.2958 219.5521,-36.8706 211.5747,-27.3656"/>
<polygon fill="#191970" stroke="#191970" points="214.2026,-25.0524 205.093,-19.6427 208.8408,-29.5525 214.2026,-25.0524"/>
</g>
<!-- Node4 -->
<g id="node5" class="node">
<title>Node4</title>
<polygon fill="#ffffff" stroke="#bfbfbf" points="252.5,-.5 252.5,-19.5 329.5,-19.5 329.5,-.5 252.5,-.5"/>
<text text-anchor="middle" x="291" y="-7.5" font-family="Helvetica,sans-Serif" font-size="10.00" fill="#000000">QHeaderView</text>
</g>
<!-- Node0&#45;&gt;Node4 -->
<g id="edge4" class="edge">
<title>Node0&#45;&gt;Node4</title>
<path fill="none" stroke="#191970" d="M252.1868,-56.2455C258.8589,-48.2958 268.4479,-36.8706 276.4253,-27.3656"/>
<polygon fill="#191970" stroke="#191970" points="279.1592,-29.5525 282.907,-19.6427 273.7974,-25.0524 279.1592,-29.5525"/>
</g>
<!-- Node5 -->
<g id="node6" class="node">
<title>Node5</title>
<polygon fill="#ffffff" stroke="#bfbfbf" points="347.5,-.5 347.5,-19.5 394.5,-19.5 394.5,-.5 347.5,-.5"/>
<text text-anchor="middle" x="371" y="-7.5" font-family="Helvetica,sans-Serif" font-size="10.00" fill="#000000">QHash</text>
</g>
<!-- Node0&#45;&gt;Node5 -->
<g id="edge5" class="edge">
<title>Node0&#45;&gt;Node5</title>
<path fill="none" stroke="#191970" d="M265.8321,-56.3733C286.3103,-47.3435 317.1399,-33.7494 340.1319,-23.6111"/>
<polygon fill="#191970" stroke="#191970" points="341.715,-26.7383 349.4528,-19.5011 338.8907,-20.3333 341.715,-26.7383"/>
</g>
<!-- Node6 -->
<g id="node7" class="node">
<title>Node6</title>
<polygon fill="#ffffff" stroke="#bfbfbf" points="413,-.5 413,-19.5 467,-19.5 467,-.5 413,-.5"/>
<text text-anchor="middle" x="440" y="-7.5" font-family="Helvetica,sans-Serif" font-size="10.00" fill="#000000">iostream</text>
</g>
<!-- Node0&#45;&gt;Node6 -->
<g id="edge6" class="edge">
<title>Node0&#45;&gt;Node6</title>
<path fill="none" stroke="#191970" d="M273.7682,-57.4948C308.3225,-47.6222 365.3443,-31.3302 402.792,-20.6309"/>
<polygon fill="#191970" stroke="#191970" points="404.1465,-23.884 412.8001,-17.7714 402.2234,-17.1533 404.1465,-23.884"/>
</g>
</g>
</svg>
