<?xml version="1.0" encoding="UTF-8" standalone="no"?>
<!DOCTYPE svg PUBLIC "-//W3C//DTD SVG 1.1//EN"
 "http://www.w3.org/Graphics/SVG/1.1/DTD/svg11.dtd">
<!-- Generated by graphviz version 2.40.1 (20161225.0304)
 -->
<!-- Title: loader.h Pages: 1 -->
<svg width="268pt" height="196pt"
 viewBox="0.00 0.00 268.00 196.00" xmlns="http://www.w3.org/2000/svg" xmlns:xlink="http://www.w3.org/1999/xlink">
<g id="graph0" class="graph" transform="scale(1 1) rotate(0) translate(4 192)">
<title>loader.h</title>
<polygon fill="#ffffff" stroke="transparent" points="-4,4 -4,-192 264,-192 264,4 -4,4"/>
<!-- Node10 -->
<g id="node1" class="node">
<title>Node10</title>
<polygon fill="#bfbfbf" stroke="#000000" points="49.5,-168.5 49.5,-187.5 100.5,-187.5 100.5,-168.5 49.5,-168.5"/>
<text text-anchor="middle" x="75" y="-175.5" font-family="Helvetica,sans-Serif" font-size="10.00" fill="#000000">loader.h</text>
</g>
<!-- Node11 -->
<g id="node2" class="node">
<title>Node11</title>
<g id="a_node2"><a xlink:href="loader_8cpp.html" target="_top" xlink:title="loader.cpp">
<polygon fill="#ffffff" stroke="#000000" points="0,-112.5 0,-131.5 62,-131.5 62,-112.5 0,-112.5"/>
<text text-anchor="middle" x="31" y="-119.5" font-family="Helvetica,sans-Serif" font-size="10.00" fill="#000000">loader.cpp</text>
</a>
</g>
</g>
<!-- Node10&#45;&gt;Node11 -->
<g id="edge1" class="edge">
<title>Node10&#45;&gt;Node11</title>
<path fill="none" stroke="#191970" d="M61.0231,-160.2112C53.5871,-150.7472 44.734,-139.4797 38.5764,-131.6427"/>
<polygon fill="#191970" stroke="#191970" points="58.4054,-162.5447 67.3358,-168.2455 63.9097,-158.22 58.4054,-162.5447"/>
</g>
<!-- Node12 -->
<g id="node3" class="node">
<title>Node12</title>
<g id="a_node3"><a xlink:href="mainwindow_8h.html" target="_top" xlink:title="mainwindow.h">
<polygon fill="#ffffff" stroke="#000000" points="80.5,-112.5 80.5,-131.5 159.5,-131.5 159.5,-112.5 80.5,-112.5"/>
<text text-anchor="middle" x="120" y="-119.5" font-family="Helvetica,sans-Serif" font-size="10.00" fill="#000000">mainwindow.h</text>
</a>
</g>
</g>
<!-- Node10&#45;&gt;Node12 -->
<g id="edge2" class="edge">
<title>Node10&#45;&gt;Node12</title>
<path fill="none" stroke="#191970" d="M89.2946,-160.2112C96.8996,-150.7472 105.9538,-139.4797 112.2514,-131.6427"/>
<polygon fill="#191970" stroke="#191970" points="86.3741,-158.2581 82.8384,-168.2455 91.8306,-162.6428 86.3741,-158.2581"/>
</g>
<!-- Node13 -->
<g id="node4" class="node">
<title>Node13</title>
<g id="a_node4"><a xlink:href="main_8cpp.html" target="_top" xlink:title="main.cpp">
<polygon fill="#ffffff" stroke="#000000" points="2,-56.5 2,-75.5 58,-75.5 58,-56.5 2,-56.5"/>
<text text-anchor="middle" x="30" y="-63.5" font-family="Helvetica,sans-Serif" font-size="10.00" fill="#000000">main.cpp</text>
</a>
</g>
</g>
<!-- Node12&#45;&gt;Node13 -->
<g id="edge3" class="edge">
<title>Node12&#45;&gt;Node13</title>
<path fill="none" stroke="#191970" d="M95.5216,-106.769C79.5734,-96.8456 59.249,-84.1994 45.4972,-75.6427"/>
<polygon fill="#191970" stroke="#191970" points="93.9835,-109.9342 104.3232,-112.2455 97.6817,-103.9908 93.9835,-109.9342"/>
</g>
<!-- Node14 -->
<g id="node5" class="node">
<title>Node14</title>
<g id="a_node5"><a xlink:href="mainwindow_8cpp.html" target="_top" xlink:title="mainwindow.cpp">
<polygon fill="#ffffff" stroke="#000000" points="55.5,-.5 55.5,-19.5 144.5,-19.5 144.5,-.5 55.5,-.5"/>
<text text-anchor="middle" x="100" y="-7.5" font-family="Helvetica,sans-Serif" font-size="10.00" fill="#000000">mainwindow.cpp</text>
</a>
</g>
</g>
<!-- Node12&#45;&gt;Node14 -->
<g id="edge4" class="edge">
<title>Node12&#45;&gt;Node14</title>
<path fill="none" stroke="#191970" d="M112.5594,-102.6818C109.732,-94.56 106.7692,-84.9379 105,-76 101.1176,-56.3859 100.203,-32.9444 100.0154,-19.9395"/>
<polygon fill="#191970" stroke="#191970" points="109.3605,-104.1248 116.0864,-112.3109 115.9334,-101.7171 109.3605,-104.1248"/>
</g>
<!-- Node15 -->
<g id="node6" class="node">
<title>Node15</title>
<g id="a_node6"><a xlink:href="searchdialog_8h.html" target="_top" xlink:title="searchdialog.h">
<polygon fill="#ffffff" stroke="#000000" points="114,-56.5 114,-75.5 194,-75.5 194,-56.5 114,-56.5"/>
<text text-anchor="middle" x="154" y="-63.5" font-family="Helvetica,sans-Serif" font-size="10.00" fill="#000000">searchdialog.h</text>
</a>
</g>
</g>
<!-- Node12&#45;&gt;Node15 -->
<g id="edge5" class="edge">
<title>Node12&#45;&gt;Node15</title>
<path fill="none" stroke="#191970" d="M131.1535,-103.6296C136.8247,-94.2887 143.4845,-83.3197 148.1455,-75.6427"/>
<polygon fill="#191970" stroke="#191970" points="128.1204,-101.8812 125.9223,-112.2455 134.1039,-105.5141 128.1204,-101.8812"/>
</g>
<!-- Node16 -->
<g id="node7" class="node">
<title>Node16</title>
<g id="a_node7"><a xlink:href="searchdialog_8cpp.html" target="_top" xlink:title="searchdialog.cpp">
<polygon fill="#ffffff" stroke="#000000" points="170,-.5 170,-19.5 260,-19.5 260,-.5 170,-.5"/>
<text text-anchor="middle" x="215" y="-7.5" font-family="Helvetica,sans-Serif" font-size="10.00" fill="#000000">searchdialog.cpp</text>
</a>
</g>
</g>
<!-- Node12&#45;&gt;Node16 -->
<g id="edge8" class="edge">
<title>Node12&#45;&gt;Node16</title>
<path fill="none" stroke="#191970" d="M160.5399,-108.2468C176.0888,-100.9971 192.5822,-90.5223 203,-76 215.0835,-59.1557 216.1649,-33.8272 215.7021,-19.9564"/>
<polygon fill="#191970" stroke="#191970" points="158.834,-105.1711 151.0434,-112.3514 161.6113,-111.5967 158.834,-105.1711"/>
</g>
<!-- Node15&#45;&gt;Node14 -->
<g id="edge6" class="edge">
<title>Node15&#45;&gt;Node14</title>
<path fill="none" stroke="#191970" d="M137.4031,-48.7884C128.1653,-39.2085 117.0096,-27.6396 109.2983,-19.6427"/>
<polygon fill="#191970" stroke="#191970" points="135.1331,-51.4766 144.5939,-56.2455 140.172,-46.6176 135.1331,-51.4766"/>
</g>
<!-- Node15&#45;&gt;Node16 -->
<g id="edge7" class="edge">
<title>Node15&#45;&gt;Node16</title>
<path fill="none" stroke="#191970" d="M172.1249,-49.3607C182.678,-39.6727 195.6112,-27.7995 204.4964,-19.6427"/>
<polygon fill="#191970" stroke="#191970" points="169.625,-46.9045 164.6254,-56.2455 174.3589,-52.0611 169.625,-46.9045"/>
</g>
</g>
</svg>
