<?xml version="1.0" encoding="UTF-8" standalone="no"?>
<!DOCTYPE svg PUBLIC "-//W3C//DTD SVG 1.1//EN"
 "http://www.w3.org/Graphics/SVG/1.1/DTD/svg11.dtd">
<!-- Generated by graphviz version 2.40.1 (20161225.0304)
 -->
<!-- Title: loader.h Pages: 1 -->
<svg width="596pt" height="140pt"
 viewBox="0.00 0.00 596.00 140.00" xmlns="http://www.w3.org/2000/svg" xmlns:xlink="http://www.w3.org/1999/xlink">
<g id="graph0" class="graph" transform="scale(1 1) rotate(0) translate(4 136)">
<title>loader.h</title>
<polygon fill="#ffffff" stroke="transparent" points="-4,4 -4,-136 592,-136 592,4 -4,4"/>
<!-- Node0 -->
<g id="node1" class="node">
<title>Node0</title>
<polygon fill="#bfbfbf" stroke="#000000" points="344.5,-112.5 344.5,-131.5 395.5,-131.5 395.5,-112.5 344.5,-112.5"/>
<text text-anchor="middle" x="370" y="-119.5" font-family="Helvetica,sans-Serif" font-size="10.00" fill="#000000">loader.h</text>
</g>
<!-- Node1 -->
<g id="node2" class="node">
<title>Node1</title>
<g id="a_node2"><a xlink:href="logger_8h.html" target="_top" xlink:title="logger.h">
<polygon fill="#ffffff" stroke="#000000" points="172.5,-56.5 172.5,-75.5 223.5,-75.5 223.5,-56.5 172.5,-56.5"/>
<text text-anchor="middle" x="198" y="-63.5" font-family="Helvetica,sans-Serif" font-size="10.00" fill="#000000">logger.h</text>
</a>
</g>
</g>
<!-- Node0&#45;&gt;Node1 -->
<g id="edge1" class="edge">
<title>Node0&#45;&gt;Node1</title>
<path fill="none" stroke="#191970" d="M344.2499,-113.6162C314.7793,-104.0212 266.3392,-88.25 233.3491,-77.509"/>
<polygon fill="#191970" stroke="#191970" points="234.2372,-74.1174 223.6449,-74.3495 232.07,-80.7735 234.2372,-74.1174"/>
</g>
<!-- Node5 -->
<g id="node6" class="node">
<title>Node5</title>
<polygon fill="#ffffff" stroke="#bfbfbf" points="246.5,-.5 246.5,-19.5 297.5,-19.5 297.5,-.5 246.5,-.5"/>
<text text-anchor="middle" x="272" y="-7.5" font-family="Helvetica,sans-Serif" font-size="10.00" fill="#000000">QMutex</text>
</g>
<!-- Node0&#45;&gt;Node5 -->
<g id="edge10" class="edge">
<title>Node0&#45;&gt;Node5</title>
<path fill="none" stroke="#191970" d="M344.1412,-115.436C323.9159,-108.8983 296.8194,-96.7689 282,-76 272.4394,-62.6011 270.4093,-43.7541 270.4966,-29.6288"/>
<polygon fill="#191970" stroke="#191970" points="273.9989,-29.6438 270.9171,-19.5071 267.0049,-29.3531 273.9989,-29.6438"/>
</g>
<!-- Node6 -->
<g id="node7" class="node">
<title>Node6</title>
<polygon fill="#ffffff" stroke="#bfbfbf" points="290.5,-56.5 290.5,-75.5 355.5,-75.5 355.5,-56.5 290.5,-56.5"/>
<text text-anchor="middle" x="323" y="-63.5" font-family="Helvetica,sans-Serif" font-size="10.00" fill="#000000">QStringList</text>
</g>
<!-- Node0&#45;&gt;Node6 -->
<g id="edge6" class="edge">
<title>Node0&#45;&gt;Node6</title>
<path fill="none" stroke="#191970" d="M361.8132,-112.2455C355.1411,-104.2958 345.5521,-92.8706 337.5747,-83.3656"/>
<polygon fill="#191970" stroke="#191970" points="340.2026,-81.0524 331.093,-75.6427 334.8408,-85.5525 340.2026,-81.0524"/>
</g>
<!-- Node7 -->
<g id="node8" class="node">
<title>Node7</title>
<polygon fill="#ffffff" stroke="#bfbfbf" points="374,-56.5 374,-75.5 460,-75.5 460,-56.5 374,-56.5"/>
<text text-anchor="middle" x="417" y="-63.5" font-family="Helvetica,sans-Serif" font-size="10.00" fill="#000000">QSharedPointer</text>
</g>
<!-- Node0&#45;&gt;Node7 -->
<g id="edge7" class="edge">
<title>Node0&#45;&gt;Node7</title>
<path fill="none" stroke="#191970" d="M378.1868,-112.2455C384.8589,-104.2958 394.4479,-92.8706 402.4253,-83.3656"/>
<polygon fill="#191970" stroke="#191970" points="405.1592,-85.5525 408.907,-75.6427 399.7974,-81.0524 405.1592,-85.5525"/>
</g>
<!-- Node8 -->
<g id="node9" class="node">
<title>Node8</title>
<polygon fill="#ffffff" stroke="#bfbfbf" points="478,-56.5 478,-75.5 516,-75.5 516,-56.5 478,-56.5"/>
<text text-anchor="middle" x="497" y="-63.5" font-family="Helvetica,sans-Serif" font-size="10.00" fill="#000000">QFtp</text>
</g>
<!-- Node0&#45;&gt;Node8 -->
<g id="edge8" class="edge">
<title>Node0&#45;&gt;Node8</title>
<path fill="none" stroke="#191970" d="M391.8321,-112.3733C413.055,-103.0151 445.3957,-88.7547 468.6082,-78.5192"/>
<polygon fill="#191970" stroke="#191970" points="470.2007,-81.6422 477.9385,-74.4051 467.3764,-75.2373 470.2007,-81.6422"/>
</g>
<!-- Node9 -->
<g id="node10" class="node">
<title>Node9</title>
<polygon fill="#ffffff" stroke="#bfbfbf" points="534,-56.5 534,-75.5 588,-75.5 588,-56.5 534,-56.5"/>
<text text-anchor="middle" x="561" y="-63.5" font-family="Helvetica,sans-Serif" font-size="10.00" fill="#000000">QThread</text>
</g>
<!-- Node0&#45;&gt;Node9 -->
<g id="edge9" class="edge">
<title>Node0&#45;&gt;Node9</title>
<path fill="none" stroke="#191970" d="M395.7591,-114.4476C428.8485,-104.746 486.499,-87.8432 524.2039,-76.7884"/>
<polygon fill="#191970" stroke="#191970" points="525.1911,-80.1464 533.8024,-73.9742 523.2216,-73.4291 525.1911,-80.1464"/>
</g>
<!-- Node2 -->
<g id="node3" class="node">
<title>Node2</title>
<polygon fill="#ffffff" stroke="#bfbfbf" points="0,-.5 0,-19.5 50,-19.5 50,-.5 0,-.5"/>
<text text-anchor="middle" x="25" y="-7.5" font-family="Helvetica,sans-Serif" font-size="10.00" fill="#000000">QString</text>
</g>
<!-- Node1&#45;&gt;Node2 -->
<g id="edge2" class="edge">
<title>Node1&#45;&gt;Node2</title>
<path fill="none" stroke="#191970" d="M172.4733,-57.737C142.6608,-48.0867 93.1878,-32.0724 59.8557,-21.2828"/>
<polygon fill="#191970" stroke="#191970" points="60.6609,-17.8647 50.069,-18.1148 58.5051,-24.5245 60.6609,-17.8647"/>
</g>
<!-- Node3 -->
<g id="node4" class="node">
<title>Node3</title>
<polygon fill="#ffffff" stroke="#bfbfbf" points="68.5,-.5 68.5,-19.5 149.5,-19.5 149.5,-.5 68.5,-.5"/>
<text text-anchor="middle" x="109" y="-7.5" font-family="Helvetica,sans-Serif" font-size="10.00" fill="#000000">QMessageBox</text>
</g>
<!-- Node1&#45;&gt;Node3 -->
<g id="edge3" class="edge">
<title>Node1&#45;&gt;Node3</title>
<path fill="none" stroke="#191970" d="M182.4974,-56.2455C168.842,-47.6534 148.7343,-35.0014 133.0011,-25.1018"/>
<polygon fill="#191970" stroke="#191970" points="134.6529,-22.006 124.325,-19.6427 130.9249,-27.9307 134.6529,-22.006"/>
</g>
<!-- Node4 -->
<g id="node5" class="node">
<title>Node4</title>
<polygon fill="#ffffff" stroke="#bfbfbf" points="167.5,-.5 167.5,-19.5 228.5,-19.5 228.5,-.5 167.5,-.5"/>
<text text-anchor="middle" x="198" y="-7.5" font-family="Helvetica,sans-Serif" font-size="10.00" fill="#000000">QTextEdit</text>
</g>
<!-- Node1&#45;&gt;Node4 -->
<g id="edge4" class="edge">
<title>Node1&#45;&gt;Node4</title>
<path fill="none" stroke="#191970" d="M198,-56.2455C198,-48.9382 198,-38.6944 198,-29.7046"/>
<polygon fill="#191970" stroke="#191970" points="201.5001,-29.6426 198,-19.6427 194.5001,-29.6427 201.5001,-29.6426"/>
</g>
<!-- Node1&#45;&gt;Node5 -->
<g id="edge5" class="edge">
<title>Node1&#45;&gt;Node5</title>
<path fill="none" stroke="#191970" d="M210.8898,-56.2455C221.9254,-47.8943 238.0292,-35.7076 250.9353,-25.9408"/>
<polygon fill="#191970" stroke="#191970" points="253.3959,-28.4681 259.2579,-19.6427 249.1717,-22.8862 253.3959,-28.4681"/>
</g>
</g>
</svg>
