<?xml version="1.0" encoding="UTF-8" standalone="no"?>
<!DOCTYPE svg PUBLIC "-//W3C//DTD SVG 1.1//EN"
 "http://www.w3.org/Graphics/SVG/1.1/DTD/svg11.dtd">
<!-- Generated by graphviz version 2.40.1 (20161225.0304)
 -->
<!-- Title: logger.h Pages: 1 -->
<svg width="306pt" height="84pt"
 viewBox="0.00 0.00 305.50 84.00" xmlns="http://www.w3.org/2000/svg" xmlns:xlink="http://www.w3.org/1999/xlink">
<g id="graph0" class="graph" transform="scale(1 1) rotate(0) translate(4 80)">
<title>logger.h</title>
<polygon fill="#ffffff" stroke="transparent" points="-4,4 -4,-80 301.5,-80 301.5,4 -4,4"/>
<!-- Node0 -->
<g id="node1" class="node">
<title>Node0</title>
<polygon fill="#bfbfbf" stroke="#000000" points="127.5,-56.5 127.5,-75.5 178.5,-75.5 178.5,-56.5 127.5,-56.5"/>
<text text-anchor="middle" x="153" y="-63.5" font-family="Helvetica,sans-Serif" font-size="10.00" fill="#000000">logger.h</text>
</g>
<!-- Node1 -->
<g id="node2" class="node">
<title>Node1</title>
<polygon fill="#ffffff" stroke="#bfbfbf" points="0,-.5 0,-19.5 50,-19.5 50,-.5 0,-.5"/>
<text text-anchor="middle" x="25" y="-7.5" font-family="Helvetica,sans-Serif" font-size="10.00" fill="#000000">QString</text>
</g>
<!-- Node0&#45;&gt;Node1 -->
<g id="edge1" class="edge">
<title>Node0&#45;&gt;Node1</title>
<path fill="none" stroke="#191970" d="M130.996,-56.3733C110.3565,-47.3435 79.2842,-33.7494 56.1111,-23.6111"/>
<polygon fill="#191970" stroke="#191970" points="57.2813,-20.3028 46.7169,-19.5011 54.4755,-26.7159 57.2813,-20.3028"/>
</g>
<!-- Node2 -->
<g id="node3" class="node">
<title>Node2</title>
<polygon fill="#ffffff" stroke="#bfbfbf" points="68.5,-.5 68.5,-19.5 149.5,-19.5 149.5,-.5 68.5,-.5"/>
<text text-anchor="middle" x="109" y="-7.5" font-family="Helvetica,sans-Serif" font-size="10.00" fill="#000000">QMessageBox</text>
</g>
<!-- Node0&#45;&gt;Node2 -->
<g id="edge2" class="edge">
<title>Node0&#45;&gt;Node2</title>
<path fill="none" stroke="#191970" d="M145.3358,-56.2455C139.1527,-48.3761 130.2937,-37.101 122.8711,-27.6542"/>
<polygon fill="#191970" stroke="#191970" points="125.5068,-25.3435 116.5764,-19.6427 120.0025,-29.6683 125.5068,-25.3435"/>
</g>
<!-- Node3 -->
<g id="node4" class="node">
<title>Node3</title>
<polygon fill="#ffffff" stroke="#bfbfbf" points="167.5,-.5 167.5,-19.5 228.5,-19.5 228.5,-.5 167.5,-.5"/>
<text text-anchor="middle" x="198" y="-7.5" font-family="Helvetica,sans-Serif" font-size="10.00" fill="#000000">QTextEdit</text>
</g>
<!-- Node0&#45;&gt;Node3 -->
<g id="edge3" class="edge">
<title>Node0&#45;&gt;Node3</title>
<path fill="none" stroke="#191970" d="M160.8384,-56.2455C167.162,-48.3761 176.2224,-37.101 183.8136,-27.6542"/>
<polygon fill="#191970" stroke="#191970" points="186.7158,-29.6302 190.2514,-19.6427 181.2592,-25.2454 186.7158,-29.6302"/>
</g>
<!-- Node4 -->
<g id="node5" class="node">
<title>Node4</title>
<polygon fill="#ffffff" stroke="#bfbfbf" points="246.5,-.5 246.5,-19.5 297.5,-19.5 297.5,-.5 246.5,-.5"/>
<text text-anchor="middle" x="272" y="-7.5" font-family="Helvetica,sans-Serif" font-size="10.00" fill="#000000">QMutex</text>
</g>
<!-- Node0&#45;&gt;Node4 -->
<g id="edge4" class="edge">
<title>Node0&#45;&gt;Node4</title>
<path fill="none" stroke="#191970" d="M173.4568,-56.3733C192.4738,-47.4241 221.0175,-33.9917 242.4976,-23.8835"/>
<polygon fill="#191970" stroke="#191970" points="244.2522,-26.926 251.8101,-19.5011 241.2716,-20.5923 244.2522,-26.926"/>
</g>
</g>
</svg>
