<?xml version="1.0" encoding="UTF-8" standalone="no"?>
<!DOCTYPE svg PUBLIC "-//W3C//DTD SVG 1.1//EN"
 "http://www.w3.org/Graphics/SVG/1.1/DTD/svg11.dtd">
<!-- Generated by graphviz version 2.40.1 (20161225.0304)
 -->
<!-- Title: logger.h Pages: 1 -->
<svg width="315pt" height="252pt"
 viewBox="0.00 0.00 315.00 252.00" xmlns="http://www.w3.org/2000/svg" xmlns:xlink="http://www.w3.org/1999/xlink">
<g id="graph0" class="graph" transform="scale(1 1) rotate(0) translate(4 248)">
<title>logger.h</title>
<polygon fill="#ffffff" stroke="transparent" points="-4,4 -4,-248 311,-248 311,4 -4,4"/>
<!-- Node5 -->
<g id="node1" class="node">
<title>Node5</title>
<polygon fill="#bfbfbf" stroke="#000000" points="89.5,-224.5 89.5,-243.5 140.5,-243.5 140.5,-224.5 89.5,-224.5"/>
<text text-anchor="middle" x="115" y="-231.5" font-family="Helvetica,sans-Serif" font-size="10.00" fill="#000000">logger.h</text>
</g>
<!-- Node6 -->
<g id="node2" class="node">
<title>Node6</title>
<g id="a_node2"><a xlink:href="loader_8h.html" target="_top" xlink:title="loader.h">
<polygon fill="#ffffff" stroke="#000000" points="52.5,-168.5 52.5,-187.5 103.5,-187.5 103.5,-168.5 52.5,-168.5"/>
<text text-anchor="middle" x="78" y="-175.5" font-family="Helvetica,sans-Serif" font-size="10.00" fill="#000000">loader.h</text>
</a>
</g>
</g>
<!-- Node5&#45;&gt;Node6 -->
<g id="edge1" class="edge">
<title>Node5&#45;&gt;Node6</title>
<path fill="none" stroke="#191970" d="M102.8624,-215.6296C96.6907,-206.2887 89.4434,-195.3197 84.3711,-187.6427"/>
<polygon fill="#191970" stroke="#191970" points="100.1223,-217.8316 108.5551,-224.2455 105.9627,-213.9728 100.1223,-217.8316"/>
</g>
<!-- Node7 -->
<g id="node3" class="node">
<title>Node7</title>
<g id="a_node3"><a xlink:href="loader_8cpp.html" target="_top" xlink:title="loader.cpp">
<polygon fill="#ffffff" stroke="#000000" points="0,-112.5 0,-131.5 62,-131.5 62,-112.5 0,-112.5"/>
<text text-anchor="middle" x="31" y="-119.5" font-family="Helvetica,sans-Serif" font-size="10.00" fill="#000000">loader.cpp</text>
</a>
</g>
</g>
<!-- Node5&#45;&gt;Node7 -->
<g id="edge10" class="edge">
<title>Node5&#45;&gt;Node7</title>
<path fill="none" stroke="#191970" d="M80.8171,-219.6662C67.013,-212.1945 52.2009,-201.7102 43,-188 31.4482,-170.7867 30.1591,-145.6023 30.446,-131.8536"/>
<polygon fill="#191970" stroke="#191970" points="79.6261,-222.9853 90.1314,-224.3602 82.7764,-216.7342 79.6261,-222.9853"/>
</g>
<!-- Node13 -->
<g id="node9" class="node">
<title>Node13</title>
<g id="a_node9"><a xlink:href="logger_8cpp.html" target="_top" xlink:title="logger.cpp">
<polygon fill="#ffffff" stroke="#000000" points="122,-168.5 122,-187.5 184,-187.5 184,-168.5 122,-168.5"/>
<text text-anchor="middle" x="153" y="-175.5" font-family="Helvetica,sans-Serif" font-size="10.00" fill="#000000">logger.cpp</text>
</a>
</g>
</g>
<!-- Node5&#45;&gt;Node13 -->
<g id="edge11" class="edge">
<title>Node5&#45;&gt;Node13</title>
<path fill="none" stroke="#191970" d="M127.2679,-215.9209C133.6488,-206.5176 141.1931,-195.3997 146.4568,-187.6427"/>
<polygon fill="#191970" stroke="#191970" points="124.338,-214.0055 121.6191,-224.2455 130.1303,-217.936 124.338,-214.0055"/>
</g>
<!-- Node14 -->
<g id="node10" class="node">
<title>Node14</title>
<g id="a_node10"><a xlink:href="serverconnection_8h.html" target="_top" xlink:title="serverconnection.h">
<polygon fill="#ffffff" stroke="#000000" points="202.5,-168.5 202.5,-187.5 301.5,-187.5 301.5,-168.5 202.5,-168.5"/>
<text text-anchor="middle" x="252" y="-175.5" font-family="Helvetica,sans-Serif" font-size="10.00" fill="#000000">serverconnection.h</text>
</a>
</g>
</g>
<!-- Node5&#45;&gt;Node14 -->
<g id="edge12" class="edge">
<title>Node5&#45;&gt;Node14</title>
<path fill="none" stroke="#191970" d="M147.9806,-220.5189C172.9311,-210.3201 206.5734,-196.5685 228.7562,-187.5011"/>
<polygon fill="#191970" stroke="#191970" points="146.4834,-217.3497 138.5511,-224.3733 149.132,-223.8293 146.4834,-217.3497"/>
</g>
<!-- Node6&#45;&gt;Node7 -->
<g id="edge2" class="edge">
<title>Node6&#45;&gt;Node7</title>
<path fill="none" stroke="#191970" d="M63.3128,-160.5004C55.3204,-150.9775 45.7375,-139.5596 39.093,-131.6427"/>
<polygon fill="#191970" stroke="#191970" points="60.7036,-162.8358 69.8132,-168.2455 66.0654,-158.3357 60.7036,-162.8358"/>
</g>
<!-- Node8 -->
<g id="node4" class="node">
<title>Node8</title>
<g id="a_node4"><a xlink:href="mainwindow_8h.html" target="_top" xlink:title="mainwindow.h">
<polygon fill="#ffffff" stroke="#000000" points="93.5,-112.5 93.5,-131.5 172.5,-131.5 172.5,-112.5 93.5,-112.5"/>
<text text-anchor="middle" x="133" y="-119.5" font-family="Helvetica,sans-Serif" font-size="10.00" fill="#000000">mainwindow.h</text>
</a>
</g>
</g>
<!-- Node6&#45;&gt;Node8 -->
<g id="edge3" class="edge">
<title>Node6&#45;&gt;Node8</title>
<path fill="none" stroke="#191970" d="M94.6226,-161.0751C104.0855,-151.4402 115.5969,-139.7196 123.5295,-131.6427"/>
<polygon fill="#191970" stroke="#191970" points="92.0903,-158.6585 87.5803,-168.2455 97.0845,-163.5635 92.0903,-158.6585"/>
</g>
<!-- Node9 -->
<g id="node5" class="node">
<title>Node9</title>
<g id="a_node5"><a xlink:href="main_8cpp.html" target="_top" xlink:title="main.cpp">
<polygon fill="#ffffff" stroke="#000000" points="15,-56.5 15,-75.5 71,-75.5 71,-56.5 15,-56.5"/>
<text text-anchor="middle" x="43" y="-63.5" font-family="Helvetica,sans-Serif" font-size="10.00" fill="#000000">main.cpp</text>
</a>
</g>
</g>
<!-- Node8&#45;&gt;Node9 -->
<g id="edge4" class="edge">
<title>Node8&#45;&gt;Node9</title>
<path fill="none" stroke="#191970" d="M108.5216,-106.769C92.5734,-96.8456 72.249,-84.1994 58.4972,-75.6427"/>
<polygon fill="#191970" stroke="#191970" points="106.9835,-109.9342 117.3232,-112.2455 110.6817,-103.9908 106.9835,-109.9342"/>
</g>
<!-- Node10 -->
<g id="node6" class="node">
<title>Node10</title>
<g id="a_node6"><a xlink:href="mainwindow_8cpp.html" target="_top" xlink:title="mainwindow.cpp">
<polygon fill="#ffffff" stroke="#000000" points="68.5,-.5 68.5,-19.5 157.5,-19.5 157.5,-.5 68.5,-.5"/>
<text text-anchor="middle" x="113" y="-7.5" font-family="Helvetica,sans-Serif" font-size="10.00" fill="#000000">mainwindow.cpp</text>
</a>
</g>
</g>
<!-- Node8&#45;&gt;Node10 -->
<g id="edge5" class="edge">
<title>Node8&#45;&gt;Node10</title>
<path fill="none" stroke="#191970" d="M125.5594,-102.6818C122.732,-94.56 119.7692,-84.9379 118,-76 114.1176,-56.3859 113.203,-32.9444 113.0154,-19.9395"/>
<polygon fill="#191970" stroke="#191970" points="122.3605,-104.1248 129.0864,-112.3109 128.9334,-101.7171 122.3605,-104.1248"/>
</g>
<!-- Node11 -->
<g id="node7" class="node">
<title>Node11</title>
<g id="a_node7"><a xlink:href="searchdialog_8h.html" target="_top" xlink:title="searchdialog.h">
<polygon fill="#ffffff" stroke="#000000" points="127,-56.5 127,-75.5 207,-75.5 207,-56.5 127,-56.5"/>
<text text-anchor="middle" x="167" y="-63.5" font-family="Helvetica,sans-Serif" font-size="10.00" fill="#000000">searchdialog.h</text>
</a>
</g>
</g>
<!-- Node8&#45;&gt;Node11 -->
<g id="edge6" class="edge">
<title>Node8&#45;&gt;Node11</title>
<path fill="none" stroke="#191970" d="M144.1535,-103.6296C149.8247,-94.2887 156.4845,-83.3197 161.1455,-75.6427"/>
<polygon fill="#191970" stroke="#191970" points="141.1204,-101.8812 138.9223,-112.2455 147.1039,-105.5141 141.1204,-101.8812"/>
</g>
<!-- Node12 -->
<g id="node8" class="node">
<title>Node12</title>
<g id="a_node8"><a xlink:href="searchdialog_8cpp.html" target="_top" xlink:title="searchdialog.cpp">
<polygon fill="#ffffff" stroke="#000000" points="183,-.5 183,-19.5 273,-19.5 273,-.5 183,-.5"/>
<text text-anchor="middle" x="228" y="-7.5" font-family="Helvetica,sans-Serif" font-size="10.00" fill="#000000">searchdialog.cpp</text>
</a>
</g>
</g>
<!-- Node8&#45;&gt;Node12 -->
<g id="edge9" class="edge">
<title>Node8&#45;&gt;Node12</title>
<path fill="none" stroke="#191970" d="M173.5399,-108.2468C189.0888,-100.9971 205.5822,-90.5223 216,-76 228.0835,-59.1557 229.1649,-33.8272 228.7021,-19.9564"/>
<polygon fill="#191970" stroke="#191970" points="171.834,-105.1711 164.0434,-112.3514 174.6113,-111.5967 171.834,-105.1711"/>
</g>
<!-- Node11&#45;&gt;Node10 -->
<g id="edge7" class="edge">
<title>Node11&#45;&gt;Node10</title>
<path fill="none" stroke="#191970" d="M150.4031,-48.7884C141.1653,-39.2085 130.0096,-27.6396 122.2983,-19.6427"/>
<polygon fill="#191970" stroke="#191970" points="148.1331,-51.4766 157.5939,-56.2455 153.172,-46.6176 148.1331,-51.4766"/>
</g>
<!-- Node11&#45;&gt;Node12 -->
<g id="edge8" class="edge">
<title>Node11&#45;&gt;Node12</title>
<path fill="none" stroke="#191970" d="M185.1249,-49.3607C195.678,-39.6727 208.6112,-27.7995 217.4964,-19.6427"/>
<polygon fill="#191970" stroke="#191970" points="182.625,-46.9045 177.6254,-56.2455 187.3589,-52.0611 182.625,-46.9045"/>
</g>
<!-- Node14&#45;&gt;Node8 -->
<g id="edge13" class="edge">
<title>Node14&#45;&gt;Node8</title>
<path fill="none" stroke="#191970" d="M222.4856,-164.1109C200.9062,-153.9559 172.2024,-140.4482 153.1899,-131.5011"/>
<polygon fill="#191970" stroke="#191970" points="221.0047,-167.2821 231.5432,-168.3733 223.9853,-160.9484 221.0047,-167.2821"/>
</g>
<!-- Node15 -->
<g id="node11" class="node">
<title>Node15</title>
<g id="a_node11"><a xlink:href="serverconnection_8cpp.html" target="_top" xlink:title="serverconnection.cpp">
<polygon fill="#ffffff" stroke="#000000" points="197,-112.5 197,-131.5 307,-131.5 307,-112.5 197,-112.5"/>
<text text-anchor="middle" x="252" y="-119.5" font-family="Helvetica,sans-Serif" font-size="10.00" fill="#000000">serverconnection.cpp</text>
</a>
</g>
</g>
<!-- Node14&#45;&gt;Node15 -->
<g id="edge14" class="edge">
<title>Node14&#45;&gt;Node15</title>
<path fill="none" stroke="#191970" d="M252,-158.1575C252,-149.155 252,-138.9199 252,-131.6427"/>
<polygon fill="#191970" stroke="#191970" points="248.5001,-158.2455 252,-168.2455 255.5001,-158.2456 248.5001,-158.2455"/>
</g>
</g>
</svg>
