<?xml version="1.0" encoding="UTF-8" standalone="no"?>
<!DOCTYPE svg PUBLIC "-//W3C//DTD SVG 1.1//EN"
 "http://www.w3.org/Graphics/SVG/1.1/DTD/svg11.dtd">
<!-- Generated by graphviz version 2.40.1 (20161225.0304)
 -->
<!-- Title: main.cpp Pages: 1 -->
<svg width="2148pt" height="252pt"
 viewBox="0.00 0.00 2148.00 252.00" xmlns="http://www.w3.org/2000/svg" xmlns:xlink="http://www.w3.org/1999/xlink">
<g id="graph0" class="graph" transform="scale(1 1) rotate(0) translate(4 248)">
<title>main.cpp</title>
<polygon fill="#ffffff" stroke="transparent" points="-4,4 -4,-248 2144,-248 2144,4 -4,4"/>
<!-- Node0 -->
<g id="node1" class="node">
<title>Node0</title>
<polygon fill="#bfbfbf" stroke="#000000" points="1275.5,-224.5 1275.5,-243.5 1331.5,-243.5 1331.5,-224.5 1275.5,-224.5"/>
<text text-anchor="middle" x="1303.5" y="-231.5" font-family="Helvetica,sans-Serif" font-size="10.00" fill="#000000">main.cpp</text>
</g>
<!-- Node1 -->
<g id="node2" class="node">
<title>Node1</title>
<g id="a_node2"><a xlink:href="mainwindow_8h.html" target="_top" xlink:title="mainwindow.h">
<polygon fill="#ffffff" stroke="#000000" points="1217,-168.5 1217,-187.5 1296,-187.5 1296,-168.5 1217,-168.5"/>
<text text-anchor="middle" x="1256.5" y="-175.5" font-family="Helvetica,sans-Serif" font-size="10.00" fill="#000000">mainwindow.h</text>
</a>
</g>
</g>
<!-- Node0&#45;&gt;Node1 -->
<g id="edge1" class="edge">
<title>Node0&#45;&gt;Node1</title>
<path fill="none" stroke="#191970" d="M1295.3132,-224.2455C1288.6411,-216.2958 1279.0521,-204.8706 1271.0747,-195.3656"/>
<polygon fill="#191970" stroke="#191970" points="1273.7026,-193.0524 1264.593,-187.6427 1268.3408,-197.5525 1273.7026,-193.0524"/>
</g>
<!-- Node34 -->
<g id="node35" class="node">
<title>Node34</title>
<polygon fill="#ffffff" stroke="#bfbfbf" points="1314.5,-168.5 1314.5,-187.5 1386.5,-187.5 1386.5,-168.5 1314.5,-168.5"/>
<text text-anchor="middle" x="1350.5" y="-175.5" font-family="Helvetica,sans-Serif" font-size="10.00" fill="#000000">QApplication</text>
</g>
<!-- Node0&#45;&gt;Node34 -->
<g id="edge63" class="edge">
<title>Node0&#45;&gt;Node34</title>
<path fill="none" stroke="#191970" d="M1311.6868,-224.2455C1318.3589,-216.2958 1327.9479,-204.8706 1335.9253,-195.3656"/>
<polygon fill="#191970" stroke="#191970" points="1338.6592,-197.5525 1342.407,-187.6427 1333.2974,-193.0524 1338.6592,-197.5525"/>
</g>
<!-- Node2 -->
<g id="node3" class="node">
<title>Node2</title>
<g id="a_node3"><a xlink:href="serverconnection_8h.html" target="_top" xlink:title="serverconnection.h">
<polygon fill="#ffffff" stroke="#000000" points="573,-112.5 573,-131.5 672,-131.5 672,-112.5 573,-112.5"/>
<text text-anchor="middle" x="622.5" y="-119.5" font-family="Helvetica,sans-Serif" font-size="10.00" fill="#000000">serverconnection.h</text>
</a>
</g>
</g>
<!-- Node1&#45;&gt;Node2 -->
<g id="edge2" class="edge">
<title>Node1&#45;&gt;Node2</title>
<path fill="none" stroke="#191970" d="M1216.6639,-175.8091C1123.6326,-170.4691 884.9173,-155.4746 686.5,-132 685.0342,-131.8266 683.5505,-131.6447 682.0545,-131.4556"/>
<polygon fill="#191970" stroke="#191970" points="682.4402,-127.9761 672.0641,-130.1175 681.5109,-134.9141 682.4402,-127.9761"/>
</g>
<!-- Node4 -->
<g id="node5" class="node">
<title>Node4</title>
<polygon fill="#ffffff" stroke="#bfbfbf" points="495.5,-.5 495.5,-19.5 545.5,-19.5 545.5,-.5 495.5,-.5"/>
<text text-anchor="middle" x="520.5" y="-7.5" font-family="Helvetica,sans-Serif" font-size="10.00" fill="#000000">QString</text>
</g>
<!-- Node1&#45;&gt;Node4 -->
<g id="edge62" class="edge">
<title>Node1&#45;&gt;Node4</title>
<path fill="none" stroke="#191970" d="M1216.9543,-176.8318C1067.7875,-172.2589 546.3157,-154.702 519.5,-132 490.2573,-107.2433 502.8399,-56.5597 512.7405,-28.95"/>
<polygon fill="#191970" stroke="#191970" points="516.0131,-30.1909 516.3109,-19.6003 509.4737,-27.6937 516.0131,-30.1909"/>
</g>
<!-- Node5 -->
<g id="node6" class="node">
<title>Node5</title>
<polygon fill="#ffffff" stroke="#bfbfbf" points="564,-.5 564,-19.5 645,-19.5 645,-.5 564,-.5"/>
<text text-anchor="middle" x="604.5" y="-7.5" font-family="Helvetica,sans-Serif" font-size="10.00" fill="#000000">QMessageBox</text>
</g>
<!-- Node1&#45;&gt;Node5 -->
<g id="edge52" class="edge">
<title>Node1&#45;&gt;Node5</title>
<path fill="none" stroke="#191970" d="M1216.97,-177.6848C1075.9148,-176.2559 602.7242,-168.7425 546.5,-132 516.236,-112.2225 498.8437,-86.9678 517.5,-56 526.5536,-40.9718 542.3423,-30.5985 558.0061,-23.5638"/>
<polygon fill="#191970" stroke="#191970" points="559.7528,-26.6308 567.6816,-19.6034 557.101,-20.1525 559.7528,-26.6308"/>
</g>
<!-- Node7 -->
<g id="node8" class="node">
<title>Node7</title>
<polygon fill="#ffffff" stroke="#bfbfbf" points="742,-.5 742,-19.5 793,-19.5 793,-.5 742,-.5"/>
<text text-anchor="middle" x="767.5" y="-7.5" font-family="Helvetica,sans-Serif" font-size="10.00" fill="#000000">QMutex</text>
</g>
<!-- Node1&#45;&gt;Node7 -->
<g id="edge60" class="edge">
<title>Node1&#45;&gt;Node7</title>
<path fill="none" stroke="#191970" d="M1216.9693,-175.6638C1137.6667,-170.5126 962.0904,-156.6362 907.5,-132 853.4076,-107.5886 804.7204,-55.2046 781.6331,-27.6973"/>
<polygon fill="#191970" stroke="#191970" points="784.1175,-25.208 775.0623,-19.7075 778.7109,-29.6543 784.1175,-25.208"/>
</g>
<!-- Node8 -->
<g id="node9" class="node">
<title>Node8</title>
<g id="a_node9"><a xlink:href="inputDialog_8h.html" target="_top" xlink:title="inputDialog.h">
<polygon fill="#ffffff" stroke="#000000" points="320.5,-56.5 320.5,-75.5 394.5,-75.5 394.5,-56.5 320.5,-56.5"/>
<text text-anchor="middle" x="357.5" y="-63.5" font-family="Helvetica,sans-Serif" font-size="10.00" fill="#000000">inputDialog.h</text>
</a>
</g>
</g>
<!-- Node1&#45;&gt;Node8 -->
<g id="edge44" class="edge">
<title>Node1&#45;&gt;Node8</title>
<path fill="none" stroke="#191970" d="M1216.7911,-177.7755C1058.8857,-176.6222 480.5389,-169.8299 408.5,-132 389.1491,-121.8382 374.8878,-100.7158 366.4413,-85.09"/>
<polygon fill="#191970" stroke="#191970" points="369.372,-83.1297 361.7354,-75.7858 363.1256,-86.2891 369.372,-83.1297"/>
</g>
<!-- Node14 -->
<g id="node15" class="node">
<title>Node14</title>
<polygon fill="#ffffff" stroke="#bfbfbf" points="424,-.5 424,-19.5 477,-19.5 477,-.5 424,-.5"/>
<text text-anchor="middle" x="450.5" y="-7.5" font-family="Helvetica,sans-Serif" font-size="10.00" fill="#000000">QDebug</text>
</g>
<!-- Node1&#45;&gt;Node14 -->
<g id="edge47" class="edge">
<title>Node1&#45;&gt;Node14</title>
<path fill="none" stroke="#191970" d="M1216.9392,-176.7349C1065.8117,-171.7547 531.9192,-152.7553 502.5,-132 468.7681,-108.2021 456.7788,-57.8946 452.6226,-29.8846"/>
<polygon fill="#191970" stroke="#191970" points="456.0605,-29.1769 451.3143,-19.7046 449.1176,-30.0692 456.0605,-29.1769"/>
</g>
<!-- Node15 -->
<g id="node16" class="node">
<title>Node15</title>
<polygon fill="#ffffff" stroke="#bfbfbf" points="829.5,-.5 829.5,-19.5 883.5,-19.5 883.5,-.5 829.5,-.5"/>
<text text-anchor="middle" x="856.5" y="-7.5" font-family="Helvetica,sans-Serif" font-size="10.00" fill="#000000">iostream</text>
</g>
<!-- Node1&#45;&gt;Node15 -->
<g id="edge45" class="edge">
<title>Node1&#45;&gt;Node15</title>
<path fill="none" stroke="#191970" d="M1216.8008,-176.4153C1141.3128,-172.7487 980.4999,-161.6094 934.5,-132 896.4303,-107.4951 873.3218,-57.0904 862.9651,-29.3539"/>
<polygon fill="#191970" stroke="#191970" points="866.1535,-27.8732 859.5096,-19.6203 859.5568,-30.215 866.1535,-27.8732"/>
</g>
<!-- Node16 -->
<g id="node17" class="node">
<title>Node16</title>
<polygon fill="#ffffff" stroke="#bfbfbf" points="909.5,-.5 909.5,-19.5 947.5,-19.5 947.5,-.5 909.5,-.5"/>
<text text-anchor="middle" x="928.5" y="-7.5" font-family="Helvetica,sans-Serif" font-size="10.00" fill="#000000">QFtp</text>
</g>
<!-- Node1&#45;&gt;Node16 -->
<g id="edge53" class="edge">
<title>Node1&#45;&gt;Node16</title>
<path fill="none" stroke="#191970" d="M1216.8093,-176.8673C1144.3872,-174.0212 994.6494,-164.2924 955.5,-132 925.4953,-107.2506 924.2756,-57.3244 926.2383,-29.6283"/>
<polygon fill="#191970" stroke="#191970" points="929.7326,-29.8493 927.1638,-19.5706 922.7621,-29.2078 929.7326,-29.8493"/>
</g>
<!-- Node18 -->
<g id="node19" class="node">
<title>Node18</title>
<polygon fill="#ffffff" stroke="#bfbfbf" points="527,-56.5 527,-75.5 564,-75.5 564,-56.5 527,-56.5"/>
<text text-anchor="middle" x="545.5" y="-63.5" font-family="Helvetica,sans-Serif" font-size="10.00" fill="#000000">QUrl</text>
</g>
<!-- Node1&#45;&gt;Node18 -->
<g id="edge59" class="edge">
<title>Node1&#45;&gt;Node18</title>
<path fill="none" stroke="#191970" d="M1216.9064,-176.635C1073.5865,-171.5318 588.9367,-152.7984 563.5,-132 550.165,-121.0966 546.1622,-101.3644 545.1975,-86.3064"/>
<polygon fill="#191970" stroke="#191970" points="548.6874,-85.8391 544.9478,-75.9262 541.6894,-86.0075 548.6874,-85.8391"/>
</g>
<!-- Node19 -->
<g id="node20" class="node">
<title>Node19</title>
<g id="a_node20"><a xlink:href="loader_8h.html" target="_top" xlink:title="loader.h">
<polygon fill="#ffffff" stroke="#000000" points="964,-112.5 964,-131.5 1015,-131.5 1015,-112.5 964,-112.5"/>
<text text-anchor="middle" x="989.5" y="-119.5" font-family="Helvetica,sans-Serif" font-size="10.00" fill="#000000">loader.h</text>
</a>
</g>
</g>
<!-- Node1&#45;&gt;Node19 -->
<g id="edge20" class="edge">
<title>Node1&#45;&gt;Node19</title>
<path fill="none" stroke="#191970" d="M1216.8157,-169.6767C1165.0079,-158.8106 1075.0844,-139.9503 1025.2802,-129.5045"/>
<polygon fill="#191970" stroke="#191970" points="1025.7951,-126.0364 1015.2896,-127.4091 1024.3582,-132.8873 1025.7951,-126.0364"/>
</g>
<!-- Node21 -->
<g id="node22" class="node">
<title>Node21</title>
<polygon fill="#ffffff" stroke="#bfbfbf" points="1078.5,-56.5 1078.5,-75.5 1132.5,-75.5 1132.5,-56.5 1078.5,-56.5"/>
<text text-anchor="middle" x="1105.5" y="-63.5" font-family="Helvetica,sans-Serif" font-size="10.00" fill="#000000">QThread</text>
</g>
<!-- Node1&#45;&gt;Node21 -->
<g id="edge58" class="edge">
<title>Node1&#45;&gt;Node21</title>
<path fill="none" stroke="#191970" d="M1243.6258,-168.4509C1217.5493,-149.1094 1158.2779,-105.1465 1126.5192,-81.5904"/>
<polygon fill="#191970" stroke="#191970" points="1128.4585,-78.6712 1118.3416,-75.5249 1124.2883,-84.2934 1128.4585,-78.6712"/>
</g>
<!-- Node22 -->
<g id="node23" class="node">
<title>Node22</title>
<g id="a_node23"><a xlink:href="listFiles_8h.html" target="_top" xlink:title="listFiles.h">
<polygon fill="#ffffff" stroke="#000000" points="1227,-56.5 1227,-75.5 1286,-75.5 1286,-56.5 1227,-56.5"/>
<text text-anchor="middle" x="1256.5" y="-63.5" font-family="Helvetica,sans-Serif" font-size="10.00" fill="#000000">listFiles.h</text>
</a>
</g>
</g>
<!-- Node1&#45;&gt;Node22 -->
<g id="edge27" class="edge">
<title>Node1&#45;&gt;Node22</title>
<path fill="none" stroke="#191970" d="M1256.5,-168.4509C1256.5,-150.184 1256.5,-109.9553 1256.5,-85.6976"/>
<polygon fill="#191970" stroke="#191970" points="1260.0001,-85.5249 1256.5,-75.5249 1253.0001,-85.5249 1260.0001,-85.5249"/>
</g>
<!-- Node23 -->
<g id="node24" class="node">
<title>Node23</title>
<polygon fill="#ffffff" stroke="#bfbfbf" points="1259.5,-.5 1259.5,-19.5 1333.5,-19.5 1333.5,-.5 1259.5,-.5"/>
<text text-anchor="middle" x="1296.5" y="-7.5" font-family="Helvetica,sans-Serif" font-size="10.00" fill="#000000">QTreeWidget</text>
</g>
<!-- Node1&#45;&gt;Node23 -->
<g id="edge55" class="edge">
<title>Node1&#45;&gt;Node23</title>
<path fill="none" stroke="#191970" d="M1293.0384,-168.4182C1355.8285,-151.115 1479.7698,-113.0033 1503.5,-76 1508.2985,-68.5176 1509.062,-62.9337 1503.5,-56 1502.2309,-54.4179 1404.5352,-33.1983 1343.828,-20.1393"/>
<polygon fill="#191970" stroke="#191970" points="1344.2015,-16.6397 1333.6893,-17.9602 1342.7305,-23.4834 1344.2015,-16.6397"/>
</g>
<!-- Node24 -->
<g id="node25" class="node">
<title>Node24</title>
<polygon fill="#ffffff" stroke="#bfbfbf" points="1352,-.5 1352,-19.5 1429,-19.5 1429,-.5 1352,-.5"/>
<text text-anchor="middle" x="1390.5" y="-7.5" font-family="Helvetica,sans-Serif" font-size="10.00" fill="#000000">QHeaderView</text>
</g>
<!-- Node1&#45;&gt;Node24 -->
<g id="edge61" class="edge">
<title>Node1&#45;&gt;Node24</title>
<path fill="none" stroke="#191970" d="M1296.1918,-169.1912C1347.2957,-157.7106 1431.1481,-138.3494 1444.5,-132 1481.7477,-114.2872 1500.1343,-112.9302 1518.5,-76 1522.4581,-68.041 1523.6132,-63.271 1518.5,-56 1508.9289,-42.39 1471.1081,-29.8249 1439.0394,-21.2784"/>
<polygon fill="#191970" stroke="#191970" points="1439.8675,-17.8775 1429.3093,-18.7584 1438.1124,-24.6539 1439.8675,-17.8775"/>
</g>
<!-- Node25 -->
<g id="node26" class="node">
<title>Node25</title>
<polygon fill="#ffffff" stroke="#bfbfbf" points="1447,-.5 1447,-19.5 1494,-19.5 1494,-.5 1447,-.5"/>
<text text-anchor="middle" x="1470.5" y="-7.5" font-family="Helvetica,sans-Serif" font-size="10.00" fill="#000000">QHash</text>
</g>
<!-- Node1&#45;&gt;Node25 -->
<g id="edge54" class="edge">
<title>Node1&#45;&gt;Node25</title>
<path fill="none" stroke="#191970" d="M1296.1474,-169.8976C1359.9653,-156.8453 1478.4883,-132.5573 1479.5,-132 1515.7937,-112.0073 1552.2679,-92.9419 1533.5,-56 1526.639,-42.4951 1513.7468,-32.0099 1501.4034,-24.4839"/>
<polygon fill="#191970" stroke="#191970" points="1503.0367,-21.3868 1492.6066,-19.5258 1499.5997,-27.4849 1503.0367,-21.3868"/>
</g>
<!-- Node26 -->
<g id="node27" class="node">
<title>Node26</title>
<g id="a_node27"><a xlink:href="search_8h.html" target="_top" xlink:title="search.h">
<polygon fill="#ffffff" stroke="#000000" points="1285.5,-112.5 1285.5,-131.5 1339.5,-131.5 1339.5,-112.5 1285.5,-112.5"/>
<text text-anchor="middle" x="1312.5" y="-119.5" font-family="Helvetica,sans-Serif" font-size="10.00" fill="#000000">search.h</text>
</a>
</g>
</g>
<!-- Node1&#45;&gt;Node26 -->
<g id="edge34" class="edge">
<title>Node1&#45;&gt;Node26</title>
<path fill="none" stroke="#191970" d="M1266.2545,-168.2455C1274.3648,-160.1352 1286.0925,-148.4075 1295.7081,-138.7919"/>
<polygon fill="#191970" stroke="#191970" points="1298.2611,-141.1887 1302.8573,-131.6427 1293.3113,-136.2389 1298.2611,-141.1887"/>
</g>
<!-- Node27 -->
<g id="node28" class="node">
<title>Node27</title>
<polygon fill="#ffffff" stroke="#bfbfbf" points="1457,-56.5 1457,-75.5 1494,-75.5 1494,-56.5 1457,-56.5"/>
<text text-anchor="middle" x="1475.5" y="-63.5" font-family="Helvetica,sans-Serif" font-size="10.00" fill="#000000">QDir</text>
</g>
<!-- Node1&#45;&gt;Node27 -->
<g id="edge56" class="edge">
<title>Node1&#45;&gt;Node27</title>
<path fill="none" stroke="#191970" d="M1275.9283,-168.3957C1294.5788,-159.15 1323.5223,-144.7337 1348.5,-132 1382.852,-114.4873 1422.2216,-93.9554 1447.9041,-80.4991"/>
<polygon fill="#191970" stroke="#191970" points="1449.8073,-83.4532 1457.0381,-75.7094 1446.5564,-77.2539 1449.8073,-83.4532"/>
</g>
<!-- Node28 -->
<g id="node29" class="node">
<title>Node28</title>
<polygon fill="#ffffff" stroke="#bfbfbf" points="1626.5,-112.5 1626.5,-131.5 1706.5,-131.5 1706.5,-112.5 1626.5,-112.5"/>
<text text-anchor="middle" x="1666.5" y="-119.5" font-family="Helvetica,sans-Serif" font-size="10.00" fill="#000000">QMainWindow</text>
</g>
<!-- Node1&#45;&gt;Node28 -->
<g id="edge46" class="edge">
<title>Node1&#45;&gt;Node28</title>
<path fill="none" stroke="#191970" d="M1296.0279,-169.6343C1299.2266,-169.0485 1302.4138,-168.495 1305.5,-168 1441.1459,-146.2454 1476.6616,-152.519 1612.5,-132 1613.7727,-131.8078 1615.0613,-131.608 1616.3607,-131.402"/>
<polygon fill="#191970" stroke="#191970" points="1617.1558,-134.8179 1626.4454,-129.7234 1616.0064,-127.9129 1617.1558,-134.8179"/>
</g>
<!-- Node29 -->
<g id="node30" class="node">
<title>Node29</title>
<polygon fill="#ffffff" stroke="#bfbfbf" points="1724.5,-112.5 1724.5,-131.5 1764.5,-131.5 1764.5,-112.5 1724.5,-112.5"/>
<text text-anchor="middle" x="1744.5" y="-119.5" font-family="Helvetica,sans-Serif" font-size="10.00" fill="#000000">QFile</text>
</g>
<!-- Node1&#45;&gt;Node29 -->
<g id="edge48" class="edge">
<title>Node1&#45;&gt;Node29</title>
<path fill="none" stroke="#191970" d="M1296.0126,-169.5345C1299.2148,-168.9711 1302.4069,-168.4499 1305.5,-168 1483.2479,-142.1445 1534.7366,-169.0905 1714.3513,-131.7628"/>
<polygon fill="#191970" stroke="#191970" points="1715.3386,-135.1314 1724.3971,-129.6364 1713.889,-128.2831 1715.3386,-135.1314"/>
</g>
<!-- Node30 -->
<g id="node31" class="node">
<title>Node30</title>
<polygon fill="#ffffff" stroke="#bfbfbf" points="1782.5,-112.5 1782.5,-131.5 1838.5,-131.5 1838.5,-112.5 1782.5,-112.5"/>
<text text-anchor="middle" x="1810.5" y="-119.5" font-family="Helvetica,sans-Serif" font-size="10.00" fill="#000000">QFileInfo</text>
</g>
<!-- Node1&#45;&gt;Node30 -->
<g id="edge49" class="edge">
<title>Node1&#45;&gt;Node30</title>
<path fill="none" stroke="#191970" d="M1296.0073,-169.4974C1299.2107,-168.9423 1302.4045,-168.4332 1305.5,-168 1508.873,-139.5385 1566.125,-166.4996 1772.4031,-131.8892"/>
<polygon fill="#191970" stroke="#191970" points="1773.0707,-135.3259 1782.3397,-130.1941 1771.8935,-128.4256 1773.0707,-135.3259"/>
</g>
<!-- Node31 -->
<g id="node32" class="node">
<title>Node31</title>
<polygon fill="#ffffff" stroke="#bfbfbf" points="1856.5,-112.5 1856.5,-131.5 1924.5,-131.5 1924.5,-112.5 1856.5,-112.5"/>
<text text-anchor="middle" x="1890.5" y="-119.5" font-family="Helvetica,sans-Serif" font-size="10.00" fill="#000000">QFileDialog</text>
</g>
<!-- Node1&#45;&gt;Node31 -->
<g id="edge50" class="edge">
<title>Node1&#45;&gt;Node31</title>
<path fill="none" stroke="#191970" d="M1296.0024,-169.4616C1299.2069,-168.9145 1302.4023,-168.417 1305.5,-168 1541.4901,-136.2299 1606.9175,-166.6049 1846.2738,-131.9526"/>
<polygon fill="#191970" stroke="#191970" points="1846.9442,-135.3917 1856.3284,-130.4738 1845.9256,-128.4662 1846.9442,-135.3917"/>
</g>
<!-- Node32 -->
<g id="node33" class="node">
<title>Node32</title>
<polygon fill="#ffffff" stroke="#bfbfbf" points="1942.5,-112.5 1942.5,-131.5 2032.5,-131.5 2032.5,-112.5 1942.5,-112.5"/>
<text text-anchor="middle" x="1987.5" y="-119.5" font-family="Helvetica,sans-Serif" font-size="10.00" fill="#000000">QListWidgetItem</text>
</g>
<!-- Node1&#45;&gt;Node32 -->
<g id="edge51" class="edge">
<title>Node1&#45;&gt;Node32</title>
<path fill="none" stroke="#191970" d="M1296.2654,-169.3856C1299.3812,-168.8634 1302.4866,-168.3918 1305.5,-168 1579.4871,-132.3776 1654.2035,-164.7425 1932.4975,-131.968"/>
<polygon fill="#191970" stroke="#191970" points="1932.9699,-135.4365 1942.4839,-130.7744 1932.1391,-128.486 1932.9699,-135.4365"/>
</g>
<!-- Node33 -->
<g id="node34" class="node">
<title>Node33</title>
<polygon fill="#ffffff" stroke="#bfbfbf" points="2051,-112.5 2051,-131.5 2140,-131.5 2140,-112.5 2051,-112.5"/>
<text text-anchor="middle" x="2095.5" y="-119.5" font-family="Helvetica,sans-Serif" font-size="10.00" fill="#000000">QStandardPaths</text>
</g>
<!-- Node1&#45;&gt;Node33 -->
<g id="edge57" class="edge">
<title>Node1&#45;&gt;Node33</title>
<path fill="none" stroke="#191970" d="M1296.2618,-169.3573C1299.3784,-168.8415 1302.4849,-168.3792 1305.5,-168 1627.1111,-127.5567 1714.4147,-169.0344 2040.5666,-131.9377"/>
<polygon fill="#191970" stroke="#191970" points="2041.2481,-135.3824 2050.781,-130.7593 2040.4457,-128.4286 2041.2481,-135.3824"/>
</g>
<!-- Node3 -->
<g id="node4" class="node">
<title>Node3</title>
<g id="a_node4"><a xlink:href="logger_8h.html" target="_top" xlink:title="logger.h">
<polygon fill="#ffffff" stroke="#000000" points="621,-56.5 621,-75.5 672,-75.5 672,-56.5 621,-56.5"/>
<text text-anchor="middle" x="646.5" y="-63.5" font-family="Helvetica,sans-Serif" font-size="10.00" fill="#000000">logger.h</text>
</a>
</g>
</g>
<!-- Node2&#45;&gt;Node3 -->
<g id="edge3" class="edge">
<title>Node2&#45;&gt;Node3</title>
<path fill="none" stroke="#191970" d="M626.6805,-112.2455C629.881,-104.7776 634.396,-94.2427 638.3084,-85.1137"/>
<polygon fill="#191970" stroke="#191970" points="641.6452,-86.2129 642.3674,-75.6427 635.2112,-83.4554 641.6452,-86.2129"/>
</g>
<!-- Node2&#45;&gt;Node8 -->
<g id="edge8" class="edge">
<title>Node2&#45;&gt;Node8</title>
<path fill="none" stroke="#191970" d="M577.246,-112.4369C529.2185,-102.2877 453.6608,-86.3208 404.8502,-76.0061"/>
<polygon fill="#191970" stroke="#191970" points="405.3676,-72.5382 394.86,-73.8949 403.9203,-79.3869 405.3676,-72.5382"/>
</g>
<!-- Node2&#45;&gt;Node14 -->
<g id="edge19" class="edge">
<title>Node2&#45;&gt;Node14</title>
<path fill="none" stroke="#191970" d="M617.3777,-112.0971C609.5283,-97.823 593.231,-71.484 572.5,-56 558.549,-45.58 517.3036,-31.0705 486.6089,-21.1502"/>
<polygon fill="#191970" stroke="#191970" points="487.6526,-17.8094 477.0618,-18.1016 485.5233,-24.4777 487.6526,-17.8094"/>
</g>
<!-- Node2&#45;&gt;Node16 -->
<g id="edge16" class="edge">
<title>Node2&#45;&gt;Node16</title>
<path fill="none" stroke="#191970" d="M648.5894,-112.4509C705.5624,-91.5981 840.7283,-42.1256 899.9121,-20.4636"/>
<polygon fill="#191970" stroke="#191970" points="901.2031,-23.7182 909.3909,-16.9942 898.7971,-17.1446 901.2031,-23.7182"/>
</g>
<!-- Node17 -->
<g id="node18" class="node">
<title>Node17</title>
<polygon fill="#ffffff" stroke="#bfbfbf" points="1081.5,-.5 1081.5,-19.5 1167.5,-19.5 1167.5,-.5 1081.5,-.5"/>
<text text-anchor="middle" x="1124.5" y="-7.5" font-family="Helvetica,sans-Serif" font-size="10.00" fill="#000000">QSharedPointer</text>
</g>
<!-- Node2&#45;&gt;Node17 -->
<g id="edge17" class="edge">
<title>Node2&#45;&gt;Node17</title>
<path fill="none" stroke="#191970" d="M665.3002,-112.4509C756.9931,-91.9936 972.1433,-43.9919 1071.9435,-21.7258"/>
<polygon fill="#191970" stroke="#191970" points="1072.8102,-25.1185 1081.8081,-19.5249 1071.2859,-18.2865 1072.8102,-25.1185"/>
</g>
<!-- Node2&#45;&gt;Node18 -->
<g id="edge18" class="edge">
<title>Node2&#45;&gt;Node18</title>
<path fill="none" stroke="#191970" d="M609.0876,-112.2455C597.4943,-103.814 580.5252,-91.4729 567.0322,-81.6598"/>
<polygon fill="#191970" stroke="#191970" points="568.9047,-78.6938 558.7587,-75.6427 564.7874,-84.355 568.9047,-78.6938"/>
</g>
<!-- Node3&#45;&gt;Node4 -->
<g id="edge4" class="edge">
<title>Node3&#45;&gt;Node4</title>
<path fill="none" stroke="#191970" d="M624.8398,-56.3733C604.5228,-47.3435 573.936,-33.7494 551.125,-23.6111"/>
<polygon fill="#191970" stroke="#191970" points="552.4372,-20.3642 541.8775,-19.5011 549.5941,-26.7609 552.4372,-20.3642"/>
</g>
<!-- Node3&#45;&gt;Node5 -->
<g id="edge5" class="edge">
<title>Node3&#45;&gt;Node5</title>
<path fill="none" stroke="#191970" d="M639.1842,-56.2455C633.2821,-48.3761 624.8258,-37.101 617.7406,-27.6542"/>
<polygon fill="#191970" stroke="#191970" points="620.5321,-25.5427 611.732,-19.6427 614.932,-29.7427 620.5321,-25.5427"/>
</g>
<!-- Node6 -->
<g id="node7" class="node">
<title>Node6</title>
<polygon fill="#ffffff" stroke="#bfbfbf" points="663,-.5 663,-19.5 724,-19.5 724,-.5 663,-.5"/>
<text text-anchor="middle" x="693.5" y="-7.5" font-family="Helvetica,sans-Serif" font-size="10.00" fill="#000000">QTextEdit</text>
</g>
<!-- Node3&#45;&gt;Node6 -->
<g id="edge6" class="edge">
<title>Node3&#45;&gt;Node6</title>
<path fill="none" stroke="#191970" d="M654.6868,-56.2455C661.3589,-48.2958 670.9479,-36.8706 678.9253,-27.3656"/>
<polygon fill="#191970" stroke="#191970" points="681.6592,-29.5525 685.407,-19.6427 676.2974,-25.0524 681.6592,-29.5525"/>
</g>
<!-- Node3&#45;&gt;Node7 -->
<g id="edge7" class="edge">
<title>Node3&#45;&gt;Node7</title>
<path fill="none" stroke="#191970" d="M667.3006,-56.3733C686.7243,-47.3838 715.9224,-33.8706 737.7964,-23.7471"/>
<polygon fill="#191970" stroke="#191970" points="739.3656,-26.8776 746.9708,-19.5011 736.4255,-20.5249 739.3656,-26.8776"/>
</g>
<!-- Node9 -->
<g id="node10" class="node">
<title>Node9</title>
<polygon fill="#ffffff" stroke="#bfbfbf" points="181.5,-.5 181.5,-19.5 233.5,-19.5 233.5,-.5 181.5,-.5"/>
<text text-anchor="middle" x="207.5" y="-7.5" font-family="Helvetica,sans-Serif" font-size="10.00" fill="#000000">QDialog</text>
</g>
<!-- Node8&#45;&gt;Node9 -->
<g id="edge9" class="edge">
<title>Node8&#45;&gt;Node9</title>
<path fill="none" stroke="#191970" d="M331.7141,-56.3733C307.0953,-47.1822 269.81,-33.2624 242.5125,-23.0713"/>
<polygon fill="#191970" stroke="#191970" points="243.542,-19.7198 232.9494,-19.5011 241.0937,-26.2777 243.542,-19.7198"/>
</g>
<!-- Node10 -->
<g id="node11" class="node">
<title>Node10</title>
<polygon fill="#ffffff" stroke="#bfbfbf" points="252,-.5 252,-19.5 311,-19.5 311,-.5 252,-.5"/>
<text text-anchor="middle" x="281.5" y="-7.5" font-family="Helvetica,sans-Serif" font-size="10.00" fill="#000000">QLineEdit</text>
</g>
<!-- Node8&#45;&gt;Node10 -->
<g id="edge10" class="edge">
<title>Node8&#45;&gt;Node10</title>
<path fill="none" stroke="#191970" d="M344.2618,-56.2455C332.819,-47.814 316.0704,-35.4729 302.7525,-25.6598"/>
<polygon fill="#191970" stroke="#191970" points="304.7133,-22.757 294.5865,-19.6427 300.5609,-28.3924 304.7133,-22.757"/>
</g>
<!-- Node11 -->
<g id="node12" class="node">
<title>Node11</title>
<polygon fill="#ffffff" stroke="#bfbfbf" points="329.5,-.5 329.5,-19.5 405.5,-19.5 405.5,-.5 329.5,-.5"/>
<text text-anchor="middle" x="367.5" y="-7.5" font-family="Helvetica,sans-Serif" font-size="10.00" fill="#000000">QFormLayout</text>
</g>
<!-- Node8&#45;&gt;Node11 -->
<g id="edge11" class="edge">
<title>Node8&#45;&gt;Node11</title>
<path fill="none" stroke="#191970" d="M359.2419,-56.2455C360.5467,-48.9382 362.376,-38.6944 363.9813,-29.7046"/>
<polygon fill="#191970" stroke="#191970" points="367.4656,-30.1022 365.7781,-19.6427 360.5746,-28.8717 367.4656,-30.1022"/>
</g>
<!-- Node12 -->
<g id="node13" class="node">
<title>Node12</title>
<polygon fill="#ffffff" stroke="#bfbfbf" points="0,-.5 0,-19.5 47,-19.5 47,-.5 0,-.5"/>
<text text-anchor="middle" x="23.5" y="-7.5" font-family="Helvetica,sans-Serif" font-size="10.00" fill="#000000">QLabel</text>
</g>
<!-- Node8&#45;&gt;Node12 -->
<g id="edge12" class="edge">
<title>Node8&#45;&gt;Node12</title>
<path fill="none" stroke="#191970" d="M320.1088,-62.0236C264.7252,-55.7567 157.5275,-42.1845 57.1842,-19.8763"/>
<polygon fill="#191970" stroke="#191970" points="57.7103,-16.4071 47.1849,-17.6186 56.1685,-23.2352 57.7103,-16.4071"/>
</g>
<!-- Node13 -->
<g id="node14" class="node">
<title>Node13</title>
<polygon fill="#ffffff" stroke="#bfbfbf" points="65.5,-.5 65.5,-19.5 163.5,-19.5 163.5,-.5 65.5,-.5"/>
<text text-anchor="middle" x="114.5" y="-7.5" font-family="Helvetica,sans-Serif" font-size="10.00" fill="#000000">QDialogButtonBox</text>
</g>
<!-- Node8&#45;&gt;Node13 -->
<g id="edge13" class="edge">
<title>Node8&#45;&gt;Node13</title>
<path fill="none" stroke="#191970" d="M320.329,-57.4338C278.9585,-47.8999 211.8489,-32.4343 165.5666,-21.7684"/>
<polygon fill="#191970" stroke="#191970" points="166.2641,-18.3375 155.7335,-19.5024 164.692,-25.1587 166.2641,-18.3375"/>
</g>
<!-- Node8&#45;&gt;Node14 -->
<g id="edge14" class="edge">
<title>Node8&#45;&gt;Node14</title>
<path fill="none" stroke="#191970" d="M373.6994,-56.2455C388.1018,-47.5731 409.3732,-34.7645 425.8799,-24.825"/>
<polygon fill="#191970" stroke="#191970" points="427.725,-27.7996 434.4863,-19.6427 424.114,-21.8028 427.725,-27.7996"/>
</g>
<!-- Node8&#45;&gt;Node15 -->
<g id="edge15" class="edge">
<title>Node8&#45;&gt;Node15</title>
<path fill="none" stroke="#191970" d="M394.748,-63.1116C471.2081,-56.9689 651.3188,-41.4004 801.5,-20 807.3474,-19.1668 813.523,-18.1645 819.5403,-17.1207"/>
<polygon fill="#191970" stroke="#191970" points="820.2061,-20.5573 829.4315,-15.3474 818.9708,-13.6671 820.2061,-20.5573"/>
</g>
<!-- Node19&#45;&gt;Node3 -->
<g id="edge21" class="edge">
<title>Node19&#45;&gt;Node3</title>
<path fill="none" stroke="#191970" d="M963.9995,-117.8366C903.6003,-107.9756 751.6843,-83.1729 682.1949,-71.8277"/>
<polygon fill="#191970" stroke="#191970" points="682.6017,-68.3479 672.1684,-70.1908 681.4737,-75.2564 682.6017,-68.3479"/>
</g>
<!-- Node19&#45;&gt;Node7 -->
<g id="edge26" class="edge">
<title>Node19&#45;&gt;Node7</title>
<path fill="none" stroke="#191970" d="M970.5724,-112.4509C931.4156,-92.6961 841.3478,-47.2565 795.4656,-24.1088"/>
<polygon fill="#191970" stroke="#191970" points="796.8843,-20.9044 786.3797,-19.5249 793.7313,-27.1541 796.8843,-20.9044"/>
</g>
<!-- Node19&#45;&gt;Node16 -->
<g id="edge24" class="edge">
<title>Node19&#45;&gt;Node16</title>
<path fill="none" stroke="#191970" d="M978.6362,-112.415C969.4167,-103.7402 956.4539,-90.1827 948.5,-76 940.4473,-61.6412 935.2752,-43.6668 932.2125,-30.103"/>
<polygon fill="#191970" stroke="#191970" points="935.5616,-29.013 930.1189,-19.9231 928.7051,-30.4231 935.5616,-29.013"/>
</g>
<!-- Node19&#45;&gt;Node17 -->
<g id="edge23" class="edge">
<title>Node19&#45;&gt;Node17</title>
<path fill="none" stroke="#191970" d="M1001.01,-112.4509C1024.1242,-93.2747 1076.4108,-49.8962 1104.9746,-26.1988"/>
<polygon fill="#191970" stroke="#191970" points="1107.5576,-28.6036 1113.0191,-19.5249 1103.0881,-23.2162 1107.5576,-28.6036"/>
</g>
<!-- Node20 -->
<g id="node21" class="node">
<title>Node20</title>
<polygon fill="#ffffff" stroke="#bfbfbf" points="957,-56.5 957,-75.5 1022,-75.5 1022,-56.5 957,-56.5"/>
<text text-anchor="middle" x="989.5" y="-63.5" font-family="Helvetica,sans-Serif" font-size="10.00" fill="#000000">QStringList</text>
</g>
<!-- Node19&#45;&gt;Node20 -->
<g id="edge22" class="edge">
<title>Node19&#45;&gt;Node20</title>
<path fill="none" stroke="#191970" d="M989.5,-112.2455C989.5,-104.9382 989.5,-94.6944 989.5,-85.7046"/>
<polygon fill="#191970" stroke="#191970" points="993.0001,-85.6426 989.5,-75.6427 986.0001,-85.6427 993.0001,-85.6426"/>
</g>
<!-- Node19&#45;&gt;Node21 -->
<g id="edge25" class="edge">
<title>Node19&#45;&gt;Node21</title>
<path fill="none" stroke="#191970" d="M1009.4411,-112.3733C1027.9786,-103.4241 1055.8028,-89.9917 1076.7413,-79.8835"/>
<polygon fill="#191970" stroke="#191970" points="1078.3352,-83.0006 1085.8191,-75.5011 1075.2919,-76.6967 1078.3352,-83.0006"/>
</g>
<!-- Node22&#45;&gt;Node15 -->
<g id="edge33" class="edge">
<title>Node22&#45;&gt;Node15</title>
<path fill="none" stroke="#191970" d="M1226.7242,-62.3177C1146.9635,-52.4304 932.3672,-25.6669 900.5,-20 898.3067,-19.61 896.0577,-19.1832 893.7925,-18.7327"/>
<polygon fill="#191970" stroke="#191970" points="894.3862,-15.281 883.8796,-16.6454 892.9439,-22.1308 894.3862,-15.281"/>
</g>
<!-- Node22&#45;&gt;Node16 -->
<g id="edge28" class="edge">
<title>Node22&#45;&gt;Node16</title>
<path fill="none" stroke="#191970" d="M1226.7316,-58.9679C1221.9819,-57.9229 1217.1138,-56.897 1212.5,-56 1119.8073,-37.9785 1009.1362,-21.4876 957.5915,-14.0949"/>
<polygon fill="#191970" stroke="#191970" points="957.9116,-10.6052 947.5176,-12.6582 956.9232,-17.5351 957.9116,-10.6052"/>
</g>
<!-- Node22&#45;&gt;Node17 -->
<g id="edge29" class="edge">
<title>Node22&#45;&gt;Node17</title>
<path fill="none" stroke="#191970" d="M1233.8084,-56.3733C1212.4289,-47.3032 1180.1943,-33.6279 1156.2638,-23.4755"/>
<polygon fill="#191970" stroke="#191970" points="1157.4683,-20.1846 1146.8955,-19.5011 1154.7344,-26.6287 1157.4683,-20.1846"/>
</g>
<!-- Node22&#45;&gt;Node23 -->
<g id="edge30" class="edge">
<title>Node22&#45;&gt;Node23</title>
<path fill="none" stroke="#191970" d="M1263.4675,-56.2455C1269.0311,-48.4564 1276.978,-37.3308 1283.6829,-27.9439"/>
<polygon fill="#191970" stroke="#191970" points="1286.648,-29.8144 1289.6124,-19.6427 1280.9519,-25.7457 1286.648,-29.8144"/>
</g>
<!-- Node22&#45;&gt;Node24 -->
<g id="edge31" class="edge">
<title>Node22&#45;&gt;Node24</title>
<path fill="none" stroke="#191970" d="M1279.5354,-56.3733C1301.2388,-47.3032 1333.9618,-33.6279 1358.255,-23.4755"/>
<polygon fill="#191970" stroke="#191970" points="1359.8881,-26.5865 1367.7652,-19.5011 1357.1889,-20.1278 1359.8881,-26.5865"/>
</g>
<!-- Node22&#45;&gt;Node25 -->
<g id="edge32" class="edge">
<title>Node22&#45;&gt;Node25</title>
<path fill="none" stroke="#191970" d="M1286.2665,-59.0117C1320.5115,-50.8554 1378.6353,-36.6565 1437.0275,-20.3209"/>
<polygon fill="#191970" stroke="#191970" points="1438.1021,-23.6544 1446.778,-17.5735 1436.2035,-16.9168 1438.1021,-23.6544"/>
</g>
<!-- Node26&#45;&gt;Node15 -->
<g id="edge42" class="edge">
<title>Node26&#45;&gt;Node15</title>
<path fill="none" stroke="#191970" d="M1285.3643,-114.8967C1257.0304,-107.0358 1211.631,-93.1779 1174.5,-76 1158.9349,-68.7991 1157.6303,-61.8255 1141.5,-56 1039.6397,-19.2132 1006.934,-40.0149 900.5,-20 898.3107,-19.5883 896.0648,-19.1447 893.8019,-18.6813"/>
<polygon fill="#191970" stroke="#191970" points="894.4062,-15.2314 883.8951,-16.5609 892.9411,-22.0764 894.4062,-15.2314"/>
</g>
<!-- Node26&#45;&gt;Node16 -->
<g id="edge36" class="edge">
<title>Node26&#45;&gt;Node16</title>
<path fill="none" stroke="#191970" d="M1292.9319,-112.4755C1256.3243,-94.6805 1180.6065,-57.9931 1174.5,-56 1098.436,-31.1741 1004.5077,-18.2617 957.7778,-12.9695"/>
<polygon fill="#191970" stroke="#191970" points="958.0697,-9.4806 947.7477,-11.8695 957.3065,-16.4389 958.0697,-9.4806"/>
</g>
<!-- Node26&#45;&gt;Node17 -->
<g id="edge37" class="edge">
<title>Node26&#45;&gt;Node17</title>
<path fill="none" stroke="#191970" d="M1312.8564,-112.4813C1312.8485,-98.2088 1310.6458,-71.3086 1295.5,-56 1279.0011,-39.3238 1221.4027,-26.1826 1177.5705,-18.2882"/>
<polygon fill="#191970" stroke="#191970" points="1178.0586,-14.8205 1167.6042,-16.5397 1176.8489,-21.7152 1178.0586,-14.8205"/>
</g>
<!-- Node26&#45;&gt;Node21 -->
<g id="edge43" class="edge">
<title>Node26&#45;&gt;Node21</title>
<path fill="none" stroke="#191970" d="M1285.4384,-114.679C1248.8663,-104.7851 1183.5249,-87.1082 1142.4546,-75.9974"/>
<polygon fill="#191970" stroke="#191970" points="1143.1353,-72.5558 1132.5683,-73.3228 1141.3073,-79.3129 1143.1353,-72.5558"/>
</g>
<!-- Node26&#45;&gt;Node22 -->
<g id="edge35" class="edge">
<title>Node26&#45;&gt;Node22</title>
<path fill="none" stroke="#191970" d="M1302.7455,-112.2455C1294.6352,-104.1352 1282.9075,-92.4075 1273.2919,-82.7919"/>
<polygon fill="#191970" stroke="#191970" points="1275.6887,-80.2389 1266.1427,-75.6427 1270.7389,-85.1887 1275.6887,-80.2389"/>
</g>
<!-- Node26&#45;&gt;Node23 -->
<g id="edge38" class="edge">
<title>Node26&#45;&gt;Node23</title>
<path fill="none" stroke="#191970" d="M1318.0301,-112.4931C1324.8185,-99.5703 1334.7096,-75.7999 1328.5,-56 1325.2504,-45.6383 1318.7506,-35.5669 1312.4529,-27.5026"/>
<polygon fill="#191970" stroke="#191970" points="1314.9619,-25.047 1305.8618,-19.6212 1309.5921,-29.5376 1314.9619,-25.047"/>
</g>
<!-- Node26&#45;&gt;Node24 -->
<g id="edge39" class="edge">
<title>Node26&#45;&gt;Node24</title>
<path fill="none" stroke="#191970" d="M1319.1502,-112.4509C1332.2173,-93.688 1361.4208,-51.7548 1378.1328,-27.758"/>
<polygon fill="#191970" stroke="#191970" points="1381.0237,-29.7312 1383.8666,-19.5249 1375.2795,-25.7307 1381.0237,-29.7312"/>
</g>
<!-- Node26&#45;&gt;Node25 -->
<g id="edge40" class="edge">
<title>Node26&#45;&gt;Node25</title>
<path fill="none" stroke="#191970" d="M1325.971,-112.4509C1353.2563,-93.1094 1415.2754,-49.1465 1448.5064,-25.5904"/>
<polygon fill="#191970" stroke="#191970" points="1450.929,-28.1633 1457.0631,-19.5249 1446.8808,-22.4526 1450.929,-28.1633"/>
</g>
<!-- Node26&#45;&gt;Node27 -->
<g id="edge41" class="edge">
<title>Node26&#45;&gt;Node27</title>
<path fill="none" stroke="#191970" d="M1339.7825,-112.6269C1369.5839,-102.3883 1417.086,-86.0686 1447.2601,-75.702"/>
<polygon fill="#191970" stroke="#191970" points="1448.458,-78.9914 1456.7782,-72.432 1446.1836,-72.3712 1448.458,-78.9914"/>
</g>
</g>
</svg>
