<?xml version="1.0" encoding="UTF-8" standalone="no"?>
<!DOCTYPE svg PUBLIC "-//W3C//DTD SVG 1.1//EN"
 "http://www.w3.org/Graphics/SVG/1.1/DTD/svg11.dtd">
<!-- Generated by graphviz version 2.40.1 (20161225.0304)
 -->
<!-- Title: mainwindow.cpp Pages: 1 -->
<!--zoomable 308 -->
<svg id="main" version="1.1" xmlns="http://www.w3.org/2000/svg" xmlns:xlink="http://www.w3.org/1999/xlink" xml:space="preserve" onload="init(evt)">
<style type="text/css"><![CDATA[
.edge:hover path { stroke: red; }
.edge:hover polygon { stroke: red; fill: red; }
]]></style>
<script type="text/javascript"><![CDATA[
var edges = document.getElementsByTagName('g');
if (edges && edges.length) {
  for (var i=0;i<edges.length;i++) {
    if (edges[i].id.substr(0,4)=='edge') {
      edges[i].setAttribute('class','edge');
    }
  }
}
]]></script>
        <defs>
                <circle id="rim" cx="0" cy="0" r="7"/>
                <circle id="rim2" cx="0" cy="0" r="3.5"/>
                <g id="zoomPlus">
                        <use xlink:href="#rim" fill="#404040">
                                <set attributeName="fill" to="#808080" begin="zoomplus.mouseover" end="zoomplus.mouseout"/>
                        </use>
                        <path d="M-4,0h8M0,-4v8" fill="none" stroke="white" stroke-width="1.5" pointer-events="none"/>
                </g>
                <g id="zoomMin">
                        <use xlink:href="#rim" fill="#404040">
                                <set attributeName="fill" to="#808080" begin="zoomminus.mouseover" end="zoomminus.mouseout"/>
                        </use>
                        <path d="M-4,0h8" fill="none" stroke="white" stroke-width="1.5" pointer-events="none"/>
                </g>
                <g id="dirArrow">
                        <path fill="none" stroke="white" stroke-width="1.5" d="M0,-3.0v7 M-2.5,-0.5L0,-3.0L2.5,-0.5"/>
                </g>
               <g id="resetDef">
                       <use xlink:href="#rim2" fill="#404040">
                               <set attributeName="fill" to="#808080" begin="reset.mouseover" end="reset.mouseout"/>
                       </use>
               </g>
        </defs>

<script type="text/javascript">
var viewWidth = 1804;
var viewHeight = 308;
var sectionId = 'dynsection-0';
</script>
<script xlink:href="svgpan.js"/>
<svg id="graph" class="graph">
<g id="viewport">
<title>mainwindow.cpp</title>
<polygon fill="#ffffff" stroke="transparent" points="-4,4 -4,-304 1800,-304 1800,4 -4,4"/>
<!-- Node0 -->
<g id="node1" class="node">
<title>Node0</title>
<polygon fill="#bfbfbf" stroke="#000000" points="498.5,-280.5 498.5,-299.5 587.5,-299.5 587.5,-280.5 498.5,-280.5"/>
<text text-anchor="middle" x="543" y="-287.5" font-family="Helvetica,sans-Serif" font-size="10.00" fill="#000000">mainwindow.cpp</text>
</g>
<!-- Node1 -->
<g id="node2" class="node">
<title>Node1</title>
<g id="a_node2"><a xlink:href="mainwindow_8h.html" target="_top" xlink:title="mainwindow.h">
<polygon fill="#ffffff" stroke="#000000" points="644.5,-168.5 644.5,-187.5 723.5,-187.5 723.5,-168.5 644.5,-168.5"/>
<text text-anchor="middle" x="684" y="-175.5" font-family="Helvetica,sans-Serif" font-size="10.00" fill="#000000">mainwindow.h</text>
</a>
</g>
</g>
<!-- Node0&#45;&gt;Node1 -->
<g id="edge1" class="edge">
<title>Node0&#45;&gt;Node1</title>
<path fill="none" stroke="#191970" d="M535.4674,-280.0588C525.9615,-266.206 512.2972,-240.8988 525,-224 538.2397,-206.387 592.675,-193.3686 634.1987,-185.7606"/>
<polygon fill="#191970" stroke="#191970" points="634.9418,-189.1835 644.1762,-183.9895 633.7184,-182.2912 634.9418,-189.1835"/>
</g>
<!-- Node15 -->
<g id="node16" class="node">
<title>Node15</title>
<polygon fill="#ffffff" stroke="#bfbfbf" points="325,-.5 325,-19.5 379,-19.5 379,-.5 325,-.5"/>
<text text-anchor="middle" x="352" y="-7.5" font-family="Helvetica,sans-Serif" font-size="10.00" fill="#000000">iostream</text>
</g>
<!-- Node0&#45;&gt;Node15 -->
<g id="edge68" class="edge">
<title>Node0&#45;&gt;Node15</title>
<path fill="none" stroke="#191970" d="M508.3601,-280.3611C446.735,-261.5744 317.3745,-214.5044 241,-132 216.9372,-106.0058 196.3841,-84.8045 217,-56 228.5751,-39.8273 278.782,-25.8383 314.5791,-17.6607"/>
<polygon fill="#191970" stroke="#191970" points="315.7038,-20.9963 324.7077,-15.4124 314.1869,-14.1627 315.7038,-20.9963"/>
</g>
<!-- Node34 -->
<g id="node35" class="node">
<title>Node34</title>
<polygon fill="#ffffff" stroke="#bfbfbf" points="534,-224.5 534,-243.5 626,-243.5 626,-224.5 534,-224.5"/>
<text text-anchor="middle" x="580" y="-231.5" font-family="Helvetica,sans-Serif" font-size="10.00" fill="#000000">ui_mainwindow.h</text>
</g>
<!-- Node0&#45;&gt;Node34 -->
<g id="edge63" class="edge">
<title>Node0&#45;&gt;Node34</title>
<path fill="none" stroke="#191970" d="M549.4449,-280.2455C554.5382,-272.5367 561.7908,-261.5598 567.952,-252.2348"/>
<polygon fill="#191970" stroke="#191970" points="571.0365,-253.9155 573.6289,-243.6427 565.1962,-250.0566 571.0365,-253.9155"/>
</g>
<!-- Node35 -->
<g id="node36" class="node">
<title>Node35</title>
<g id="a_node36"><a xlink:href="searchdialog_8h.html" target="_top" xlink:title="searchdialog.h">
<polygon fill="#ffffff" stroke="#000000" points="644,-224.5 644,-243.5 724,-243.5 724,-224.5 644,-224.5"/>
<text text-anchor="middle" x="684" y="-231.5" font-family="Helvetica,sans-Serif" font-size="10.00" fill="#000000">searchdialog.h</text>
</a>
</g>
</g>
<!-- Node0&#45;&gt;Node35 -->
<g id="edge64" class="edge">
<title>Node0&#45;&gt;Node35</title>
<path fill="none" stroke="#191970" d="M567.2388,-280.3733C590.2789,-271.2226 625.1214,-257.3844 650.7501,-247.2057"/>
<polygon fill="#191970" stroke="#191970" points="652.0756,-250.4452 660.0775,-243.5011 649.4918,-243.9395 652.0756,-250.4452"/>
</g>
<!-- Node2 -->
<g id="node3" class="node">
<title>Node2</title>
<g id="a_node3"><a xlink:href="serverconnection_8h.html" target="_top" xlink:title="serverconnection.h">
<polygon fill="#ffffff" stroke="#000000" points="1137.5,-112.5 1137.5,-131.5 1236.5,-131.5 1236.5,-112.5 1137.5,-112.5"/>
<text text-anchor="middle" x="1187" y="-119.5" font-family="Helvetica,sans-Serif" font-size="10.00" fill="#000000">serverconnection.h</text>
</a>
</g>
</g>
<!-- Node1&#45;&gt;Node2 -->
<g id="edge2" class="edge">
<title>Node1&#45;&gt;Node2</title>
<path fill="none" stroke="#191970" d="M723.729,-174.5159C800.8465,-167.6028 976.1515,-151.1537 1123,-132 1124.4636,-131.8091 1125.9454,-131.6115 1127.4396,-131.4083"/>
<polygon fill="#191970" stroke="#191970" points="1128.0083,-134.8629 1137.4213,-130.0002 1127.0304,-127.9315 1128.0083,-134.8629"/>
</g>
<!-- Node4 -->
<g id="node5" class="node">
<title>Node4</title>
<polygon fill="#ffffff" stroke="#bfbfbf" points="1152,-.5 1152,-19.5 1202,-19.5 1202,-.5 1152,-.5"/>
<text text-anchor="middle" x="1177" y="-7.5" font-family="Helvetica,sans-Serif" font-size="10.00" fill="#000000">QString</text>
</g>
<!-- Node1&#45;&gt;Node4 -->
<g id="edge62" class="edge">
<title>Node1&#45;&gt;Node4</title>
<path fill="none" stroke="#191970" d="M723.5484,-177.239C847.2858,-174.5344 1221.4137,-163.7827 1265,-132 1293.5148,-111.2073 1307.6039,-85.3448 1288,-56 1283.4385,-49.172 1242.4952,-33.3409 1211.6508,-22.165"/>
<polygon fill="#191970" stroke="#191970" points="1212.6447,-18.8031 1202.0502,-18.7173 1210.2788,-25.3912 1212.6447,-18.8031"/>
</g>
<!-- Node5 -->
<g id="node6" class="node">
<title>Node5</title>
<polygon fill="#ffffff" stroke="#bfbfbf" points="1220.5,-.5 1220.5,-19.5 1301.5,-19.5 1301.5,-.5 1220.5,-.5"/>
<text text-anchor="middle" x="1261" y="-7.5" font-family="Helvetica,sans-Serif" font-size="10.00" fill="#000000">QMessageBox</text>
</g>
<!-- Node1&#45;&gt;Node5 -->
<g id="edge52" class="edge">
<title>Node1&#45;&gt;Node5</title>
<path fill="none" stroke="#191970" d="M723.5132,-177.5454C850.8866,-175.7337 1244.9857,-167.3007 1289,-132 1316.0011,-110.3444 1319.0697,-88.0501 1306,-56 1301.2844,-44.4363 1292.1073,-34.2008 1283.2638,-26.3383"/>
<polygon fill="#191970" stroke="#191970" points="1285.3109,-23.4894 1275.3737,-19.8147 1280.8504,-28.8842 1285.3109,-23.4894"/>
</g>
<!-- Node7 -->
<g id="node8" class="node">
<title>Node7</title>
<polygon fill="#ffffff" stroke="#bfbfbf" points="1003.5,-.5 1003.5,-19.5 1054.5,-19.5 1054.5,-.5 1003.5,-.5"/>
<text text-anchor="middle" x="1029" y="-7.5" font-family="Helvetica,sans-Serif" font-size="10.00" fill="#000000">QMutex</text>
</g>
<!-- Node1&#45;&gt;Node7 -->
<g id="edge60" class="edge">
<title>Node1&#45;&gt;Node7</title>
<path fill="none" stroke="#191970" d="M723.5128,-176.2119C817.3021,-171.5638 1047.2315,-157.643 1070,-132 1096.7913,-101.8263 1065.3828,-53.5143 1044.5527,-27.6686"/>
<polygon fill="#191970" stroke="#191970" points="1047.093,-25.2503 1037.9935,-19.8235 1041.7227,-29.7404 1047.093,-25.2503"/>
</g>
<!-- Node8 -->
<g id="node9" class="node">
<title>Node8</title>
<g id="a_node9"><a xlink:href="inputDialog_8h.html" target="_top" xlink:title="inputDialog.h">
<polygon fill="#ffffff" stroke="#000000" points="1411,-56.5 1411,-75.5 1485,-75.5 1485,-56.5 1411,-56.5"/>
<text text-anchor="middle" x="1448" y="-63.5" font-family="Helvetica,sans-Serif" font-size="10.00" fill="#000000">inputDialog.h</text>
</a>
</g>
</g>
<!-- Node1&#45;&gt;Node8 -->
<g id="edge44" class="edge">
<title>Node1&#45;&gt;Node8</title>
<path fill="none" stroke="#191970" d="M723.9745,-177.3311C865.5051,-174.7027 1337.5147,-163.627 1397,-132 1416.2986,-121.7394 1430.5693,-100.6346 1439.0323,-85.04"/>
<polygon fill="#191970" stroke="#191970" points="1442.3394,-86.2578 1443.7495,-75.7572 1436.0989,-83.0866 1442.3394,-86.2578"/>
</g>
<!-- Node14 -->
<g id="node15" class="node">
<title>Node14</title>
<polygon fill="#ffffff" stroke="#bfbfbf" points="1319.5,-.5 1319.5,-19.5 1372.5,-19.5 1372.5,-.5 1319.5,-.5"/>
<text text-anchor="middle" x="1346" y="-7.5" font-family="Helvetica,sans-Serif" font-size="10.00" fill="#000000">QDebug</text>
</g>
<!-- Node1&#45;&gt;Node14 -->
<g id="edge47" class="edge">
<title>Node1&#45;&gt;Node14</title>
<path fill="none" stroke="#191970" d="M723.6665,-177.7026C854.485,-176.3688 1266.535,-169.2238 1312,-132 1342.5036,-107.0256 1346.9571,-57.1896 1346.8874,-29.5678"/>
<polygon fill="#191970" stroke="#191970" points="1350.3859,-29.456 1346.6573,-19.5389 1343.3877,-29.6166 1350.3859,-29.456"/>
</g>
<!-- Node1&#45;&gt;Node15 -->
<g id="edge45" class="edge">
<title>Node1&#45;&gt;Node15</title>
<path fill="none" stroke="#191970" d="M644.3027,-176.3795C582.3725,-172.9253 467.2256,-162.4723 442,-132 436.3318,-125.1528 437.5924,-119.7192 442,-112 457.6097,-84.6623 487.3903,-103.3377 503,-76 507.4076,-68.2808 508.2909,-63.1427 503,-56 489.3823,-37.616 429.2957,-23.645 389.1478,-16.1509"/>
<polygon fill="#191970" stroke="#191970" points="389.6241,-12.6802 379.1604,-14.3424 388.3768,-19.5682 389.6241,-12.6802"/>
</g>
<!-- Node16 -->
<g id="node17" class="node">
<title>Node16</title>
<polygon fill="#ffffff" stroke="#bfbfbf" points="896,-.5 896,-19.5 934,-19.5 934,-.5 896,-.5"/>
<text text-anchor="middle" x="915" y="-7.5" font-family="Helvetica,sans-Serif" font-size="10.00" fill="#000000">QFtp</text>
</g>
<!-- Node1&#45;&gt;Node16 -->
<g id="edge53" class="edge">
<title>Node1&#45;&gt;Node16</title>
<path fill="none" stroke="#191970" d="M723.6783,-175.9582C814.3339,-170.888 1030.5081,-156.3456 1052,-132 1092.5082,-86.113 994.9817,-40.3646 943.8443,-20.4086"/>
<polygon fill="#191970" stroke="#191970" points="944.8809,-17.0582 934.29,-16.7689 942.3889,-23.5996 944.8809,-17.0582"/>
</g>
<!-- Node18 -->
<g id="node19" class="node">
<title>Node18</title>
<polygon fill="#ffffff" stroke="#bfbfbf" points="1241.5,-56.5 1241.5,-75.5 1278.5,-75.5 1278.5,-56.5 1241.5,-56.5"/>
<text text-anchor="middle" x="1260" y="-63.5" font-family="Helvetica,sans-Serif" font-size="10.00" fill="#000000">QUrl</text>
</g>
<!-- Node1&#45;&gt;Node18 -->
<g id="edge59" class="edge">
<title>Node1&#45;&gt;Node18</title>
<path fill="none" stroke="#191970" d="M723.7844,-177.4431C845.4978,-175.3724 1206.9598,-166.3599 1246,-132 1258.7523,-120.7765 1261.5489,-101.0868 1261.5772,-86.1259"/>
<polygon fill="#191970" stroke="#191970" points="1265.0628,-85.6826 1261.1784,-75.8255 1258.068,-85.9535 1265.0628,-85.6826"/>
</g>
<!-- Node19 -->
<g id="node20" class="node">
<title>Node19</title>
<g id="a_node20"><a xlink:href="loader_8h.html" target="_top" xlink:title="loader.h">
<polygon fill="#ffffff" stroke="#000000" points="991.5,-112.5 991.5,-131.5 1042.5,-131.5 1042.5,-112.5 991.5,-112.5"/>
<text text-anchor="middle" x="1017" y="-119.5" font-family="Helvetica,sans-Serif" font-size="10.00" fill="#000000">loader.h</text>
</a>
</g>
</g>
<!-- Node1&#45;&gt;Node19 -->
<g id="edge20" class="edge">
<title>Node1&#45;&gt;Node19</title>
<path fill="none" stroke="#191970" d="M723.9744,-173.5707C779.7041,-167.0205 884.0187,-153.4004 981.4624,-132.1234"/>
<polygon fill="#191970" stroke="#191970" points="982.4698,-135.4852 991.4755,-129.9042 980.9551,-128.651 982.4698,-135.4852"/>
</g>
<!-- Node21 -->
<g id="node22" class="node">
<title>Node21</title>
<polygon fill="#ffffff" stroke="#bfbfbf" points="550,-56.5 550,-75.5 604,-75.5 604,-56.5 550,-56.5"/>
<text text-anchor="middle" x="577" y="-63.5" font-family="Helvetica,sans-Serif" font-size="10.00" fill="#000000">QThread</text>
</g>
<!-- Node1&#45;&gt;Node21 -->
<g id="edge58" class="edge">
<title>Node1&#45;&gt;Node21</title>
<path fill="none" stroke="#191970" d="M644.3017,-176.0537C584.3202,-172.1886 475.0204,-161.2262 451,-132 445.356,-125.1328 445.9051,-119.2838 451,-112 456.3605,-104.3364 504.6083,-88.1774 539.8083,-77.2026"/>
<polygon fill="#191970" stroke="#191970" points="541.2754,-80.4127 549.797,-74.1173 539.2095,-73.7244 541.2754,-80.4127"/>
</g>
<!-- Node22 -->
<g id="node23" class="node">
<title>Node22</title>
<g id="a_node23"><a xlink:href="listFiles_8h.html" target="_top" xlink:title="listFiles.h">
<polygon fill="#ffffff" stroke="#000000" points="226.5,-56.5 226.5,-75.5 285.5,-75.5 285.5,-56.5 226.5,-56.5"/>
<text text-anchor="middle" x="256" y="-63.5" font-family="Helvetica,sans-Serif" font-size="10.00" fill="#000000">listFiles.h</text>
</a>
</g>
</g>
<!-- Node1&#45;&gt;Node22 -->
<g id="edge27" class="edge">
<title>Node1&#45;&gt;Node22</title>
<path fill="none" stroke="#191970" d="M644.2999,-176.3826C545.0042,-171.9584 291.8975,-158.2024 265,-132 252.9862,-120.2967 251.6961,-100.6709 252.8351,-85.8555"/>
<polygon fill="#191970" stroke="#191970" points="256.3403,-86.0172 254.0421,-75.6746 249.389,-85.1929 256.3403,-86.0172"/>
</g>
<!-- Node23 -->
<g id="node24" class="node">
<title>Node23</title>
<polygon fill="#ffffff" stroke="#bfbfbf" points="0,-.5 0,-19.5 74,-19.5 74,-.5 0,-.5"/>
<text text-anchor="middle" x="37" y="-7.5" font-family="Helvetica,sans-Serif" font-size="10.00" fill="#000000">QTreeWidget</text>
</g>
<!-- Node1&#45;&gt;Node23 -->
<g id="edge55" class="edge">
<title>Node1&#45;&gt;Node23</title>
<path fill="none" stroke="#191970" d="M644.2197,-177.12C542.5991,-174.4204 275.7237,-164.3673 194,-132 134.4114,-108.3995 78.6727,-54.8571 52.5449,-27.2199"/>
<polygon fill="#191970" stroke="#191970" points="55.0673,-24.7927 45.6978,-19.8465 49.9378,-29.556 55.0673,-24.7927"/>
</g>
<!-- Node24 -->
<g id="node25" class="node">
<title>Node24</title>
<polygon fill="#ffffff" stroke="#bfbfbf" points="92.5,-.5 92.5,-19.5 169.5,-19.5 169.5,-.5 92.5,-.5"/>
<text text-anchor="middle" x="131" y="-7.5" font-family="Helvetica,sans-Serif" font-size="10.00" fill="#000000">QHeaderView</text>
</g>
<!-- Node1&#45;&gt;Node24 -->
<g id="edge61" class="edge">
<title>Node1&#45;&gt;Node24</title>
<path fill="none" stroke="#191970" d="M644.1668,-175.8524C538.9774,-169.9255 259.3286,-152.4193 223,-132 180.9843,-108.3841 152.2669,-56.8382 139.1349,-28.9024"/>
<polygon fill="#191970" stroke="#191970" points="142.3163,-27.443 135.0063,-19.774 135.9383,-30.3278 142.3163,-27.443"/>
</g>
<!-- Node25 -->
<g id="node26" class="node">
<title>Node25</title>
<polygon fill="#ffffff" stroke="#bfbfbf" points="232.5,-.5 232.5,-19.5 279.5,-19.5 279.5,-.5 232.5,-.5"/>
<text text-anchor="middle" x="256" y="-7.5" font-family="Helvetica,sans-Serif" font-size="10.00" fill="#000000">QHash</text>
</g>
<!-- Node1&#45;&gt;Node25 -->
<g id="edge54" class="edge">
<title>Node1&#45;&gt;Node25</title>
<path fill="none" stroke="#191970" d="M644.2947,-175.7871C543.5859,-169.8934 283.8316,-152.8357 251,-132 219.7567,-112.1723 204.2553,-90.7399 217,-56 221.0568,-44.9418 229.0797,-34.7193 236.7994,-26.7335"/>
<polygon fill="#191970" stroke="#191970" points="239.4872,-29.0041 244.26,-19.5451 234.6302,-23.9632 239.4872,-29.0041"/>
</g>
<!-- Node26 -->
<g id="node27" class="node">
<title>Node26</title>
<g id="a_node27"><a xlink:href="search_8h.html" target="_top" xlink:title="search.h">
<polygon fill="#ffffff" stroke="#000000" points="274,-112.5 274,-131.5 328,-131.5 328,-112.5 274,-112.5"/>
<text text-anchor="middle" x="301" y="-119.5" font-family="Helvetica,sans-Serif" font-size="10.00" fill="#000000">search.h</text>
</a>
</g>
</g>
<!-- Node1&#45;&gt;Node26 -->
<g id="edge34" class="edge">
<title>Node1&#45;&gt;Node26</title>
<path fill="none" stroke="#191970" d="M644.2861,-174.0349C580.3122,-167.3394 450.6173,-152.4915 342,-132 340.7446,-131.7631 339.4699,-131.5122 338.1845,-131.2501"/>
<polygon fill="#191970" stroke="#191970" points="338.7775,-127.797 328.2599,-129.0736 337.278,-134.6345 338.7775,-127.797"/>
</g>
<!-- Node27 -->
<g id="node28" class="node">
<title>Node27</title>
<polygon fill="#ffffff" stroke="#bfbfbf" points="456.5,-56.5 456.5,-75.5 493.5,-75.5 493.5,-56.5 456.5,-56.5"/>
<text text-anchor="middle" x="475" y="-63.5" font-family="Helvetica,sans-Serif" font-size="10.00" fill="#000000">QDir</text>
</g>
<!-- Node1&#45;&gt;Node27 -->
<g id="edge56" class="edge">
<title>Node1&#45;&gt;Node27</title>
<path fill="none" stroke="#191970" d="M644.2405,-174.8464C565.7626,-168.2178 397.0334,-151.8048 380,-132 374.2038,-125.2608 375.2789,-119.5315 380,-112 387.6471,-99.8008 421.701,-85.2458 446.8618,-75.8237"/>
<polygon fill="#191970" stroke="#191970" points="448.14,-79.083 456.3289,-72.3604 445.7351,-72.5091 448.14,-79.083"/>
</g>
<!-- Node28 -->
<g id="node29" class="node">
<title>Node28</title>
<polygon fill="#ffffff" stroke="#bfbfbf" points="460,-112.5 460,-131.5 540,-131.5 540,-112.5 460,-112.5"/>
<text text-anchor="middle" x="500" y="-119.5" font-family="Helvetica,sans-Serif" font-size="10.00" fill="#000000">QMainWindow</text>
</g>
<!-- Node1&#45;&gt;Node28 -->
<g id="edge46" class="edge">
<title>Node1&#45;&gt;Node28</title>
<path fill="none" stroke="#191970" d="M652.3693,-168.3733C621.6404,-159.021 574.824,-144.7725 541.1978,-134.5385"/>
<polygon fill="#191970" stroke="#191970" points="541.8038,-131.0644 531.218,-131.5011 539.7656,-137.7612 541.8038,-131.0644"/>
</g>
<!-- Node29 -->
<g id="node30" class="node">
<title>Node29</title>
<polygon fill="#ffffff" stroke="#bfbfbf" points="558,-112.5 558,-131.5 598,-131.5 598,-112.5 558,-112.5"/>
<text text-anchor="middle" x="578" y="-119.5" font-family="Helvetica,sans-Serif" font-size="10.00" fill="#000000">QFile</text>
</g>
<!-- Node1&#45;&gt;Node29 -->
<g id="edge48" class="edge">
<title>Node1&#45;&gt;Node29</title>
<path fill="none" stroke="#191970" d="M665.5362,-168.2455C648.8926,-159.4527 624.2007,-146.4079 605.2808,-136.4125"/>
<polygon fill="#191970" stroke="#191970" points="606.7291,-133.2193 596.2522,-131.6427 603.4592,-139.4086 606.7291,-133.2193"/>
</g>
<!-- Node30 -->
<g id="node31" class="node">
<title>Node30</title>
<polygon fill="#ffffff" stroke="#bfbfbf" points="616,-112.5 616,-131.5 672,-131.5 672,-112.5 616,-112.5"/>
<text text-anchor="middle" x="644" y="-119.5" font-family="Helvetica,sans-Serif" font-size="10.00" fill="#000000">QFileInfo</text>
</g>
<!-- Node1&#45;&gt;Node30 -->
<g id="edge49" class="edge">
<title>Node1&#45;&gt;Node30</title>
<path fill="none" stroke="#191970" d="M677.0325,-168.2455C671.4689,-160.4564 663.522,-149.3308 656.8171,-139.9439"/>
<polygon fill="#191970" stroke="#191970" points="659.5481,-137.7457 650.8876,-131.6427 653.852,-141.8144 659.5481,-137.7457"/>
</g>
<!-- Node31 -->
<g id="node32" class="node">
<title>Node31</title>
<polygon fill="#ffffff" stroke="#bfbfbf" points="690,-112.5 690,-131.5 758,-131.5 758,-112.5 690,-112.5"/>
<text text-anchor="middle" x="724" y="-119.5" font-family="Helvetica,sans-Serif" font-size="10.00" fill="#000000">QFileDialog</text>
</g>
<!-- Node1&#45;&gt;Node31 -->
<g id="edge50" class="edge">
<title>Node1&#45;&gt;Node31</title>
<path fill="none" stroke="#191970" d="M690.9675,-168.2455C696.5311,-160.4564 704.478,-149.3308 711.1829,-139.9439"/>
<polygon fill="#191970" stroke="#191970" points="714.148,-141.8144 717.1124,-131.6427 708.4519,-137.7457 714.148,-141.8144"/>
</g>
<!-- Node32 -->
<g id="node33" class="node">
<title>Node32</title>
<polygon fill="#ffffff" stroke="#bfbfbf" points="776,-112.5 776,-131.5 866,-131.5 866,-112.5 776,-112.5"/>
<text text-anchor="middle" x="821" y="-119.5" font-family="Helvetica,sans-Serif" font-size="10.00" fill="#000000">QListWidgetItem</text>
</g>
<!-- Node1&#45;&gt;Node32 -->
<g id="edge51" class="edge">
<title>Node1&#45;&gt;Node32</title>
<path fill="none" stroke="#191970" d="M707.5511,-168.3733C729.8391,-159.2629 763.4937,-145.5062 788.3637,-135.3404"/>
<polygon fill="#191970" stroke="#191970" points="789.8239,-138.5247 797.7562,-131.5011 787.1753,-132.0451 789.8239,-138.5247"/>
</g>
<!-- Node33 -->
<g id="node34" class="node">
<title>Node33</title>
<polygon fill="#ffffff" stroke="#bfbfbf" points="884.5,-112.5 884.5,-131.5 973.5,-131.5 973.5,-112.5 884.5,-112.5"/>
<text text-anchor="middle" x="929" y="-119.5" font-family="Helvetica,sans-Serif" font-size="10.00" fill="#000000">QStandardPaths</text>
</g>
<!-- Node1&#45;&gt;Node33 -->
<g id="edge57" class="edge">
<title>Node1&#45;&gt;Node33</title>
<path fill="none" stroke="#191970" d="M723.6358,-168.9404C765.525,-159.3657 831.7504,-144.2285 877.621,-133.7438"/>
<polygon fill="#191970" stroke="#191970" points="878.4032,-137.1553 887.3719,-131.515 876.8434,-130.3313 878.4032,-137.1553"/>
</g>
<!-- Node3 -->
<g id="node4" class="node">
<title>Node3</title>
<g id="a_node4"><a xlink:href="logger_8h.html" target="_top" xlink:title="logger.h">
<polygon fill="#ffffff" stroke="#000000" points="1133.5,-56.5 1133.5,-75.5 1184.5,-75.5 1184.5,-56.5 1133.5,-56.5"/>
<text text-anchor="middle" x="1159" y="-63.5" font-family="Helvetica,sans-Serif" font-size="10.00" fill="#000000">logger.h</text>
</a>
</g>
</g>
<!-- Node2&#45;&gt;Node3 -->
<g id="edge3" class="edge">
<title>Node2&#45;&gt;Node3</title>
<path fill="none" stroke="#191970" d="M1182.1228,-112.2455C1178.3487,-104.6973 1173.0079,-94.0158 1168.4099,-84.8197"/>
<polygon fill="#191970" stroke="#191970" points="1171.424,-83.0217 1163.8213,-75.6427 1165.163,-86.1522 1171.424,-83.0217"/>
</g>
<!-- Node2&#45;&gt;Node8 -->
<g id="edge8" class="edge">
<title>Node2&#45;&gt;Node8</title>
<path fill="none" stroke="#191970" d="M1231.5709,-112.4369C1278.7375,-102.3169 1352.8632,-86.4125 1400.9495,-76.0951"/>
<polygon fill="#191970" stroke="#191970" points="1401.753,-79.5025 1410.7963,-73.9824 1400.2845,-72.6582 1401.753,-79.5025"/>
</g>
<!-- Node2&#45;&gt;Node14 -->
<g id="edge19" class="edge">
<title>Node2&#45;&gt;Node14</title>
<path fill="none" stroke="#191970" d="M1191.5632,-112.1535C1198.5986,-97.9497 1213.3627,-71.6973 1233,-56 1245.321,-46.1511 1281.5542,-32.192 1309.7052,-22.2389"/>
<polygon fill="#191970" stroke="#191970" points="1310.9854,-25.4992 1319.273,-18.8988 1308.6782,-18.8904 1310.9854,-25.4992"/>
</g>
<!-- Node2&#45;&gt;Node16 -->
<g id="edge16" class="edge">
<title>Node2&#45;&gt;Node16</title>
<path fill="none" stroke="#191970" d="M1163.8094,-112.4509C1114.1017,-91.983 997.4317,-43.9425 943.3933,-21.6914"/>
<polygon fill="#191970" stroke="#191970" points="944.6417,-18.4204 934.0623,-17.8492 941.9764,-24.8931 944.6417,-18.4204"/>
</g>
<!-- Node17 -->
<g id="node18" class="node">
<title>Node17</title>
<polygon fill="#ffffff" stroke="#bfbfbf" points="541,-.5 541,-19.5 627,-19.5 627,-.5 541,-.5"/>
<text text-anchor="middle" x="584" y="-7.5" font-family="Helvetica,sans-Serif" font-size="10.00" fill="#000000">QSharedPointer</text>
</g>
<!-- Node2&#45;&gt;Node17 -->
<g id="edge17" class="edge">
<title>Node2&#45;&gt;Node17</title>
<path fill="none" stroke="#191970" d="M1149.0605,-112.4164C1093.6974,-98.6551 987.4064,-73.078 896,-56 805.5057,-39.0924 699.2933,-24.551 637.0473,-16.5612"/>
<polygon fill="#191970" stroke="#191970" points="637.4332,-13.0821 627.0707,-15.2884 636.5473,-20.0258 637.4332,-13.0821"/>
</g>
<!-- Node2&#45;&gt;Node18 -->
<g id="edge18" class="edge">
<title>Node2&#45;&gt;Node18</title>
<path fill="none" stroke="#191970" d="M1199.7156,-112.2455C1210.602,-103.8943 1226.4883,-91.7076 1239.22,-81.9408"/>
<polygon fill="#191970" stroke="#191970" points="1241.6261,-84.5063 1247.4301,-75.6427 1237.3654,-78.9523 1241.6261,-84.5063"/>
</g>
<!-- Node3&#45;&gt;Node4 -->
<g id="edge4" class="edge">
<title>Node3&#45;&gt;Node4</title>
<path fill="none" stroke="#191970" d="M1162.1354,-56.2455C1164.51,-48.8579 1167.8493,-38.4689 1170.7615,-29.4087"/>
<polygon fill="#191970" stroke="#191970" points="1174.1725,-30.234 1173.9006,-19.6427 1167.5083,-28.0919 1174.1725,-30.234"/>
</g>
<!-- Node3&#45;&gt;Node5 -->
<g id="edge5" class="edge">
<title>Node3&#45;&gt;Node5</title>
<path fill="none" stroke="#191970" d="M1176.767,-56.2455C1192.7095,-47.4928 1216.3259,-34.527 1234.4989,-24.5496"/>
<polygon fill="#191970" stroke="#191970" points="1236.3552,-27.5233 1243.4366,-19.6427 1232.9863,-21.3873 1236.3552,-27.5233"/>
</g>
<!-- Node6 -->
<g id="node7" class="node">
<title>Node6</title>
<polygon fill="#ffffff" stroke="#bfbfbf" points="1072.5,-.5 1072.5,-19.5 1133.5,-19.5 1133.5,-.5 1072.5,-.5"/>
<text text-anchor="middle" x="1103" y="-7.5" font-family="Helvetica,sans-Serif" font-size="10.00" fill="#000000">QTextEdit</text>
</g>
<!-- Node3&#45;&gt;Node6 -->
<g id="edge6" class="edge">
<title>Node3&#45;&gt;Node6</title>
<path fill="none" stroke="#191970" d="M1149.2455,-56.2455C1141.1352,-48.1352 1129.4075,-36.4075 1119.7919,-26.7919"/>
<polygon fill="#191970" stroke="#191970" points="1122.1887,-24.2389 1112.6427,-19.6427 1117.2389,-29.1887 1122.1887,-24.2389"/>
</g>
<!-- Node3&#45;&gt;Node7 -->
<g id="edge7" class="edge">
<title>Node3&#45;&gt;Node7</title>
<path fill="none" stroke="#191970" d="M1136.6522,-56.3733C1115.5967,-47.3032 1083.8505,-33.6279 1060.2825,-23.4755"/>
<polygon fill="#191970" stroke="#191970" points="1061.625,-20.243 1051.0562,-19.5011 1058.8556,-26.6719 1061.625,-20.243"/>
</g>
<!-- Node9 -->
<g id="node10" class="node">
<title>Node9</title>
<polygon fill="#ffffff" stroke="#bfbfbf" points="1744,-.5 1744,-19.5 1796,-19.5 1796,-.5 1744,-.5"/>
<text text-anchor="middle" x="1770" y="-7.5" font-family="Helvetica,sans-Serif" font-size="10.00" fill="#000000">QDialog</text>
</g>
<!-- Node8&#45;&gt;Node9 -->
<g id="edge9" class="edge">
<title>Node8&#45;&gt;Node9</title>
<path fill="none" stroke="#191970" d="M1485.4205,-61.4532C1538.5822,-54.678 1639.1521,-40.6979 1733.6999,-20.0877"/>
<polygon fill="#191970" stroke="#191970" points="1734.7038,-23.4504 1743.7129,-17.8747 1733.1931,-16.6153 1734.7038,-23.4504"/>
</g>
<!-- Node10 -->
<g id="node11" class="node">
<title>Node10</title>
<polygon fill="#ffffff" stroke="#bfbfbf" points="1572.5,-.5 1572.5,-19.5 1631.5,-19.5 1631.5,-.5 1572.5,-.5"/>
<text text-anchor="middle" x="1602" y="-7.5" font-family="Helvetica,sans-Serif" font-size="10.00" fill="#000000">QLineEdit</text>
</g>
<!-- Node8&#45;&gt;Node10 -->
<g id="edge10" class="edge">
<title>Node8&#45;&gt;Node10</title>
<path fill="none" stroke="#191970" d="M1474.4735,-56.3733C1499.8597,-47.1419 1538.3645,-33.1402 1566.422,-22.9375"/>
<polygon fill="#191970" stroke="#191970" points="1567.6701,-26.2079 1575.8719,-19.5011 1565.2778,-19.6293 1567.6701,-26.2079"/>
</g>
<!-- Node11 -->
<g id="node12" class="node">
<title>Node11</title>
<polygon fill="#ffffff" stroke="#bfbfbf" points="1650,-.5 1650,-19.5 1726,-19.5 1726,-.5 1650,-.5"/>
<text text-anchor="middle" x="1688" y="-7.5" font-family="Helvetica,sans-Serif" font-size="10.00" fill="#000000">QFormLayout</text>
</g>
<!-- Node8&#45;&gt;Node11 -->
<g id="edge11" class="edge">
<title>Node8&#45;&gt;Node11</title>
<path fill="none" stroke="#191970" d="M1485.2367,-57.3114C1526.8546,-47.6006 1594.3677,-31.8475 1639.9396,-21.2141"/>
<polygon fill="#191970" stroke="#191970" points="1640.9391,-24.575 1649.8822,-18.8942 1639.3485,-17.7581 1640.9391,-24.575"/>
</g>
<!-- Node12 -->
<g id="node13" class="node">
<title>Node12</title>
<polygon fill="#ffffff" stroke="#bfbfbf" points="1390.5,-.5 1390.5,-19.5 1437.5,-19.5 1437.5,-.5 1390.5,-.5"/>
<text text-anchor="middle" x="1414" y="-7.5" font-family="Helvetica,sans-Serif" font-size="10.00" fill="#000000">QLabel</text>
</g>
<!-- Node8&#45;&gt;Node12 -->
<g id="edge12" class="edge">
<title>Node8&#45;&gt;Node12</title>
<path fill="none" stroke="#191970" d="M1442.0777,-56.2455C1437.3973,-48.5367 1430.7327,-37.5598 1425.0711,-28.2348"/>
<polygon fill="#191970" stroke="#191970" points="1428.0361,-26.3741 1419.8545,-19.6427 1422.0525,-30.007 1428.0361,-26.3741"/>
</g>
<!-- Node13 -->
<g id="node14" class="node">
<title>Node13</title>
<polygon fill="#ffffff" stroke="#bfbfbf" points="1456,-.5 1456,-19.5 1554,-19.5 1554,-.5 1456,-.5"/>
<text text-anchor="middle" x="1505" y="-7.5" font-family="Helvetica,sans-Serif" font-size="10.00" fill="#000000">QDialogButtonBox</text>
</g>
<!-- Node8&#45;&gt;Node13 -->
<g id="edge13" class="edge">
<title>Node8&#45;&gt;Node13</title>
<path fill="none" stroke="#191970" d="M1457.9286,-56.2455C1466.1838,-48.1352 1478.1209,-36.4075 1487.9082,-26.7919"/>
<polygon fill="#191970" stroke="#191970" points="1490.5046,-29.1476 1495.1851,-19.6427 1485.5989,-24.1542 1490.5046,-29.1476"/>
</g>
<!-- Node8&#45;&gt;Node14 -->
<g id="edge14" class="edge">
<title>Node8&#45;&gt;Node14</title>
<path fill="none" stroke="#191970" d="M1430.233,-56.2455C1414.2905,-47.4928 1390.6741,-34.527 1372.5011,-24.5496"/>
<polygon fill="#191970" stroke="#191970" points="1374.0137,-21.3873 1363.5634,-19.6427 1370.6448,-27.5233 1374.0137,-21.3873"/>
</g>
<!-- Node8&#45;&gt;Node15 -->
<g id="edge15" class="edge">
<title>Node8&#45;&gt;Node15</title>
<path fill="none" stroke="#191970" d="M1410.8299,-63.5202C1378.4078,-61.3946 1330.1017,-58.318 1288,-56 952.1279,-37.5081 867.934,-37.3297 532,-20 482.642,-17.4538 425.687,-14.2438 389.2878,-12.1578"/>
<polygon fill="#191970" stroke="#191970" points="389.321,-8.6541 379.1367,-11.5747 388.9195,-15.6425 389.321,-8.6541"/>
</g>
<!-- Node19&#45;&gt;Node3 -->
<g id="edge21" class="edge">
<title>Node19&#45;&gt;Node3</title>
<path fill="none" stroke="#191970" d="M1041.4107,-112.3733C1064.6142,-103.2226 1099.7038,-89.3844 1125.5142,-79.2057"/>
<polygon fill="#191970" stroke="#191970" points="1126.8892,-82.4258 1134.9079,-75.5011 1124.3211,-75.9139 1126.8892,-82.4258"/>
</g>
<!-- Node19&#45;&gt;Node7 -->
<g id="edge26" class="edge">
<title>Node19&#45;&gt;Node7</title>
<path fill="none" stroke="#191970" d="M1018.0231,-112.4509C1019.9803,-94.184 1024.2905,-53.9553 1026.8895,-29.6976"/>
<polygon fill="#191970" stroke="#191970" points="1030.3941,-29.8409 1027.9795,-19.5249 1023.434,-29.0951 1030.3941,-29.8409"/>
</g>
<!-- Node19&#45;&gt;Node16 -->
<g id="edge24" class="edge">
<title>Node19&#45;&gt;Node16</title>
<path fill="none" stroke="#191970" d="M991.7668,-112.4892C974.7618,-104.9239 952.9664,-92.8067 939,-76 927.9322,-62.6815 921.758,-43.8257 918.4541,-29.6766"/>
<polygon fill="#191970" stroke="#191970" points="921.8127,-28.6306 916.3811,-19.534 914.9545,-30.0324 921.8127,-28.6306"/>
</g>
<!-- Node19&#45;&gt;Node17 -->
<g id="edge23" class="edge">
<title>Node19&#45;&gt;Node17</title>
<path fill="none" stroke="#191970" d="M991.4385,-114.2516C988.5999,-113.4598 985.7441,-112.693 983,-112 908.1198,-93.0898 887.9314,-94.7062 813,-76 746.3827,-59.3694 669.9042,-36.5659 624.343,-22.5809"/>
<polygon fill="#191970" stroke="#191970" points="625.141,-19.1645 614.5537,-19.5657 623.0803,-25.8543 625.141,-19.1645"/>
</g>
<!-- Node20 -->
<g id="node21" class="node">
<title>Node20</title>
<polygon fill="#ffffff" stroke="#bfbfbf" points="821.5,-56.5 821.5,-75.5 886.5,-75.5 886.5,-56.5 821.5,-56.5"/>
<text text-anchor="middle" x="854" y="-63.5" font-family="Helvetica,sans-Serif" font-size="10.00" fill="#000000">QStringList</text>
</g>
<!-- Node19&#45;&gt;Node20 -->
<g id="edge22" class="edge">
<title>Node19&#45;&gt;Node20</title>
<path fill="none" stroke="#191970" d="M991.1722,-113.1266C964.2794,-103.8874 921.8953,-89.326 891.3552,-78.8337"/>
<polygon fill="#191970" stroke="#191970" points="892.4851,-75.5211 881.8904,-75.582 890.2106,-82.1413 892.4851,-75.5211"/>
</g>
<!-- Node19&#45;&gt;Node21 -->
<g id="edge25" class="edge">
<title>Node19&#45;&gt;Node21</title>
<path fill="none" stroke="#191970" d="M991.4992,-113.9846C988.6492,-113.2428 985.7742,-112.5607 983,-112 912.8322,-97.8175 700.943,-77.4053 614.4154,-69.4021"/>
<polygon fill="#191970" stroke="#191970" points="614.541,-65.8989 604.262,-68.4667 613.8988,-72.8694 614.541,-65.8989"/>
</g>
<!-- Node22&#45;&gt;Node15 -->
<g id="edge33" class="edge">
<title>Node22&#45;&gt;Node15</title>
<path fill="none" stroke="#191970" d="M272.7219,-56.2455C287.5889,-47.5731 309.5466,-34.7645 326.5858,-24.825"/>
<polygon fill="#191970" stroke="#191970" points="328.5955,-27.7047 335.4697,-19.6427 325.0683,-21.6582 328.5955,-27.7047"/>
</g>
<!-- Node22&#45;&gt;Node16 -->
<g id="edge28" class="edge">
<title>Node22&#45;&gt;Node16</title>
<path fill="none" stroke="#191970" d="M285.5961,-63.485C395.0405,-54.1847 776.1606,-21.7982 885.4796,-12.5086"/>
<polygon fill="#191970" stroke="#191970" points="886.0913,-15.9693 895.759,-11.635 885.4985,-8.9944 886.0913,-15.9693"/>
</g>
<!-- Node22&#45;&gt;Node17 -->
<g id="edge29" class="edge">
<title>Node22&#45;&gt;Node17</title>
<path fill="none" stroke="#191970" d="M285.6863,-60.9316C341.1484,-51.4625 461.1765,-30.9699 530.897,-19.0664"/>
<polygon fill="#191970" stroke="#191970" points="531.5366,-22.5079 540.8049,-17.3748 530.3584,-15.6077 531.5366,-22.5079"/>
</g>
<!-- Node22&#45;&gt;Node23 -->
<g id="edge30" class="edge">
<title>Node22&#45;&gt;Node23</title>
<path fill="none" stroke="#191970" d="M226.4647,-58.4476C189.8539,-49.0859 127.0205,-33.0189 83.817,-21.9715"/>
<polygon fill="#191970" stroke="#191970" points="84.6554,-18.5733 74.1,-19.4868 82.9212,-25.3551 84.6554,-18.5733"/>
</g>
<!-- Node22&#45;&gt;Node24 -->
<g id="edge31" class="edge">
<title>Node22&#45;&gt;Node24</title>
<path fill="none" stroke="#191970" d="M234.5117,-56.3733C214.356,-47.3435 184.012,-33.7494 161.382,-23.6111"/>
<polygon fill="#191970" stroke="#191970" points="162.7649,-20.3955 152.2079,-19.5011 159.9029,-26.7838 162.7649,-20.3955"/>
</g>
<!-- Node22&#45;&gt;Node25 -->
<g id="edge32" class="edge">
<title>Node22&#45;&gt;Node25</title>
<path fill="none" stroke="#191970" d="M256,-56.2455C256,-48.9382 256,-38.6944 256,-29.7046"/>
<polygon fill="#191970" stroke="#191970" points="259.5001,-29.6426 256,-19.6427 252.5001,-29.6427 259.5001,-29.6426"/>
</g>
<!-- Node26&#45;&gt;Node15 -->
<g id="edge42" class="edge">
<title>Node26&#45;&gt;Node15</title>
<path fill="none" stroke="#191970" d="M305.3482,-112.4509C313.7791,-93.936 332.4838,-52.8591 343.4763,-28.7187"/>
<polygon fill="#191970" stroke="#191970" points="346.7039,-30.0762 347.6628,-19.5249 340.3333,-27.1753 346.7039,-30.0762"/>
</g>
<!-- Node26&#45;&gt;Node16 -->
<g id="edge36" class="edge">
<title>Node26&#45;&gt;Node16</title>
<path fill="none" stroke="#191970" d="M324.5499,-112.3347C346.3456,-103.2811 379.5752,-89.2029 408,-76 426.0265,-67.627 428.9029,-61.5104 448,-56 530.9372,-32.0688 796.5638,-16.2371 885.5969,-11.4937"/>
<polygon fill="#191970" stroke="#191970" points="885.9871,-14.9782 895.7897,-10.9583 885.6198,-7.9878 885.9871,-14.9782"/>
</g>
<!-- Node26&#45;&gt;Node17 -->
<g id="edge37" class="edge">
<title>Node26&#45;&gt;Node17</title>
<path fill="none" stroke="#191970" d="M314.6464,-112.4134C335.2861,-98.2969 376.0676,-71.8787 414,-56 451.8632,-40.1503 496.7653,-28.2738 530.9114,-20.5622"/>
<polygon fill="#191970" stroke="#191970" points="531.6829,-23.9762 540.6918,-18.4004 530.1721,-17.1412 531.6829,-23.9762"/>
</g>
<!-- Node26&#45;&gt;Node21 -->
<g id="edge43" class="edge">
<title>Node26&#45;&gt;Node21</title>
<path fill="none" stroke="#191970" d="M328.2193,-116.4772C378.0224,-106.3723 483.8536,-84.8993 540.0866,-73.4897"/>
<polygon fill="#191970" stroke="#191970" points="540.8803,-76.9 549.9846,-71.4814 539.4883,-70.0398 540.8803,-76.9"/>
</g>
<!-- Node26&#45;&gt;Node22 -->
<g id="edge35" class="edge">
<title>Node26&#45;&gt;Node22</title>
<path fill="none" stroke="#191970" d="M293.1616,-112.2455C286.838,-104.3761 277.7776,-93.101 270.1864,-83.6542"/>
<polygon fill="#191970" stroke="#191970" points="272.7408,-81.2454 263.7486,-75.6427 267.2842,-85.6302 272.7408,-81.2454"/>
</g>
<!-- Node26&#45;&gt;Node23 -->
<g id="edge38" class="edge">
<title>Node26&#45;&gt;Node23</title>
<path fill="none" stroke="#191970" d="M276.4482,-112.3477C253.3,-103.1871 217.6783,-88.9351 187,-76 145.3657,-58.4455 97.6608,-37.2713 67.4401,-23.7242"/>
<polygon fill="#191970" stroke="#191970" points="68.8287,-20.5111 58.2724,-19.6081 65.9615,-26.897 68.8287,-20.5111"/>
</g>
<!-- Node26&#45;&gt;Node24 -->
<g id="edge39" class="edge">
<title>Node26&#45;&gt;Node24</title>
<path fill="none" stroke="#191970" d="M281.497,-112.4002C264.1517,-103.6114 238.3095,-89.8942 217,-76 193.103,-60.4187 167.3546,-40.1503 150.3252,-26.2078"/>
<polygon fill="#191970" stroke="#191970" points="152.2088,-23.2239 142.2707,-19.5517 147.7497,-28.6199 152.2088,-23.2239"/>
</g>
<!-- Node26&#45;&gt;Node25 -->
<g id="edge40" class="edge">
<title>Node26&#45;&gt;Node25</title>
<path fill="none" stroke="#191970" d="M301.6795,-112.1692C302.2217,-98.8792 301.861,-74.6942 294,-56 289.4828,-45.2576 281.5973,-35.0733 274.1762,-27.0312"/>
<polygon fill="#191970" stroke="#191970" points="276.5511,-24.454 267.0519,-19.7617 271.5516,-29.3535 276.5511,-24.454"/>
</g>
<!-- Node26&#45;&gt;Node27 -->
<g id="edge41" class="edge">
<title>Node26&#45;&gt;Node27</title>
<path fill="none" stroke="#191970" d="M328.1875,-113.25C360.2714,-102.9242 413.3897,-85.8286 446.1714,-75.2782"/>
<polygon fill="#191970" stroke="#191970" points="447.6009,-78.495 456.0477,-72.0996 445.4563,-71.8316 447.6009,-78.495"/>
</g>
<!-- Node35&#45;&gt;Node1 -->
<g id="edge66" class="edge">
<title>Node35&#45;&gt;Node1</title>
<path fill="none" stroke="#191970" d="M684,-224.2455C684,-216.9382 684,-206.6944 684,-197.7046"/>
<polygon fill="#191970" stroke="#191970" points="687.5001,-197.6426 684,-187.6427 680.5001,-197.6427 687.5001,-197.6426"/>
</g>
<!-- Node35&#45;&gt;Node9 -->
<g id="edge67" class="edge">
<title>Node35&#45;&gt;Node9</title>
<path fill="none" stroke="#191970" d="M724.123,-231.2857C835.9652,-223.1158 1160.1894,-195.3107 1422,-132 1541.6617,-103.0636 1677.907,-48.7625 1738.3056,-23.5289"/>
<polygon fill="#191970" stroke="#191970" points="1739.8077,-26.6943 1747.6717,-19.5943 1737.0965,-20.2406 1739.8077,-26.6943"/>
</g>
<!-- Node35&#45;&gt;Node22 -->
<g id="edge65" class="edge">
<title>Node35&#45;&gt;Node22</title>
<path fill="none" stroke="#191970" d="M643.9339,-225.2496C537.8309,-201.9879 257.2176,-139.8524 251,-132 240.6678,-118.951 243.628,-99.5399 248.1467,-85.1433"/>
<polygon fill="#191970" stroke="#191970" points="251.4488,-86.3037 251.5447,-75.7093 244.863,-83.9315 251.4488,-86.3037"/>
</g>
</g>
</svg>
        <g id="navigator" transform="translate(0 0)" fill="#404254">
                <rect fill="#f2f5e9" fill-opacity="0.5" stroke="#606060" stroke-width=".5" x="0" y="0" width="60" height="60"/>
                <use id="zoomplus" xlink:href="#zoomPlus" x="17" y="9" onmousedown="handleZoom(evt,'in')"/>
                <use id="zoomminus" xlink:href="#zoomMin" x="42" y="9" onmousedown="handleZoom(evt,'out')"/>
                <use id="reset" xlink:href="#resetDef" x="30" y="36" onmousedown="handleReset()"/>
                <g id="arrowUp" xlink:href="#dirArrow" transform="translate(30 24)" onmousedown="handlePan(0,-1)">
                  <use xlink:href="#rim" fill="#404040">
                        <set attributeName="fill" to="#808080" begin="arrowUp.mouseover" end="arrowUp.mouseout"/>
                  </use>
                  <path fill="none" stroke="white" stroke-width="1.5" d="M0,-3.0v7 M-2.5,-0.5L0,-3.0L2.5,-0.5"/>
                </g>
                <g id="arrowRight" xlink:href="#dirArrow" transform="rotate(90) translate(36 -43)" onmousedown="handlePan(1,0)">
                  <use xlink:href="#rim" fill="#404040">
                        <set attributeName="fill" to="#808080" begin="arrowRight.mouseover" end="arrowRight.mouseout"/>
                  </use>
                  <path fill="none" stroke="white" stroke-width="1.5" d="M0,-3.0v7 M-2.5,-0.5L0,-3.0L2.5,-0.5"/>
                </g>
                <g id="arrowDown" xlink:href="#dirArrow" transform="rotate(180) translate(-30 -48)" onmousedown="handlePan(0,1)">
                  <use xlink:href="#rim" fill="#404040">
                        <set attributeName="fill" to="#808080" begin="arrowDown.mouseover" end="arrowDown.mouseout"/>
                  </use>
                  <path fill="none" stroke="white" stroke-width="1.5" d="M0,-3.0v7 M-2.5,-0.5L0,-3.0L2.5,-0.5"/>
                </g>
                <g id="arrowLeft" xlink:href="#dirArrow" transform="rotate(270) translate(-36 17)" onmousedown="handlePan(-1,0)">
                  <use xlink:href="#rim" fill="#404040">
                        <set attributeName="fill" to="#808080" begin="arrowLeft.mouseover" end="arrowLeft.mouseout"/>
                  </use>
                  <path fill="none" stroke="white" stroke-width="1.5" d="M0,-3.0v7 M-2.5,-0.5L0,-3.0L2.5,-0.5"/>
                </g>
        </g>
        <svg viewBox="0 0 15 15" width="100%" height="30px" preserveAspectRatio="xMaxYMin meet">
         <g id="arrow_out" transform="scale(0.3 0.3)">
          <a xlink:href="mainwindow_8cpp__incl_org.svg" target="_base">
           <rect id="button" ry="5" rx="5" y="6" x="6" height="38" width="38"
                fill="#f2f5e9" fill-opacity="0.5" stroke="#606060" stroke-width="1.0"/>
           <path id="arrow"
             d="M 11.500037,31.436501 C 11.940474,20.09759 22.043105,11.32322 32.158766,21.979434 L 37.068811,17.246167 C 37.068811,17.246167 37.088388,32 37.088388,32 L 22.160133,31.978069 C 22.160133,31.978069 26.997745,27.140456 26.997745,27.140456 C 18.528582,18.264221 13.291696,25.230495 11.500037,31.436501 z"
             style="fill:#404040;"/>
          </a>
         </g>
        </svg>
</svg>
