<?xml version="1.0" encoding="UTF-8" standalone="no"?>
<!DOCTYPE svg PUBLIC "-//W3C//DTD SVG 1.1//EN"
 "http://www.w3.org/Graphics/SVG/1.1/DTD/svg11.dtd">
<!-- Generated by graphviz version 2.40.1 (20161225.0304)
 -->
<!-- Title: search.h Pages: 1 -->
<svg width="360pt" height="196pt"
 viewBox="0.00 0.00 359.50 196.00" xmlns="http://www.w3.org/2000/svg" xmlns:xlink="http://www.w3.org/1999/xlink">
<g id="graph0" class="graph" transform="scale(1 1) rotate(0) translate(4 192)">
<title>search.h</title>
<polygon fill="#ffffff" stroke="transparent" points="-4,4 -4,-192 355.5,-192 355.5,4 -4,4"/>
<!-- Node10 -->
<g id="node1" class="node">
<title>Node10</title>
<polygon fill="#bfbfbf" stroke="#000000" points="231,-168.5 231,-187.5 285,-187.5 285,-168.5 231,-168.5"/>
<text text-anchor="middle" x="258" y="-175.5" font-family="Helvetica,sans-Serif" font-size="10.00" fill="#000000">search.h</text>
</g>
<!-- Node11 -->
<g id="node2" class="node">
<title>Node11</title>
<g id="a_node2"><a xlink:href="mainwindow_8h.html" target="_top" xlink:title="mainwindow.h">
<polygon fill="#ffffff" stroke="#000000" points="112.5,-112.5 112.5,-131.5 191.5,-131.5 191.5,-112.5 112.5,-112.5"/>
<text text-anchor="middle" x="152" y="-119.5" font-family="Helvetica,sans-Serif" font-size="10.00" fill="#000000">mainwindow.h</text>
</a>
</g>
</g>
<!-- Node10&#45;&gt;Node11 -->
<g id="edge1" class="edge">
<title>Node10&#45;&gt;Node11</title>
<path fill="none" stroke="#191970" d="M230.4778,-163.46C211.5092,-153.4388 186.8273,-140.3993 170.2522,-131.6427"/>
<polygon fill="#191970" stroke="#191970" points="229.0593,-166.669 239.5362,-168.2455 232.3292,-160.4796 229.0593,-166.669"/>
</g>
<!-- Node15 -->
<g id="node6" class="node">
<title>Node15</title>
<g id="a_node6"><a xlink:href="searchdialog_8cpp.html" target="_top" xlink:title="searchdialog.cpp">
<polygon fill="#ffffff" stroke="#000000" points="175,-.5 175,-19.5 265,-19.5 265,-.5 175,-.5"/>
<text text-anchor="middle" x="220" y="-7.5" font-family="Helvetica,sans-Serif" font-size="10.00" fill="#000000">searchdialog.cpp</text>
</a>
</g>
</g>
<!-- Node10&#45;&gt;Node15 -->
<g id="edge9" class="edge">
<title>Node10&#45;&gt;Node15</title>
<path fill="none" stroke="#191970" d="M253.6406,-158.7267C245.519,-122.8207 228.3424,-46.8822 222.223,-19.8279"/>
<polygon fill="#191970" stroke="#191970" points="250.2281,-159.5048 255.8481,-168.4862 257.0556,-157.9604 250.2281,-159.5048"/>
</g>
<!-- Node16 -->
<g id="node7" class="node">
<title>Node16</title>
<g id="a_node7"><a xlink:href="search_8cpp.html" target="_top" xlink:title="search.cpp">
<polygon fill="#ffffff" stroke="#000000" points="286.5,-112.5 286.5,-131.5 351.5,-131.5 351.5,-112.5 286.5,-112.5"/>
<text text-anchor="middle" x="319" y="-119.5" font-family="Helvetica,sans-Serif" font-size="10.00" fill="#000000">search.cpp</text>
</a>
</g>
</g>
<!-- Node10&#45;&gt;Node16 -->
<g id="edge8" class="edge">
<title>Node10&#45;&gt;Node16</title>
<path fill="none" stroke="#191970" d="M276.1249,-161.3607C286.678,-151.6727 299.6112,-139.7995 308.4964,-131.6427"/>
<polygon fill="#191970" stroke="#191970" points="273.625,-158.9045 268.6254,-168.2455 278.3589,-164.0611 273.625,-158.9045"/>
</g>
<!-- Node12 -->
<g id="node3" class="node">
<title>Node12</title>
<g id="a_node3"><a xlink:href="main_8cpp.html" target="_top" xlink:title="main.cpp">
<polygon fill="#ffffff" stroke="#000000" points="0,-56.5 0,-75.5 56,-75.5 56,-56.5 0,-56.5"/>
<text text-anchor="middle" x="28" y="-63.5" font-family="Helvetica,sans-Serif" font-size="10.00" fill="#000000">main.cpp</text>
</a>
</g>
</g>
<!-- Node11&#45;&gt;Node12 -->
<g id="edge2" class="edge">
<title>Node11&#45;&gt;Node12</title>
<path fill="none" stroke="#191970" d="M121.5476,-108.2473C99.0278,-98.0771 68.9383,-84.4883 49.0382,-75.5011"/>
<polygon fill="#191970" stroke="#191970" points="120.1294,-111.4471 130.6836,-112.3733 123.0105,-105.0675 120.1294,-111.4471"/>
</g>
<!-- Node13 -->
<g id="node4" class="node">
<title>Node13</title>
<g id="a_node4"><a xlink:href="mainwindow_8cpp.html" target="_top" xlink:title="mainwindow.cpp">
<polygon fill="#ffffff" stroke="#000000" points="53.5,-.5 53.5,-19.5 142.5,-19.5 142.5,-.5 53.5,-.5"/>
<text text-anchor="middle" x="98" y="-7.5" font-family="Helvetica,sans-Serif" font-size="10.00" fill="#000000">mainwindow.cpp</text>
</a>
</g>
</g>
<!-- Node11&#45;&gt;Node13 -->
<g id="edge3" class="edge">
<title>Node11&#45;&gt;Node13</title>
<path fill="none" stroke="#191970" d="M128.5203,-106.0926C118.8909,-98.2357 108.687,-87.8854 103,-76 94.1715,-57.5491 95.2028,-32.8482 96.6509,-19.5089"/>
<polygon fill="#191970" stroke="#191970" points="126.6315,-109.0537 136.7066,-112.3313 130.8744,-103.4861 126.6315,-109.0537"/>
</g>
<!-- Node14 -->
<g id="node5" class="node">
<title>Node14</title>
<g id="a_node5"><a xlink:href="searchdialog_8h.html" target="_top" xlink:title="searchdialog.h">
<polygon fill="#ffffff" stroke="#000000" points="112,-56.5 112,-75.5 192,-75.5 192,-56.5 112,-56.5"/>
<text text-anchor="middle" x="152" y="-63.5" font-family="Helvetica,sans-Serif" font-size="10.00" fill="#000000">searchdialog.h</text>
</a>
</g>
</g>
<!-- Node11&#45;&gt;Node14 -->
<g id="edge4" class="edge">
<title>Node11&#45;&gt;Node14</title>
<path fill="none" stroke="#191970" d="M152,-102.1575C152,-93.155 152,-82.9199 152,-75.6427"/>
<polygon fill="#191970" stroke="#191970" points="148.5001,-102.2455 152,-112.2455 155.5001,-102.2456 148.5001,-102.2455"/>
</g>
<!-- Node11&#45;&gt;Node15 -->
<g id="edge7" class="edge">
<title>Node11&#45;&gt;Node15</title>
<path fill="none" stroke="#191970" d="M173.9833,-105.8162C183.5011,-97.798 194.0343,-87.3962 201,-76 212.0689,-57.8907 216.9308,-33.0563 218.866,-19.604"/>
<polygon fill="#191970" stroke="#191970" points="171.6128,-103.2306 165.9959,-112.214 175.9889,-108.6941 171.6128,-103.2306"/>
</g>
<!-- Node14&#45;&gt;Node13 -->
<g id="edge5" class="edge">
<title>Node14&#45;&gt;Node13</title>
<path fill="none" stroke="#191970" d="M135.4031,-48.7884C126.1653,-39.2085 115.0096,-27.6396 107.2983,-19.6427"/>
<polygon fill="#191970" stroke="#191970" points="133.1331,-51.4766 142.5939,-56.2455 138.172,-46.6176 133.1331,-51.4766"/>
</g>
<!-- Node14&#45;&gt;Node15 -->
<g id="edge6" class="edge">
<title>Node14&#45;&gt;Node15</title>
<path fill="none" stroke="#191970" d="M171.8596,-49.645C183.6858,-39.9058 198.2892,-27.8795 208.291,-19.6427"/>
<polygon fill="#191970" stroke="#191970" points="169.339,-47.1867 163.8447,-56.2455 173.789,-52.5902 169.339,-47.1867"/>
</g>
</g>
</svg>
