<?xml version="1.0" encoding="UTF-8" standalone="no"?>
<!DOCTYPE svg PUBLIC "-//W3C//DTD SVG 1.1//EN"
 "http://www.w3.org/Graphics/SVG/1.1/DTD/svg11.dtd">
<!-- Generated by graphviz version 2.40.1 (20161225.0304)
 -->
<!-- Title: search.cpp Pages: 1 -->
<svg width="477pt" height="196pt"
 viewBox="0.00 0.00 476.50 196.00" xmlns="http://www.w3.org/2000/svg" xmlns:xlink="http://www.w3.org/1999/xlink">
<g id="graph0" class="graph" transform="scale(1 1) rotate(0) translate(4 192)">
<title>search.cpp</title>
<polygon fill="#ffffff" stroke="transparent" points="-4,4 -4,-192 472.5,-192 472.5,4 -4,4"/>
<!-- Node0 -->
<g id="node1" class="node">
<title>Node0</title>
<polygon fill="#bfbfbf" stroke="#000000" points="230,-168.5 230,-187.5 295,-187.5 295,-168.5 230,-168.5"/>
<text text-anchor="middle" x="262.5" y="-175.5" font-family="Helvetica,sans-Serif" font-size="10.00" fill="#000000">search.cpp</text>
</g>
<!-- Node1 -->
<g id="node2" class="node">
<title>Node1</title>
<g id="a_node2"><a xlink:href="search_8h.html" target="_top" xlink:title="search.h">
<polygon fill="#ffffff" stroke="#000000" points="186.5,-112.5 186.5,-131.5 240.5,-131.5 240.5,-112.5 186.5,-112.5"/>
<text text-anchor="middle" x="213.5" y="-119.5" font-family="Helvetica,sans-Serif" font-size="10.00" fill="#000000">search.h</text>
</a>
</g>
</g>
<!-- Node0&#45;&gt;Node1 -->
<g id="edge1" class="edge">
<title>Node0&#45;&gt;Node1</title>
<path fill="none" stroke="#191970" d="M253.9649,-168.2455C247.0088,-160.2958 237.0117,-148.8706 228.6949,-139.3656"/>
<polygon fill="#191970" stroke="#191970" points="231.1564,-136.8637 221.9373,-131.6427 225.8884,-141.4732 231.1564,-136.8637"/>
</g>
<!-- Node2 -->
<g id="node3" class="node">
<title>Node2</title>
<g id="a_node3"><a xlink:href="listFiles_8h.html" target="_top" xlink:title="listFiles.h">
<polygon fill="#ffffff" stroke="#000000" points="103,-56.5 103,-75.5 162,-75.5 162,-56.5 103,-56.5"/>
<text text-anchor="middle" x="132.5" y="-63.5" font-family="Helvetica,sans-Serif" font-size="10.00" fill="#000000">listFiles.h</text>
</a>
</g>
</g>
<!-- Node0&#45;&gt;Node2 -->
<g id="edge17" class="edge">
<title>Node0&#45;&gt;Node2</title>
<path fill="none" stroke="#191970" d="M237.8482,-168.4214C219.7474,-160.5456 195.3125,-148.0763 177.5,-132 162.4432,-118.4108 149.9033,-98.8078 141.9186,-84.4974"/>
<polygon fill="#191970" stroke="#191970" points="144.9479,-82.7401 137.1436,-75.5747 138.7761,-86.043 144.9479,-82.7401"/>
</g>
<!-- Node11 -->
<g id="node12" class="node">
<title>Node11</title>
<polygon fill="#ffffff" stroke="#bfbfbf" points="259,-112.5 259,-131.5 366,-131.5 366,-112.5 259,-112.5"/>
<text text-anchor="middle" x="312.5" y="-119.5" font-family="Helvetica,sans-Serif" font-size="10.00" fill="#000000">QRegularExpression</text>
</g>
<!-- Node0&#45;&gt;Node11 -->
<g id="edge18" class="edge">
<title>Node0&#45;&gt;Node11</title>
<path fill="none" stroke="#191970" d="M271.2093,-168.2455C278.3073,-160.2958 288.5084,-148.8706 296.995,-139.3656"/>
<polygon fill="#191970" stroke="#191970" points="299.8411,-141.4331 303.8905,-131.6427 294.6195,-136.771 299.8411,-141.4331"/>
</g>
<!-- Node12 -->
<g id="node13" class="node">
<title>Node12</title>
<polygon fill="#ffffff" stroke="#bfbfbf" points="384,-112.5 384,-131.5 437,-131.5 437,-112.5 384,-112.5"/>
<text text-anchor="middle" x="410.5" y="-119.5" font-family="Helvetica,sans-Serif" font-size="10.00" fill="#000000">QDebug</text>
</g>
<!-- Node0&#45;&gt;Node12 -->
<g id="edge19" class="edge">
<title>Node0&#45;&gt;Node12</title>
<path fill="none" stroke="#191970" d="M287.9421,-168.3733C312.2326,-159.1822 349.0208,-145.2624 375.9543,-135.0713"/>
<polygon fill="#191970" stroke="#191970" points="377.2757,-138.3136 385.3899,-131.5011 374.7984,-131.7666 377.2757,-138.3136"/>
</g>
<!-- Node1&#45;&gt;Node2 -->
<g id="edge2" class="edge">
<title>Node1&#45;&gt;Node2</title>
<path fill="none" stroke="#191970" d="M199.3909,-112.2455C187.0791,-103.7337 169.0042,-91.2375 154.7462,-81.3801"/>
<polygon fill="#191970" stroke="#191970" points="156.6634,-78.4506 146.4474,-75.6427 152.6826,-84.2085 156.6634,-78.4506"/>
</g>
<!-- Node3 -->
<g id="node4" class="node">
<title>Node3</title>
<polygon fill="#ffffff" stroke="#bfbfbf" points="234.5,-.5 234.5,-19.5 272.5,-19.5 272.5,-.5 234.5,-.5"/>
<text text-anchor="middle" x="253.5" y="-7.5" font-family="Helvetica,sans-Serif" font-size="10.00" fill="#000000">QFtp</text>
</g>
<!-- Node1&#45;&gt;Node3 -->
<g id="edge9" class="edge">
<title>Node1&#45;&gt;Node3</title>
<path fill="none" stroke="#191970" d="M240.5695,-113.7609C275.2848,-102.9258 331.7307,-84.2937 337.5,-76 342.576,-68.703 342.0311,-63.6473 337.5,-56 331.1876,-45.3462 303.7816,-31.5166 281.9664,-21.8138"/>
<polygon fill="#191970" stroke="#191970" points="283.3017,-18.578 272.7354,-17.8012 280.5111,-24.9977 283.3017,-18.578"/>
</g>
<!-- Node4 -->
<g id="node5" class="node">
<title>Node4</title>
<polygon fill="#ffffff" stroke="#bfbfbf" points="290.5,-.5 290.5,-19.5 376.5,-19.5 376.5,-.5 290.5,-.5"/>
<text text-anchor="middle" x="333.5" y="-7.5" font-family="Helvetica,sans-Serif" font-size="10.00" fill="#000000">QSharedPointer</text>
</g>
<!-- Node1&#45;&gt;Node4 -->
<g id="edge10" class="edge">
<title>Node1&#45;&gt;Node4</title>
<path fill="none" stroke="#191970" d="M240.7799,-113.8663C280.2872,-101.9599 349.1137,-80.6876 352.5,-76 362.6953,-61.8869 355.0792,-42.4018 346.6531,-28.2641"/>
<polygon fill="#191970" stroke="#191970" points="349.5679,-26.3262 341.1781,-19.856 343.7019,-30.1459 349.5679,-26.3262"/>
</g>
<!-- Node5 -->
<g id="node6" class="node">
<title>Node5</title>
<polygon fill="#ffffff" stroke="#bfbfbf" points="394.5,-.5 394.5,-19.5 468.5,-19.5 468.5,-.5 394.5,-.5"/>
<text text-anchor="middle" x="431.5" y="-7.5" font-family="Helvetica,sans-Serif" font-size="10.00" fill="#000000">QTreeWidget</text>
</g>
<!-- Node1&#45;&gt;Node5 -->
<g id="edge11" class="edge">
<title>Node1&#45;&gt;Node5</title>
<path fill="none" stroke="#191970" d="M240.6803,-114.3262C283.6312,-102.1442 362.9314,-79.4032 368.5,-76 388.8715,-63.5501 407.0929,-42.8829 418.6347,-27.9895"/>
<polygon fill="#191970" stroke="#191970" points="421.7318,-29.6921 424.9174,-19.5875 416.1258,-25.5001 421.7318,-29.6921"/>
</g>
<!-- Node6 -->
<g id="node7" class="node">
<title>Node6</title>
<polygon fill="#ffffff" stroke="#bfbfbf" points="0,-.5 0,-19.5 77,-19.5 77,-.5 0,-.5"/>
<text text-anchor="middle" x="38.5" y="-7.5" font-family="Helvetica,sans-Serif" font-size="10.00" fill="#000000">QHeaderView</text>
</g>
<!-- Node1&#45;&gt;Node6 -->
<g id="edge12" class="edge">
<title>Node1&#45;&gt;Node6</title>
<path fill="none" stroke="#191970" d="M186.4764,-117.2392C158.8814,-111.3125 115.8943,-99.0336 85.5,-76 69.1037,-63.5744 56.102,-43.8055 47.9676,-29.139"/>
<polygon fill="#191970" stroke="#191970" points="50.8873,-27.1716 43.1318,-19.9534 44.6932,-30.4325 50.8873,-27.1716"/>
</g>
<!-- Node7 -->
<g id="node8" class="node">
<title>Node7</title>
<polygon fill="#ffffff" stroke="#bfbfbf" points="96,-.5 96,-19.5 143,-19.5 143,-.5 96,-.5"/>
<text text-anchor="middle" x="119.5" y="-7.5" font-family="Helvetica,sans-Serif" font-size="10.00" fill="#000000">QHash</text>
</g>
<!-- Node1&#45;&gt;Node7 -->
<g id="edge13" class="edge">
<title>Node1&#45;&gt;Node7</title>
<path fill="none" stroke="#191970" d="M186.4516,-115.426C154.5117,-107.0518 104.3402,-91.7648 93.5,-76 83.2142,-61.0415 93.394,-41.4269 103.8813,-27.4778"/>
<polygon fill="#191970" stroke="#191970" points="106.6792,-29.5845 110.2706,-19.6169 101.2472,-25.1694 106.6792,-29.5845"/>
</g>
<!-- Node8 -->
<g id="node9" class="node">
<title>Node8</title>
<polygon fill="#ffffff" stroke="#bfbfbf" points="162.5,-.5 162.5,-19.5 216.5,-19.5 216.5,-.5 162.5,-.5"/>
<text text-anchor="middle" x="189.5" y="-7.5" font-family="Helvetica,sans-Serif" font-size="10.00" fill="#000000">iostream</text>
</g>
<!-- Node1&#45;&gt;Node8 -->
<g id="edge15" class="edge">
<title>Node1&#45;&gt;Node8</title>
<path fill="none" stroke="#191970" d="M211.4538,-112.4509C207.5217,-94.1013 198.8409,-53.5908 193.6506,-29.3693"/>
<polygon fill="#191970" stroke="#191970" points="197.0587,-28.5695 191.541,-19.5249 190.2141,-30.0363 197.0587,-28.5695"/>
</g>
<!-- Node9 -->
<g id="node10" class="node">
<title>Node9</title>
<polygon fill="#ffffff" stroke="#bfbfbf" points="219,-56.5 219,-75.5 256,-75.5 256,-56.5 219,-56.5"/>
<text text-anchor="middle" x="237.5" y="-63.5" font-family="Helvetica,sans-Serif" font-size="10.00" fill="#000000">QDir</text>
</g>
<!-- Node1&#45;&gt;Node9 -->
<g id="edge14" class="edge">
<title>Node1&#45;&gt;Node9</title>
<path fill="none" stroke="#191970" d="M217.6805,-112.2455C220.881,-104.7776 225.396,-94.2427 229.3084,-85.1137"/>
<polygon fill="#191970" stroke="#191970" points="232.6452,-86.2129 233.3674,-75.6427 226.2112,-83.4554 232.6452,-86.2129"/>
</g>
<!-- Node10 -->
<g id="node11" class="node">
<title>Node10</title>
<polygon fill="#ffffff" stroke="#bfbfbf" points="274.5,-56.5 274.5,-75.5 328.5,-75.5 328.5,-56.5 274.5,-56.5"/>
<text text-anchor="middle" x="301.5" y="-63.5" font-family="Helvetica,sans-Serif" font-size="10.00" fill="#000000">QThread</text>
</g>
<!-- Node1&#45;&gt;Node10 -->
<g id="edge16" class="edge">
<title>Node1&#45;&gt;Node10</title>
<path fill="none" stroke="#191970" d="M228.8284,-112.2455C242.3303,-103.6534 262.2122,-91.0014 277.7686,-81.1018"/>
<polygon fill="#191970" stroke="#191970" points="279.7897,-83.9643 286.3472,-75.6427 276.0315,-78.0587 279.7897,-83.9643"/>
</g>
<!-- Node2&#45;&gt;Node3 -->
<g id="edge3" class="edge">
<title>Node2&#45;&gt;Node3</title>
<path fill="none" stroke="#191970" d="M153.3006,-56.3733C173.0774,-47.2204 202.9873,-33.3778 224.9822,-23.1983"/>
<polygon fill="#191970" stroke="#191970" points="226.5631,-26.3234 234.1683,-18.9469 223.623,-19.9707 226.5631,-26.3234"/>
</g>
<!-- Node2&#45;&gt;Node4 -->
<g id="edge4" class="edge">
<title>Node2&#45;&gt;Node4</title>
<path fill="none" stroke="#191970" d="M162.1582,-57.737C195.74,-48.3809 250.7932,-33.0427 289.4107,-22.2836"/>
<polygon fill="#191970" stroke="#191970" points="290.6489,-25.572 299.3426,-19.5165 288.7701,-18.8288 290.6489,-25.572"/>
</g>
<!-- Node2&#45;&gt;Node5 -->
<g id="edge5" class="edge">
<title>Node2&#45;&gt;Node5</title>
<path fill="none" stroke="#191970" d="M162.1646,-60.9453C207.7308,-53.1077 297.9253,-37.3045 384.3883,-20.173"/>
<polygon fill="#191970" stroke="#191970" points="385.2415,-23.5719 394.3657,-18.1868 383.8748,-16.7067 385.2415,-23.5719"/>
</g>
<!-- Node2&#45;&gt;Node6 -->
<g id="edge6" class="edge">
<title>Node2&#45;&gt;Node6</title>
<path fill="none" stroke="#191970" d="M116.1264,-56.2455C101.5692,-47.5731 80.069,-34.7645 63.3848,-24.825"/>
<polygon fill="#191970" stroke="#191970" points="65.0683,-21.7539 54.6859,-19.6427 61.4856,-27.7676 65.0683,-21.7539"/>
</g>
<!-- Node2&#45;&gt;Node7 -->
<g id="edge7" class="edge">
<title>Node2&#45;&gt;Node7</title>
<path fill="none" stroke="#191970" d="M130.2356,-56.2455C128.5206,-48.8579 126.1088,-38.4689 124.0056,-29.4087"/>
<polygon fill="#191970" stroke="#191970" points="127.4092,-28.5922 121.7385,-19.6427 120.5905,-30.1751 127.4092,-28.5922"/>
</g>
<!-- Node2&#45;&gt;Node8 -->
<g id="edge8" class="edge">
<title>Node2&#45;&gt;Node8</title>
<path fill="none" stroke="#191970" d="M142.4286,-56.2455C150.6838,-48.1352 162.6209,-36.4075 172.4082,-26.7919"/>
<polygon fill="#191970" stroke="#191970" points="175.0046,-29.1476 179.6851,-19.6427 170.0989,-24.1542 175.0046,-29.1476"/>
</g>
</g>
</svg>
