<?xml version="1.0" encoding="UTF-8" standalone="no"?>
<!DOCTYPE svg PUBLIC "-//W3C//DTD SVG 1.1//EN"
 "http://www.w3.org/Graphics/SVG/1.1/DTD/svg11.dtd">
<!-- Generated by graphviz version 2.40.1 (20161225.0304)
 -->
<!-- Title: searchdialog.h Pages: 1 -->
<!--zoomable 252 -->
<svg id="main" version="1.1" xmlns="http://www.w3.org/2000/svg" xmlns:xlink="http://www.w3.org/1999/xlink" xml:space="preserve" onload="init(evt)">
<style type="text/css"><![CDATA[
.edge:hover path { stroke: red; }
.edge:hover polygon { stroke: red; fill: red; }
]]></style>
<script type="text/javascript"><![CDATA[
var edges = document.getElementsByTagName('g');
if (edges && edges.length) {
  for (var i=0;i<edges.length;i++) {
    if (edges[i].id.substr(0,4)=='edge') {
      edges[i].setAttribute('class','edge');
    }
  }
}
]]></script>
        <defs>
                <circle id="rim" cx="0" cy="0" r="7"/>
                <circle id="rim2" cx="0" cy="0" r="3.5"/>
                <g id="zoomPlus">
                        <use xlink:href="#rim" fill="#404040">
                                <set attributeName="fill" to="#808080" begin="zoomplus.mouseover" end="zoomplus.mouseout"/>
                        </use>
                        <path d="M-4,0h8M0,-4v8" fill="none" stroke="white" stroke-width="1.5" pointer-events="none"/>
                </g>
                <g id="zoomMin">
                        <use xlink:href="#rim" fill="#404040">
                                <set attributeName="fill" to="#808080" begin="zoomminus.mouseover" end="zoomminus.mouseout"/>
                        </use>
                        <path d="M-4,0h8" fill="none" stroke="white" stroke-width="1.5" pointer-events="none"/>
                </g>
                <g id="dirArrow">
                        <path fill="none" stroke="white" stroke-width="1.5" d="M0,-3.0v7 M-2.5,-0.5L0,-3.0L2.5,-0.5"/>
                </g>
               <g id="resetDef">
                       <use xlink:href="#rim2" fill="#404040">
                               <set attributeName="fill" to="#808080" begin="reset.mouseover" end="reset.mouseout"/>
                       </use>
               </g>
        </defs>

<script type="text/javascript">
var viewWidth = 1731;
var viewHeight = 252;
var sectionId = 'dynsection-0';
</script>
<script xlink:href="svgpan.js"/>
<svg id="graph" class="graph">
<g id="viewport">
<title>searchdialog.h</title>
<polygon fill="#ffffff" stroke="transparent" points="-4,4 -4,-248 1726.814,-248 1726.814,4 -4,4"/>
<!-- Node0 -->
<g id="node1" class="node">
<title>Node0</title>
<polygon fill="#bfbfbf" stroke="#000000" points="954.5,-224.5 954.5,-243.5 1034.5,-243.5 1034.5,-224.5 954.5,-224.5"/>
<text text-anchor="middle" x="994.5" y="-231.5" font-family="Helvetica,sans-Serif" font-size="10.00" fill="#000000">searchdialog.h</text>
</g>
<!-- Node1 -->
<g id="node2" class="node">
<title>Node1</title>
<g id="a_node2"><a xlink:href="listFiles_8h.html" target="_top" xlink:title="listFiles.h">
<polygon fill="#ffffff" stroke="#000000" points="605,-56.5 605,-75.5 664,-75.5 664,-56.5 605,-56.5"/>
<text text-anchor="middle" x="634.5" y="-63.5" font-family="Helvetica,sans-Serif" font-size="10.00" fill="#000000">listFiles.h</text>
</a>
</g>
</g>
<!-- Node0&#45;&gt;Node1 -->
<g id="edge1" class="edge">
<title>Node0&#45;&gt;Node1</title>
<path fill="none" stroke="#191970" d="M954.3907,-227.1539C873.2764,-212.5263 693.8561,-175.9509 651.5,-132 639.7227,-119.7793 635.8062,-100.5332 634.6389,-85.971"/>
<polygon fill="#191970" stroke="#191970" points="638.1339,-85.7785 634.1976,-75.9421 631.1407,-86.0863 638.1339,-85.7785"/>
</g>
<!-- Node8 -->
<g id="node9" class="node">
<title>Node8</title>
<g id="a_node9"><a xlink:href="mainwindow_8h.html" target="_top" xlink:title="mainwindow.h">
<polygon fill="#ffffff" stroke="#000000" points="955,-168.5 955,-187.5 1034,-187.5 1034,-168.5 955,-168.5"/>
<text text-anchor="middle" x="994.5" y="-175.5" font-family="Helvetica,sans-Serif" font-size="10.00" fill="#000000">mainwindow.h</text>
</a>
</g>
</g>
<!-- Node0&#45;&gt;Node8 -->
<g id="edge8" class="edge">
<title>Node0&#45;&gt;Node8</title>
<path fill="none" stroke="#191970" d="M994.5,-224.2455C994.5,-216.9382 994.5,-206.6944 994.5,-197.7046"/>
<polygon fill="#191970" stroke="#191970" points="998.0001,-197.6426 994.5,-187.6427 991.0001,-197.6427 998.0001,-197.6426"/>
</g>
<!-- Node16 -->
<g id="node17" class="node">
<title>Node16</title>
<polygon fill="#ffffff" stroke="#bfbfbf" points="1613.5,-.5 1613.5,-19.5 1665.5,-19.5 1665.5,-.5 1613.5,-.5"/>
<text text-anchor="middle" x="1639.5" y="-7.5" font-family="Helvetica,sans-Serif" font-size="10.00" fill="#000000">QDialog</text>
</g>
<!-- Node0&#45;&gt;Node16 -->
<g id="edge64" class="edge">
<title>Node0&#45;&gt;Node16</title>
<path fill="none" stroke="#191970" d="M1034.5947,-231.3374C1179.2996,-221.327 1668.4806,-183.8567 1713.5,-132 1743.1887,-97.8023 1692.7386,-50.232 1661.4659,-25.8275"/>
<polygon fill="#191970" stroke="#191970" points="1663.3199,-22.8409 1653.2365,-19.5888 1659.091,-28.4192 1663.3199,-22.8409"/>
</g>
<!-- Node2 -->
<g id="node3" class="node">
<title>Node2</title>
<polygon fill="#ffffff" stroke="#bfbfbf" points="463.5,-.5 463.5,-19.5 501.5,-19.5 501.5,-.5 463.5,-.5"/>
<text text-anchor="middle" x="482.5" y="-7.5" font-family="Helvetica,sans-Serif" font-size="10.00" fill="#000000">QFtp</text>
</g>
<!-- Node1&#45;&gt;Node2 -->
<g id="edge2" class="edge">
<title>Node1&#45;&gt;Node2</title>
<path fill="none" stroke="#191970" d="M608.3703,-56.3733C581.3065,-46.4024 539.1368,-30.8662 511.1709,-20.563"/>
<polygon fill="#191970" stroke="#191970" points="512.158,-17.1967 501.5646,-17.0238 509.738,-23.7651 512.158,-17.1967"/>
</g>
<!-- Node3 -->
<g id="node4" class="node">
<title>Node3</title>
<polygon fill="#ffffff" stroke="#bfbfbf" points="590.5,-.5 590.5,-19.5 676.5,-19.5 676.5,-.5 590.5,-.5"/>
<text text-anchor="middle" x="633.5" y="-7.5" font-family="Helvetica,sans-Serif" font-size="10.00" fill="#000000">QSharedPointer</text>
</g>
<!-- Node1&#45;&gt;Node3 -->
<g id="edge3" class="edge">
<title>Node1&#45;&gt;Node3</title>
<path fill="none" stroke="#191970" d="M634.3258,-56.2455C634.1953,-48.9382 634.0124,-38.6944 633.8519,-29.7046"/>
<polygon fill="#191970" stroke="#191970" points="637.3503,-29.5786 633.6722,-19.6427 630.3514,-29.7036 637.3503,-29.5786"/>
</g>
<!-- Node4 -->
<g id="node5" class="node">
<title>Node4</title>
<polygon fill="#ffffff" stroke="#bfbfbf" points="694.5,-.5 694.5,-19.5 768.5,-19.5 768.5,-.5 694.5,-.5"/>
<text text-anchor="middle" x="731.5" y="-7.5" font-family="Helvetica,sans-Serif" font-size="10.00" fill="#000000">QTreeWidget</text>
</g>
<!-- Node1&#45;&gt;Node4 -->
<g id="edge4" class="edge">
<title>Node1&#45;&gt;Node4</title>
<path fill="none" stroke="#191970" d="M651.3961,-56.2455C666.418,-47.5731 688.6043,-34.7645 705.821,-24.825"/>
<polygon fill="#191970" stroke="#191970" points="707.8871,-27.6737 714.7975,-19.6427 704.3872,-21.6114 707.8871,-27.6737"/>
</g>
<!-- Node5 -->
<g id="node6" class="node">
<title>Node5</title>
<polygon fill="#ffffff" stroke="#bfbfbf" points="787,-.5 787,-19.5 864,-19.5 864,-.5 787,-.5"/>
<text text-anchor="middle" x="825.5" y="-7.5" font-family="Helvetica,sans-Serif" font-size="10.00" fill="#000000">QHeaderView</text>
</g>
<!-- Node1&#45;&gt;Node5 -->
<g id="edge5" class="edge">
<title>Node1&#45;&gt;Node5</title>
<path fill="none" stroke="#191970" d="M664.3438,-57.25C696.2794,-47.8867 747.2008,-32.9568 783.247,-22.3883"/>
<polygon fill="#191970" stroke="#191970" points="784.38,-25.7035 792.9913,-19.5314 782.4105,-18.9863 784.38,-25.7035"/>
</g>
<!-- Node6 -->
<g id="node7" class="node">
<title>Node6</title>
<polygon fill="#ffffff" stroke="#bfbfbf" points="520,-.5 520,-19.5 567,-19.5 567,-.5 520,-.5"/>
<text text-anchor="middle" x="543.5" y="-7.5" font-family="Helvetica,sans-Serif" font-size="10.00" fill="#000000">QHash</text>
</g>
<!-- Node1&#45;&gt;Node6 -->
<g id="edge6" class="edge">
<title>Node1&#45;&gt;Node6</title>
<path fill="none" stroke="#191970" d="M618.649,-56.2455C604.6868,-47.6534 584.1272,-35.0014 568.0404,-25.1018"/>
<polygon fill="#191970" stroke="#191970" points="569.5203,-21.9029 559.1693,-19.6427 565.8516,-27.8645 569.5203,-21.9029"/>
</g>
<!-- Node7 -->
<g id="node8" class="node">
<title>Node7</title>
<polygon fill="#ffffff" stroke="#bfbfbf" points="942.5,-.5 942.5,-19.5 996.5,-19.5 996.5,-.5 942.5,-.5"/>
<text text-anchor="middle" x="969.5" y="-7.5" font-family="Helvetica,sans-Serif" font-size="10.00" fill="#000000">iostream</text>
</g>
<!-- Node1&#45;&gt;Node7 -->
<g id="edge7" class="edge">
<title>Node1&#45;&gt;Node7</title>
<path fill="none" stroke="#191970" d="M664.229,-61.0304C725.3327,-50.816 864.9198,-27.4821 932.0652,-16.2578"/>
<polygon fill="#191970" stroke="#191970" points="932.9105,-19.6651 942.1965,-14.5642 931.7563,-12.7609 932.9105,-19.6651"/>
</g>
<!-- Node8&#45;&gt;Node1 -->
<g id="edge34" class="edge">
<title>Node8&#45;&gt;Node1</title>
<path fill="none" stroke="#191970" d="M954.8446,-176.4108C879.8765,-172.7466 720.8105,-161.6258 675.5,-132 658.6212,-120.964 647.4738,-100.3092 641.12,-85.0338"/>
<polygon fill="#191970" stroke="#191970" points="644.3162,-83.5927 637.4755,-75.5022 637.7778,-86.0927 644.3162,-83.5927"/>
</g>
<!-- Node8&#45;&gt;Node2 -->
<g id="edge54" class="edge">
<title>Node8&#45;&gt;Node2</title>
<path fill="none" stroke="#191970" d="M954.6096,-176.4843C835.9925,-171.7237 490.9393,-155.9486 446.5,-132 412.1414,-113.4839 382.9551,-89.7839 402.5,-56 413.4662,-37.0446 435.5289,-25.2171 453.7121,-18.3098"/>
<polygon fill="#191970" stroke="#191970" points="455.0267,-21.5582 463.3197,-14.9645 452.7249,-14.9475 455.0267,-21.5582"/>
</g>
<!-- Node8&#45;&gt;Node4 -->
<g id="edge56" class="edge">
<title>Node8&#45;&gt;Node4</title>
<path fill="none" stroke="#191970" d="M1000.4444,-168.3906C1013.5691,-145.8201 1041.7048,-88.8545 1013.5,-56 979.087,-15.9138 830.4701,-29.5013 778.5,-20 778.4,-19.9817 778.2999,-19.9634 778.1996,-19.945"/>
<polygon fill="#191970" stroke="#191970" points="779.1418,-16.562 768.6611,-18.1132 777.8215,-23.4364 779.1418,-16.562"/>
</g>
<!-- Node8&#45;&gt;Node5 -->
<g id="edge62" class="edge">
<title>Node8&#45;&gt;Node5</title>
<path fill="none" stroke="#191970" d="M1011.5567,-168.377C1023.8089,-160.4014 1039.3708,-147.8248 1046.5,-132 1060.3741,-101.2031 1067.8124,-82.2053 1046.5,-56 1035.6666,-42.6795 936.1034,-26.0402 874.3665,-16.8679"/>
<polygon fill="#191970" stroke="#191970" points="874.832,-13.3988 864.4293,-15.4073 873.814,-20.3244 874.832,-13.3988"/>
</g>
<!-- Node8&#45;&gt;Node6 -->
<g id="edge55" class="edge">
<title>Node8&#45;&gt;Node6</title>
<path fill="none" stroke="#191970" d="M954.8652,-176.3479C880.5051,-172.6458 715.3196,-161.5607 579.5,-132 501.7704,-115.0824 456.1273,-140.4515 409.5,-76 404.2898,-68.7982 404.3348,-63.2342 409.5,-56 412.5586,-51.7162 471.4555,-32.5893 510.1385,-20.388"/>
<polygon fill="#191970" stroke="#191970" points="511.4796,-23.6354 519.9703,-17.2984 509.381,-16.9573 511.4796,-23.6354"/>
</g>
<!-- Node8&#45;&gt;Node7 -->
<g id="edge46" class="edge">
<title>Node8&#45;&gt;Node7</title>
<path fill="none" stroke="#191970" d="M1033.477,-168.3933C1052.3619,-161.5635 1073.3258,-150.2604 1084.5,-132 1102.1307,-103.1886 1103.4368,-83.9703 1084.5,-56 1067.259,-30.5344 1033.3906,-19.1654 1006.8535,-14.0904"/>
<polygon fill="#191970" stroke="#191970" points="1007.172,-10.5948 996.7293,-12.3839 1006.0084,-17.4974 1007.172,-10.5948"/>
</g>
<!-- Node9 -->
<g id="node10" class="node">
<title>Node9</title>
<g id="a_node10"><a xlink:href="serverconnection_8h.html" target="_top" xlink:title="serverconnection.h">
<polygon fill="#ffffff" stroke="#000000" points="867,-112.5 867,-131.5 966,-131.5 966,-112.5 867,-112.5"/>
<text text-anchor="middle" x="916.5" y="-119.5" font-family="Helvetica,sans-Serif" font-size="10.00" fill="#000000">serverconnection.h</text>
</a>
</g>
</g>
<!-- Node8&#45;&gt;Node9 -->
<g id="edge9" class="edge">
<title>Node8&#45;&gt;Node9</title>
<path fill="none" stroke="#191970" d="M980.9134,-168.2455C969.1695,-159.814 951.9801,-147.4729 938.3118,-137.6598"/>
<polygon fill="#191970" stroke="#191970" points="940.0954,-134.6316 929.9309,-131.6427 936.0129,-140.3179 940.0954,-134.6316"/>
</g>
<!-- Node11 -->
<g id="node12" class="node">
<title>Node11</title>
<polygon fill="#ffffff" stroke="#bfbfbf" points="69.5,-.5 69.5,-19.5 119.5,-19.5 119.5,-.5 69.5,-.5"/>
<text text-anchor="middle" x="94.5" y="-7.5" font-family="Helvetica,sans-Serif" font-size="10.00" fill="#000000">QString</text>
</g>
<!-- Node8&#45;&gt;Node11 -->
<g id="edge63" class="edge">
<title>Node8&#45;&gt;Node11</title>
<path fill="none" stroke="#191970" d="M954.9875,-177.8252C796.5021,-176.8611 211.9461,-170.6905 139.5,-132 112.0573,-117.344 108.0059,-105.2836 97.5,-76 92.1741,-61.155 91.7039,-43.2167 92.4098,-29.7905"/>
<polygon fill="#191970" stroke="#191970" points="95.9053,-29.984 93.1986,-19.7407 88.9268,-29.4362 95.9053,-29.984"/>
</g>
<!-- Node12 -->
<g id="node13" class="node">
<title>Node12</title>
<polygon fill="#ffffff" stroke="#bfbfbf" points="138,-.5 138,-19.5 219,-19.5 219,-.5 138,-.5"/>
<text text-anchor="middle" x="178.5" y="-7.5" font-family="Helvetica,sans-Serif" font-size="10.00" fill="#000000">QMessageBox</text>
</g>
<!-- Node8&#45;&gt;Node12 -->
<g id="edge53" class="edge">
<title>Node8&#45;&gt;Node12</title>
<path fill="none" stroke="#191970" d="M954.7796,-177.5706C817.7803,-175.7866 365.7376,-167.3012 225.5,-132 168.0347,-117.5346 136.4111,-125.9318 104.5,-76 90.7723,-54.5201 117.6864,-35.8066 142.8174,-23.8462"/>
<polygon fill="#191970" stroke="#191970" points="144.5839,-26.8897 152.2734,-19.6012 141.7171,-20.5037 144.5839,-26.8897"/>
</g>
<!-- Node14 -->
<g id="node15" class="node">
<title>Node14</title>
<polygon fill="#ffffff" stroke="#bfbfbf" points="0,-.5 0,-19.5 51,-19.5 51,-.5 0,-.5"/>
<text text-anchor="middle" x="25.5" y="-7.5" font-family="Helvetica,sans-Serif" font-size="10.00" fill="#000000">QMutex</text>
</g>
<!-- Node8&#45;&gt;Node14 -->
<g id="edge61" class="edge">
<title>Node8&#45;&gt;Node14</title>
<path fill="none" stroke="#191970" d="M954.9679,-176.9094C788.0569,-172.1816 147.8627,-152.7587 110.5,-132 69.4812,-109.21 43.858,-57.2729 32.448,-29.0722"/>
<polygon fill="#191970" stroke="#191970" points="35.6339,-27.606 28.7685,-19.5365 29.1032,-30.1261 35.6339,-27.606"/>
</g>
<!-- Node15 -->
<g id="node16" class="node">
<title>Node15</title>
<g id="a_node16"><a xlink:href="inputDialog_8h.html" target="_top" xlink:title="inputDialog.h">
<polygon fill="#ffffff" stroke="#000000" points="1222.5,-56.5 1222.5,-75.5 1296.5,-75.5 1296.5,-56.5 1222.5,-56.5"/>
<text text-anchor="middle" x="1259.5" y="-63.5" font-family="Helvetica,sans-Serif" font-size="10.00" fill="#000000">inputDialog.h</text>
</a>
</g>
</g>
<!-- Node8&#45;&gt;Node15 -->
<g id="edge45" class="edge">
<title>Node8&#45;&gt;Node15</title>
<path fill="none" stroke="#191970" d="M1034.3632,-176.8828C1179.816,-172.616 1674.6888,-156.3526 1697.5,-132 1703.5767,-125.5127 1703.4481,-118.6055 1697.5,-112 1671.7212,-83.3721 1415.0681,-71.3096 1307.0345,-67.4729"/>
<polygon fill="#191970" stroke="#191970" points="1306.8657,-63.965 1296.7505,-67.1167 1306.6233,-70.9608 1306.8657,-63.965"/>
</g>
<!-- Node21 -->
<g id="node22" class="node">
<title>Node21</title>
<polygon fill="#ffffff" stroke="#bfbfbf" points="1073,-.5 1073,-19.5 1126,-19.5 1126,-.5 1073,-.5"/>
<text text-anchor="middle" x="1099.5" y="-7.5" font-family="Helvetica,sans-Serif" font-size="10.00" fill="#000000">QDebug</text>
</g>
<!-- Node8&#45;&gt;Node21 -->
<g id="edge48" class="edge">
<title>Node8&#45;&gt;Node21</title>
<path fill="none" stroke="#191970" d="M1034.0385,-172.1112C1058.1475,-166.2744 1087.1814,-154.7311 1102.5,-132 1123.3242,-101.0993 1114.1195,-55.0747 1106.3176,-29.2915"/>
<polygon fill="#191970" stroke="#191970" points="1109.5798,-28.0057 1103.1515,-19.5839 1102.9248,-30.1763 1109.5798,-28.0057"/>
</g>
<!-- Node22 -->
<g id="node23" class="node">
<title>Node22</title>
<polygon fill="#ffffff" stroke="#bfbfbf" points="967,-56.5 967,-75.5 1004,-75.5 1004,-56.5 967,-56.5"/>
<text text-anchor="middle" x="985.5" y="-63.5" font-family="Helvetica,sans-Serif" font-size="10.00" fill="#000000">QUrl</text>
</g>
<!-- Node8&#45;&gt;Node22 -->
<g id="edge60" class="edge">
<title>Node8&#45;&gt;Node22</title>
<path fill="none" stroke="#191970" d="M993.7327,-168.4509C992.2648,-150.184 989.0321,-109.9553 987.0828,-85.6976"/>
<polygon fill="#191970" stroke="#191970" points="990.5552,-85.2124 986.2654,-75.5249 983.5777,-85.7731 990.5552,-85.2124"/>
</g>
<!-- Node23 -->
<g id="node24" class="node">
<title>Node23</title>
<g id="a_node24"><a xlink:href="loader_8h.html" target="_top" xlink:title="loader.h">
<polygon fill="#ffffff" stroke="#000000" points="235,-112.5 235,-131.5 286,-131.5 286,-112.5 235,-112.5"/>
<text text-anchor="middle" x="260.5" y="-119.5" font-family="Helvetica,sans-Serif" font-size="10.00" fill="#000000">loader.h</text>
</a>
</g>
</g>
<!-- Node8&#45;&gt;Node23 -->
<g id="edge27" class="edge">
<title>Node8&#45;&gt;Node23</title>
<path fill="none" stroke="#191970" d="M954.8963,-176.3085C827.344,-170.7137 428.1424,-152.0207 300.5,-132 299.0415,-131.7712 297.5583,-131.5144 296.064,-131.2355"/>
<polygon fill="#191970" stroke="#191970" points="296.6906,-127.7907 286.1819,-129.1389 295.2378,-134.6382 296.6906,-127.7907"/>
</g>
<!-- Node25 -->
<g id="node26" class="node">
<title>Node25</title>
<polygon fill="#ffffff" stroke="#bfbfbf" points="418.5,-56.5 418.5,-75.5 472.5,-75.5 472.5,-56.5 418.5,-56.5"/>
<text text-anchor="middle" x="445.5" y="-63.5" font-family="Helvetica,sans-Serif" font-size="10.00" fill="#000000">QThread</text>
</g>
<!-- Node8&#45;&gt;Node25 -->
<g id="edge59" class="edge">
<title>Node8&#45;&gt;Node25</title>
<path fill="none" stroke="#191970" d="M954.745,-174.9654C890.4174,-169.5433 759.7846,-156.4062 651.5,-132 589.9021,-118.1165 520.356,-93.9998 479.8734,-79.0808"/>
<polygon fill="#191970" stroke="#191970" points="481.0661,-75.7902 470.4732,-75.5889 478.6286,-82.3521 481.0661,-75.7902"/>
</g>
<!-- Node26 -->
<g id="node27" class="node">
<title>Node26</title>
<g id="a_node27"><a xlink:href="search_8h.html" target="_top" xlink:title="search.h">
<polygon fill="#ffffff" stroke="#000000" points="684.5,-112.5 684.5,-131.5 738.5,-131.5 738.5,-112.5 684.5,-112.5"/>
<text text-anchor="middle" x="711.5" y="-119.5" font-family="Helvetica,sans-Serif" font-size="10.00" fill="#000000">search.h</text>
</a>
</g>
</g>
<!-- Node8&#45;&gt;Node26 -->
<g id="edge35" class="edge">
<title>Node8&#45;&gt;Node26</title>
<path fill="none" stroke="#191970" d="M954.8521,-170.1545C900.0888,-159.3179 802.0268,-139.9134 748.6291,-129.3471"/>
<polygon fill="#191970" stroke="#191970" points="749.0603,-125.8646 738.5711,-127.3568 747.7015,-132.7315 749.0603,-125.8646"/>
</g>
<!-- Node27 -->
<g id="node28" class="node">
<title>Node27</title>
<polygon fill="#ffffff" stroke="#bfbfbf" points="835,-56.5 835,-75.5 872,-75.5 872,-56.5 835,-56.5"/>
<text text-anchor="middle" x="853.5" y="-63.5" font-family="Helvetica,sans-Serif" font-size="10.00" fill="#000000">QDir</text>
</g>
<!-- Node8&#45;&gt;Node27 -->
<g id="edge57" class="edge">
<title>Node8&#45;&gt;Node27</title>
<path fill="none" stroke="#191970" d="M954.9374,-169.6966C919.2403,-161.3431 870.5366,-147.5049 858.5,-132 848.4917,-119.1078 848.0497,-100.2053 849.6398,-85.9301"/>
<polygon fill="#191970" stroke="#191970" points="853.1558,-86.0909 851.2067,-75.6769 846.2361,-85.0333 853.1558,-86.0909"/>
</g>
<!-- Node28 -->
<g id="node29" class="node">
<title>Node28</title>
<polygon fill="#ffffff" stroke="#bfbfbf" points="1174.5,-112.5 1174.5,-131.5 1254.5,-131.5 1254.5,-112.5 1174.5,-112.5"/>
<text text-anchor="middle" x="1214.5" y="-119.5" font-family="Helvetica,sans-Serif" font-size="10.00" fill="#000000">QMainWindow</text>
</g>
<!-- Node8&#45;&gt;Node28 -->
<g id="edge47" class="edge">
<title>Node8&#45;&gt;Node28</title>
<path fill="none" stroke="#191970" d="M1032.3193,-168.3733C1069.6938,-158.8598 1126.9724,-144.2797 1167.3071,-134.0127"/>
<polygon fill="#191970" stroke="#191970" points="1168.3466,-137.3598 1177.1742,-131.5011 1166.6198,-130.5761 1168.3466,-137.3598"/>
</g>
<!-- Node29 -->
<g id="node30" class="node">
<title>Node29</title>
<polygon fill="#ffffff" stroke="#bfbfbf" points="1272.5,-112.5 1272.5,-131.5 1312.5,-131.5 1312.5,-112.5 1272.5,-112.5"/>
<text text-anchor="middle" x="1292.5" y="-119.5" font-family="Helvetica,sans-Serif" font-size="10.00" fill="#000000">QFile</text>
</g>
<!-- Node8&#45;&gt;Node29 -->
<g id="edge49" class="edge">
<title>Node8&#45;&gt;Node29</title>
<path fill="none" stroke="#191970" d="M1034.1256,-173.2767C1085.0584,-166.7574 1176.2823,-153.5686 1262.6553,-131.8926"/>
<polygon fill="#191970" stroke="#191970" points="1263.5224,-135.2836 1272.3461,-129.419 1261.7911,-128.501 1263.5224,-135.2836"/>
</g>
<!-- Node30 -->
<g id="node31" class="node">
<title>Node30</title>
<polygon fill="#ffffff" stroke="#bfbfbf" points="1330.5,-112.5 1330.5,-131.5 1386.5,-131.5 1386.5,-112.5 1330.5,-112.5"/>
<text text-anchor="middle" x="1358.5" y="-119.5" font-family="Helvetica,sans-Serif" font-size="10.00" fill="#000000">QFileInfo</text>
</g>
<!-- Node8&#45;&gt;Node30 -->
<g id="edge50" class="edge">
<title>Node8&#45;&gt;Node30</title>
<path fill="none" stroke="#191970" d="M1034.0315,-174.043C1093.9747,-167.6938 1211.5661,-153.8752 1320.4697,-132.0094"/>
<polygon fill="#191970" stroke="#191970" points="1321.2036,-135.4319 1330.3046,-130.0076 1319.8074,-128.5726 1321.2036,-135.4319"/>
</g>
<!-- Node31 -->
<g id="node32" class="node">
<title>Node31</title>
<polygon fill="#ffffff" stroke="#bfbfbf" points="1404.5,-112.5 1404.5,-131.5 1472.5,-131.5 1472.5,-112.5 1404.5,-112.5"/>
<text text-anchor="middle" x="1438.5" y="-119.5" font-family="Helvetica,sans-Serif" font-size="10.00" fill="#000000">QFileDialog</text>
</g>
<!-- Node8&#45;&gt;Node31 -->
<g id="edge51" class="edge">
<title>Node8&#45;&gt;Node31</title>
<path fill="none" stroke="#191970" d="M1034.2717,-174.9543C1104.8583,-169.2204 1256.7957,-155.4009 1394.4214,-132.0237"/>
<polygon fill="#191970" stroke="#191970" points="1395.0423,-135.4684 1404.3044,-130.324 1393.8558,-128.5696 1395.0423,-135.4684"/>
</g>
<!-- Node32 -->
<g id="node33" class="node">
<title>Node32</title>
<polygon fill="#ffffff" stroke="#bfbfbf" points="1490.5,-112.5 1490.5,-131.5 1580.5,-131.5 1580.5,-112.5 1490.5,-112.5"/>
<text text-anchor="middle" x="1535.5" y="-119.5" font-family="Helvetica,sans-Serif" font-size="10.00" fill="#000000">QListWidgetItem</text>
</g>
<!-- Node8&#45;&gt;Node32 -->
<g id="edge52" class="edge">
<title>Node8&#45;&gt;Node32</title>
<path fill="none" stroke="#191970" d="M1034.092,-175.4592C1115.6551,-169.9667 1308.4849,-155.6509 1480.4757,-132.0349"/>
<polygon fill="#191970" stroke="#191970" points="1481.0433,-135.4897 1490.4676,-130.649 1480.0815,-128.5561 1481.0433,-135.4897"/>
</g>
<!-- Node33 -->
<g id="node34" class="node">
<title>Node33</title>
<polygon fill="#ffffff" stroke="#bfbfbf" points="1599,-112.5 1599,-131.5 1688,-131.5 1688,-112.5 1599,-112.5"/>
<text text-anchor="middle" x="1643.5" y="-119.5" font-family="Helvetica,sans-Serif" font-size="10.00" fill="#000000">QStandardPaths</text>
</g>
<!-- Node8&#45;&gt;Node33 -->
<g id="edge58" class="edge">
<title>Node8&#45;&gt;Node33</title>
<path fill="none" stroke="#191970" d="M1034.3407,-176.3798C1128.7564,-172.2278 1373.6576,-159.6278 1588.5588,-131.9885"/>
<polygon fill="#191970" stroke="#191970" points="1589.3036,-135.4212 1598.7688,-130.6609 1588.401,-128.4796 1589.3036,-135.4212"/>
</g>
<!-- Node9&#45;&gt;Node2 -->
<g id="edge23" class="edge">
<title>Node9&#45;&gt;Node2</title>
<path fill="none" stroke="#191970" d="M866.8103,-117.3339C789.5466,-109.6661 644.3996,-93.4958 595.5,-76 579.3524,-70.2225 577.268,-64.7194 562.5,-56 544.563,-45.4096 524.2106,-33.7113 508.5229,-24.7621"/>
<polygon fill="#191970" stroke="#191970" points="509.843,-21.4862 499.4211,-19.5797 506.3794,-27.5693 509.843,-21.4862"/>
</g>
<!-- Node9&#45;&gt;Node3 -->
<g id="edge24" class="edge">
<title>Node9&#45;&gt;Node3</title>
<path fill="none" stroke="#191970" d="M914.1899,-112.1415C910.1975,-97.4251 900.5397,-69.953 881.5,-56 812.5726,-5.4876 775.2235,-34.1679 686.5288,-20.0424"/>
<polygon fill="#191970" stroke="#191970" points="687.0765,-16.5852 676.6249,-18.3219 685.8783,-23.4819 687.0765,-16.5852"/>
</g>
<!-- Node10 -->
<g id="node11" class="node">
<title>Node10</title>
<g id="a_node11"><a xlink:href="logger_8h.html" target="_top" xlink:title="logger.h">
<polygon fill="#ffffff" stroke="#000000" points="197,-56.5 197,-75.5 248,-75.5 248,-56.5 197,-56.5"/>
<text text-anchor="middle" x="222.5" y="-63.5" font-family="Helvetica,sans-Serif" font-size="10.00" fill="#000000">logger.h</text>
</a>
</g>
</g>
<!-- Node9&#45;&gt;Node10 -->
<g id="edge10" class="edge">
<title>Node9&#45;&gt;Node10</title>
<path fill="none" stroke="#191970" d="M866.8677,-117.9951C734.1964,-107.2896 373.6119,-78.1935 258.4023,-68.897"/>
<polygon fill="#191970" stroke="#191970" points="258.5932,-65.4011 248.3441,-68.0854 258.0301,-72.3785 258.5932,-65.4011"/>
</g>
<!-- Node9&#45;&gt;Node15 -->
<g id="edge15" class="edge">
<title>Node9&#45;&gt;Node15</title>
<path fill="none" stroke="#191970" d="M966.0088,-113.9169C1031.8706,-103.164 1147.4999,-84.2857 1212.2174,-73.7196"/>
<polygon fill="#191970" stroke="#191970" points="1212.8462,-77.1634 1222.1516,-72.0977 1211.7182,-70.2548 1212.8462,-77.1634"/>
</g>
<!-- Node9&#45;&gt;Node21 -->
<g id="edge26" class="edge">
<title>Node9&#45;&gt;Node21</title>
<path fill="none" stroke="#191970" d="M920.1032,-112.4415C925.98,-98.117 938.9681,-71.1498 958.5,-56 988.9853,-32.3544 1032.0866,-20.6299 1062.5927,-14.972"/>
<polygon fill="#191970" stroke="#191970" points="1063.5542,-18.3582 1072.8165,-13.2142 1062.368,-11.4594 1063.5542,-18.3582"/>
</g>
<!-- Node9&#45;&gt;Node22 -->
<g id="edge25" class="edge">
<title>Node9&#45;&gt;Node22</title>
<path fill="none" stroke="#191970" d="M928.5189,-112.2455C938.7098,-103.9746 953.5362,-91.9416 965.5107,-82.2232"/>
<polygon fill="#191970" stroke="#191970" points="968.0598,-84.662 973.6188,-75.6427 963.6486,-79.2268 968.0598,-84.662"/>
</g>
<!-- Node10&#45;&gt;Node11 -->
<g id="edge11" class="edge">
<title>Node10&#45;&gt;Node11</title>
<path fill="none" stroke="#191970" d="M200.496,-56.3733C179.8565,-47.3435 148.7842,-33.7494 125.6111,-23.6111"/>
<polygon fill="#191970" stroke="#191970" points="126.7813,-20.3028 116.2169,-19.5011 123.9755,-26.7159 126.7813,-20.3028"/>
</g>
<!-- Node10&#45;&gt;Node12 -->
<g id="edge12" class="edge">
<title>Node10&#45;&gt;Node12</title>
<path fill="none" stroke="#191970" d="M214.8358,-56.2455C208.6527,-48.3761 199.7937,-37.101 192.3711,-27.6542"/>
<polygon fill="#191970" stroke="#191970" points="195.0068,-25.3435 186.0764,-19.6427 189.5025,-29.6683 195.0068,-25.3435"/>
</g>
<!-- Node13 -->
<g id="node14" class="node">
<title>Node13</title>
<polygon fill="#ffffff" stroke="#bfbfbf" points="237,-.5 237,-19.5 298,-19.5 298,-.5 237,-.5"/>
<text text-anchor="middle" x="267.5" y="-7.5" font-family="Helvetica,sans-Serif" font-size="10.00" fill="#000000">QTextEdit</text>
</g>
<!-- Node10&#45;&gt;Node13 -->
<g id="edge13" class="edge">
<title>Node10&#45;&gt;Node13</title>
<path fill="none" stroke="#191970" d="M230.3384,-56.2455C236.662,-48.3761 245.7224,-37.101 253.3136,-27.6542"/>
<polygon fill="#191970" stroke="#191970" points="256.2158,-29.6302 259.7514,-19.6427 250.7592,-25.2454 256.2158,-29.6302"/>
</g>
<!-- Node10&#45;&gt;Node14 -->
<g id="edge14" class="edge">
<title>Node10&#45;&gt;Node14</title>
<path fill="none" stroke="#191970" d="M196.8875,-58.6755C193.7262,-57.7734 190.5391,-56.8649 187.5,-56 133.9377,-40.7568 118.4733,-36.4844 60.7516,-20.0672"/>
<polygon fill="#191970" stroke="#191970" points="61.6886,-16.6949 51.1125,-17.3245 59.7728,-23.4277 61.6886,-16.6949"/>
</g>
<!-- Node15&#45;&gt;Node7 -->
<g id="edge22" class="edge">
<title>Node15&#45;&gt;Node7</title>
<path fill="none" stroke="#191970" d="M1222.4767,-58.8507C1166.9613,-48.1305 1062.7287,-28.0028 1006.9594,-17.2335"/>
<polygon fill="#191970" stroke="#191970" points="1007.2887,-13.7325 996.8065,-15.273 1005.9614,-20.6056 1007.2887,-13.7325"/>
</g>
<!-- Node15&#45;&gt;Node16 -->
<g id="edge16" class="edge">
<title>Node15&#45;&gt;Node16</title>
<path fill="none" stroke="#191970" d="M1296.6279,-60.5285C1369.6077,-49.7736 1530.9221,-26.0009 1603.2155,-15.3472"/>
<polygon fill="#191970" stroke="#191970" points="1603.8319,-18.7942 1613.2147,-13.8736 1602.8113,-11.869 1603.8319,-18.7942"/>
</g>
<!-- Node17 -->
<g id="node18" class="node">
<title>Node17</title>
<polygon fill="#ffffff" stroke="#bfbfbf" points="1144,-.5 1144,-19.5 1203,-19.5 1203,-.5 1144,-.5"/>
<text text-anchor="middle" x="1173.5" y="-7.5" font-family="Helvetica,sans-Serif" font-size="10.00" fill="#000000">QLineEdit</text>
</g>
<!-- Node15&#45;&gt;Node17 -->
<g id="edge17" class="edge">
<title>Node15&#45;&gt;Node17</title>
<path fill="none" stroke="#191970" d="M1244.5199,-56.2455C1231.3249,-47.6534 1211.8949,-35.0014 1196.6921,-25.1018"/>
<polygon fill="#191970" stroke="#191970" points="1198.5983,-22.1665 1188.3084,-19.6427 1194.7785,-28.0325 1198.5983,-22.1665"/>
</g>
<!-- Node18 -->
<g id="node19" class="node">
<title>Node18</title>
<polygon fill="#ffffff" stroke="#bfbfbf" points="1221.5,-.5 1221.5,-19.5 1297.5,-19.5 1297.5,-.5 1221.5,-.5"/>
<text text-anchor="middle" x="1259.5" y="-7.5" font-family="Helvetica,sans-Serif" font-size="10.00" fill="#000000">QFormLayout</text>
</g>
<!-- Node15&#45;&gt;Node18 -->
<g id="edge18" class="edge">
<title>Node15&#45;&gt;Node18</title>
<path fill="none" stroke="#191970" d="M1259.5,-56.2455C1259.5,-48.9382 1259.5,-38.6944 1259.5,-29.7046"/>
<polygon fill="#191970" stroke="#191970" points="1263.0001,-29.6426 1259.5,-19.6427 1256.0001,-29.6427 1263.0001,-29.6426"/>
</g>
<!-- Node19 -->
<g id="node20" class="node">
<title>Node19</title>
<polygon fill="#ffffff" stroke="#bfbfbf" points="1316,-.5 1316,-19.5 1363,-19.5 1363,-.5 1316,-.5"/>
<text text-anchor="middle" x="1339.5" y="-7.5" font-family="Helvetica,sans-Serif" font-size="10.00" fill="#000000">QLabel</text>
</g>
<!-- Node15&#45;&gt;Node19 -->
<g id="edge19" class="edge">
<title>Node15&#45;&gt;Node19</title>
<path fill="none" stroke="#191970" d="M1273.4349,-56.2455C1285.5947,-47.7337 1303.4464,-35.2375 1317.5285,-25.3801"/>
<polygon fill="#191970" stroke="#191970" points="1319.5395,-28.2447 1325.7248,-19.6427 1315.5253,-22.51 1319.5395,-28.2447"/>
</g>
<!-- Node20 -->
<g id="node21" class="node">
<title>Node20</title>
<polygon fill="#ffffff" stroke="#bfbfbf" points="1381.5,-.5 1381.5,-19.5 1479.5,-19.5 1479.5,-.5 1381.5,-.5"/>
<text text-anchor="middle" x="1430.5" y="-7.5" font-family="Helvetica,sans-Serif" font-size="10.00" fill="#000000">QDialogButtonBox</text>
</g>
<!-- Node15&#45;&gt;Node20 -->
<g id="edge20" class="edge">
<title>Node15&#45;&gt;Node20</title>
<path fill="none" stroke="#191970" d="M1288.8959,-56.3733C1317.3307,-47.0613 1360.5877,-32.8953 1391.8081,-22.671"/>
<polygon fill="#191970" stroke="#191970" points="1393.0736,-25.9396 1401.4876,-19.5011 1390.895,-19.2872 1393.0736,-25.9396"/>
</g>
<!-- Node15&#45;&gt;Node21 -->
<g id="edge21" class="edge">
<title>Node15&#45;&gt;Node21</title>
<path fill="none" stroke="#191970" d="M1231.995,-56.3733C1205.3441,-47.0454 1164.777,-32.8469 1135.5536,-22.6188"/>
<polygon fill="#191970" stroke="#191970" points="1136.7092,-19.3151 1126.1144,-19.315 1134.3967,-25.9221 1136.7092,-19.3151"/>
</g>
<!-- Node23&#45;&gt;Node2 -->
<g id="edge31" class="edge">
<title>Node23&#45;&gt;Node2</title>
<path fill="none" stroke="#191970" d="M263.6798,-112.2784C268.9477,-97.7408 280.8935,-70.499 300.5,-56 324.638,-38.1499 408.2913,-22.1682 453.2986,-14.6103"/>
<polygon fill="#191970" stroke="#191970" points="454.0292,-18.0372 463.3274,-12.9583 452.8914,-11.1302 454.0292,-18.0372"/>
</g>
<!-- Node23&#45;&gt;Node3 -->
<g id="edge30" class="edge">
<title>Node23&#45;&gt;Node3</title>
<path fill="none" stroke="#191970" d="M278.8146,-112.3442C306.4387,-98.1394 360.7283,-71.61 409.5,-56 440.646,-46.0313 524.4727,-29.8425 580.277,-19.5679"/>
<polygon fill="#191970" stroke="#191970" points="581.1467,-22.9668 590.3517,-17.721 579.8845,-16.0816 581.1467,-22.9668"/>
</g>
<!-- Node23&#45;&gt;Node10 -->
<g id="edge28" class="edge">
<title>Node23&#45;&gt;Node10</title>
<path fill="none" stroke="#191970" d="M253.8809,-112.2455C248.5954,-104.4564 241.0459,-93.3308 234.6762,-83.9439"/>
<polygon fill="#191970" stroke="#191970" points="237.5545,-81.9522 229.0432,-75.6427 231.7621,-85.8827 237.5545,-81.9522"/>
</g>
<!-- Node23&#45;&gt;Node14 -->
<g id="edge33" class="edge">
<title>Node23&#45;&gt;Node14</title>
<path fill="none" stroke="#191970" d="M234.9655,-117.7938C203.0218,-111.8031 147.3205,-98.915 104.5,-76 80.3025,-63.0509 56.7088,-41.8886 41.7014,-27.0258"/>
<polygon fill="#191970" stroke="#191970" points="43.8087,-24.1776 34.2979,-19.509 38.8215,-29.0896 43.8087,-24.1776"/>
</g>
<!-- Node24 -->
<g id="node25" class="node">
<title>Node24</title>
<polygon fill="#ffffff" stroke="#bfbfbf" points="114,-56.5 114,-75.5 179,-75.5 179,-56.5 114,-56.5"/>
<text text-anchor="middle" x="146.5" y="-63.5" font-family="Helvetica,sans-Serif" font-size="10.00" fill="#000000">QStringList</text>
</g>
<!-- Node23&#45;&gt;Node24 -->
<g id="edge29" class="edge">
<title>Node23&#45;&gt;Node24</title>
<path fill="none" stroke="#191970" d="M240.9027,-112.3733C222.7669,-103.4644 195.5865,-90.1127 175.0413,-80.0203"/>
<polygon fill="#191970" stroke="#191970" points="176.3603,-76.7688 165.8416,-75.5011 173.2739,-83.0517 176.3603,-76.7688"/>
</g>
<!-- Node23&#45;&gt;Node25 -->
<g id="edge32" class="edge">
<title>Node23&#45;&gt;Node25</title>
<path fill="none" stroke="#191970" d="M286.2235,-114.2134C318.077,-104.5713 372.5525,-88.0814 408.7907,-77.112"/>
<polygon fill="#191970" stroke="#191970" points="409.9372,-80.4219 418.4942,-74.1747 407.9091,-73.7221 409.9372,-80.4219"/>
</g>
<!-- Node26&#45;&gt;Node1 -->
<g id="edge36" class="edge">
<title>Node26&#45;&gt;Node1</title>
<path fill="none" stroke="#191970" d="M698.0876,-112.2455C686.4943,-103.814 669.5252,-91.4729 656.0322,-81.6598"/>
<polygon fill="#191970" stroke="#191970" points="657.9047,-78.6938 647.7587,-75.6427 653.7874,-84.355 657.9047,-78.6938"/>
</g>
<!-- Node26&#45;&gt;Node2 -->
<g id="edge37" class="edge">
<title>Node26&#45;&gt;Node2</title>
<path fill="none" stroke="#191970" d="M684.3747,-115.7178C655.607,-108.4478 609.3239,-94.992 572.5,-76 545.7138,-62.185 518.2519,-40.792 500.8245,-26.1301"/>
<polygon fill="#191970" stroke="#191970" points="502.9948,-23.3807 493.1222,-19.5359 498.4423,-28.6982 502.9948,-23.3807"/>
</g>
<!-- Node26&#45;&gt;Node3 -->
<g id="edge38" class="edge">
<title>Node26&#45;&gt;Node3</title>
<path fill="none" stroke="#191970" d="M706.6426,-112.2447C699.9005,-99.0402 687.0034,-74.9518 673.5,-56 666.4069,-46.0449 657.572,-35.7092 650.0108,-27.3627"/>
<polygon fill="#191970" stroke="#191970" points="652.3453,-24.7321 642.9859,-19.767 647.2062,-29.485 652.3453,-24.7321"/>
</g>
<!-- Node26&#45;&gt;Node4 -->
<g id="edge39" class="edge">
<title>Node26&#45;&gt;Node4</title>
<path fill="none" stroke="#191970" d="M713.2052,-112.4509C716.4819,-94.1013 723.7159,-53.5908 728.0412,-29.3693"/>
<polygon fill="#191970" stroke="#191970" points="731.4866,-29.9845 729.7991,-19.5249 724.5956,-28.7539 731.4866,-29.9845"/>
</g>
<!-- Node26&#45;&gt;Node5 -->
<g id="edge40" class="edge">
<title>Node26&#45;&gt;Node5</title>
<path fill="none" stroke="#191970" d="M721.2196,-112.4509C740.5699,-93.4401 784.1319,-50.6423 808.3837,-26.816"/>
<polygon fill="#191970" stroke="#191970" points="811.1245,-29.0298 815.805,-19.5249 806.2187,-24.0364 811.1245,-29.0298"/>
</g>
<!-- Node26&#45;&gt;Node6 -->
<g id="edge41" class="edge">
<title>Node26&#45;&gt;Node6</title>
<path fill="none" stroke="#191970" d="M684.152,-115.5403C659.2696,-108.6978 622.4242,-96.0676 595.5,-76 578.23,-63.128 563.5828,-43.148 554.2782,-28.5417"/>
<polygon fill="#191970" stroke="#191970" points="557.1647,-26.553 548.9614,-19.848 551.1929,-30.2052 557.1647,-26.553"/>
</g>
<!-- Node26&#45;&gt;Node7 -->
<g id="edge43" class="edge">
<title>Node26&#45;&gt;Node7</title>
<path fill="none" stroke="#191970" d="M725.8678,-112.4316C747.1429,-98.574 788.6005,-72.7488 826.5,-56 861.3875,-40.5822 903.0865,-27.7669 932.4269,-19.6127"/>
<polygon fill="#191970" stroke="#191970" points="933.5344,-22.9385 942.2581,-16.9262 931.6891,-16.1861 933.5344,-22.9385"/>
</g>
<!-- Node26&#45;&gt;Node25 -->
<g id="edge44" class="edge">
<title>Node26&#45;&gt;Node25</title>
<path fill="none" stroke="#191970" d="M684.4153,-116.8039C642.0801,-108.6052 557.6973,-91.9546 486.5,-76 485.2533,-75.7206 483.9863,-75.4329 482.7074,-75.1393"/>
<polygon fill="#191970" stroke="#191970" points="483.3492,-71.6949 472.8136,-72.8132 481.7471,-78.5091 483.3492,-71.6949"/>
</g>
<!-- Node26&#45;&gt;Node27 -->
<g id="edge42" class="edge">
<title>Node26&#45;&gt;Node27</title>
<path fill="none" stroke="#191970" d="M735.9107,-112.3733C760.8018,-102.557 799.3706,-87.3468 825.4902,-77.0461"/>
<polygon fill="#191970" stroke="#191970" points="826.8181,-80.2848 834.8368,-73.3601 824.25,-73.7729 826.8181,-80.2848"/>
</g>
</g>
</svg>
        <g id="navigator" transform="translate(0 0)" fill="#404254">
                <rect fill="#f2f5e9" fill-opacity="0.5" stroke="#606060" stroke-width=".5" x="0" y="0" width="60" height="60"/>
                <use id="zoomplus" xlink:href="#zoomPlus" x="17" y="9" onmousedown="handleZoom(evt,'in')"/>
                <use id="zoomminus" xlink:href="#zoomMin" x="42" y="9" onmousedown="handleZoom(evt,'out')"/>
                <use id="reset" xlink:href="#resetDef" x="30" y="36" onmousedown="handleReset()"/>
                <g id="arrowUp" xlink:href="#dirArrow" transform="translate(30 24)" onmousedown="handlePan(0,-1)">
                  <use xlink:href="#rim" fill="#404040">
                        <set attributeName="fill" to="#808080" begin="arrowUp.mouseover" end="arrowUp.mouseout"/>
                  </use>
                  <path fill="none" stroke="white" stroke-width="1.5" d="M0,-3.0v7 M-2.5,-0.5L0,-3.0L2.5,-0.5"/>
                </g>
                <g id="arrowRight" xlink:href="#dirArrow" transform="rotate(90) translate(36 -43)" onmousedown="handlePan(1,0)">
                  <use xlink:href="#rim" fill="#404040">
                        <set attributeName="fill" to="#808080" begin="arrowRight.mouseover" end="arrowRight.mouseout"/>
                  </use>
                  <path fill="none" stroke="white" stroke-width="1.5" d="M0,-3.0v7 M-2.5,-0.5L0,-3.0L2.5,-0.5"/>
                </g>
                <g id="arrowDown" xlink:href="#dirArrow" transform="rotate(180) translate(-30 -48)" onmousedown="handlePan(0,1)">
                  <use xlink:href="#rim" fill="#404040">
                        <set attributeName="fill" to="#808080" begin="arrowDown.mouseover" end="arrowDown.mouseout"/>
                  </use>
                  <path fill="none" stroke="white" stroke-width="1.5" d="M0,-3.0v7 M-2.5,-0.5L0,-3.0L2.5,-0.5"/>
                </g>
                <g id="arrowLeft" xlink:href="#dirArrow" transform="rotate(270) translate(-36 17)" onmousedown="handlePan(-1,0)">
                  <use xlink:href="#rim" fill="#404040">
                        <set attributeName="fill" to="#808080" begin="arrowLeft.mouseover" end="arrowLeft.mouseout"/>
                  </use>
                  <path fill="none" stroke="white" stroke-width="1.5" d="M0,-3.0v7 M-2.5,-0.5L0,-3.0L2.5,-0.5"/>
                </g>
        </g>
        <svg viewBox="0 0 15 15" width="100%" height="30px" preserveAspectRatio="xMaxYMin meet">
         <g id="arrow_out" transform="scale(0.3 0.3)">
          <a xlink:href="searchdialog_8h__incl_org.svg" target="_base">
           <rect id="button" ry="5" rx="5" y="6" x="6" height="38" width="38"
                fill="#f2f5e9" fill-opacity="0.5" stroke="#606060" stroke-width="1.0"/>
           <path id="arrow"
             d="M 11.500037,31.436501 C 11.940474,20.09759 22.043105,11.32322 32.158766,21.979434 L 37.068811,17.246167 C 37.068811,17.246167 37.088388,32 37.088388,32 L 22.160133,31.978069 C 22.160133,31.978069 26.997745,27.140456 26.997745,27.140456 C 18.528582,18.264221 13.291696,25.230495 11.500037,31.436501 z"
             style="fill:#404040;"/>
          </a>
         </g>
        </svg>
</svg>
