<?xml version="1.0" encoding="UTF-8" standalone="no"?>
<!DOCTYPE svg PUBLIC "-//W3C//DTD SVG 1.1//EN"
 "http://www.w3.org/Graphics/SVG/1.1/DTD/svg11.dtd">
<!-- Generated by graphviz version 2.40.1 (20161225.0304)
 -->
<!-- Title: searchdialog.cpp Pages: 1 -->
<!--zoomable 308 -->
<svg id="main" version="1.1" xmlns="http://www.w3.org/2000/svg" xmlns:xlink="http://www.w3.org/1999/xlink" xml:space="preserve" onload="init(evt)">
<style type="text/css"><![CDATA[
.edge:hover path { stroke: red; }
.edge:hover polygon { stroke: red; fill: red; }
]]></style>
<script type="text/javascript"><![CDATA[
var edges = document.getElementsByTagName('g');
if (edges && edges.length) {
  for (var i=0;i<edges.length;i++) {
    if (edges[i].id.substr(0,4)=='edge') {
      edges[i].setAttribute('class','edge');
    }
  }
}
]]></script>
        <defs>
                <circle id="rim" cx="0" cy="0" r="7"/>
                <circle id="rim2" cx="0" cy="0" r="3.5"/>
                <g id="zoomPlus">
                        <use xlink:href="#rim" fill="#404040">
                                <set attributeName="fill" to="#808080" begin="zoomplus.mouseover" end="zoomplus.mouseout"/>
                        </use>
                        <path d="M-4,0h8M0,-4v8" fill="none" stroke="white" stroke-width="1.5" pointer-events="none"/>
                </g>
                <g id="zoomMin">
                        <use xlink:href="#rim" fill="#404040">
                                <set attributeName="fill" to="#808080" begin="zoomminus.mouseover" end="zoomminus.mouseout"/>
                        </use>
                        <path d="M-4,0h8" fill="none" stroke="white" stroke-width="1.5" pointer-events="none"/>
                </g>
                <g id="dirArrow">
                        <path fill="none" stroke="white" stroke-width="1.5" d="M0,-3.0v7 M-2.5,-0.5L0,-3.0L2.5,-0.5"/>
                </g>
               <g id="resetDef">
                       <use xlink:href="#rim2" fill="#404040">
                               <set attributeName="fill" to="#808080" begin="reset.mouseover" end="reset.mouseout"/>
                       </use>
               </g>
        </defs>

<script type="text/javascript">
var viewWidth = 1861;
var viewHeight = 308;
var sectionId = 'dynsection-0';
</script>
<script xlink:href="svgpan.js"/>
<svg id="graph" class="graph">
<g id="viewport">
<title>searchdialog.cpp</title>
<polygon fill="#ffffff" stroke="transparent" points="-4,4 -4,-304 1857,-304 1857,4 -4,4"/>
<!-- Node0 -->
<g id="node1" class="node">
<title>Node0</title>
<polygon fill="#bfbfbf" stroke="#000000" points="1578,-280.5 1578,-299.5 1668,-299.5 1668,-280.5 1578,-280.5"/>
<text text-anchor="middle" x="1623" y="-287.5" font-family="Helvetica,sans-Serif" font-size="10.00" fill="#000000">searchdialog.cpp</text>
</g>
<!-- Node1 -->
<g id="node2" class="node">
<title>Node1</title>
<g id="a_node2"><a xlink:href="searchdialog_8h.html" target="_top" xlink:title="searchdialog.h">
<polygon fill="#ffffff" stroke="#000000" points="1186,-224.5 1186,-243.5 1266,-243.5 1266,-224.5 1186,-224.5"/>
<text text-anchor="middle" x="1226" y="-231.5" font-family="Helvetica,sans-Serif" font-size="10.00" fill="#000000">searchdialog.h</text>
</a>
</g>
</g>
<!-- Node0&#45;&gt;Node1 -->
<g id="edge1" class="edge">
<title>Node0&#45;&gt;Node1</title>
<path fill="none" stroke="#191970" d="M1577.8456,-283.6306C1503.0616,-273.0817 1354.0306,-252.0597 1276.1054,-241.0678"/>
<polygon fill="#191970" stroke="#191970" points="1276.4434,-237.5809 1266.0525,-239.6497 1275.4656,-244.5123 1276.4434,-237.5809"/>
</g>
<!-- Node9 -->
<g id="node10" class="node">
<title>Node9</title>
<g id="a_node10"><a xlink:href="mainwindow_8h.html" target="_top" xlink:title="mainwindow.h">
<polygon fill="#ffffff" stroke="#000000" points="980.5,-168.5 980.5,-187.5 1059.5,-187.5 1059.5,-168.5 980.5,-168.5"/>
<text text-anchor="middle" x="1020" y="-175.5" font-family="Helvetica,sans-Serif" font-size="10.00" fill="#000000">mainwindow.h</text>
</a>
</g>
</g>
<!-- Node0&#45;&gt;Node9 -->
<g id="edge67" class="edge">
<title>Node0&#45;&gt;Node9</title>
<path fill="none" stroke="#191970" d="M1577.9763,-281.3276C1511.6704,-268.5862 1383.8413,-244.1378 1275,-224 1203.6717,-210.8028 1121.0285,-195.9804 1069.6242,-186.8162"/>
<polygon fill="#191970" stroke="#191970" points="1070.2313,-183.3693 1059.7724,-185.0609 1069.0034,-190.2608 1070.2313,-183.3693"/>
</g>
<!-- Node27 -->
<g id="node28" class="node">
<title>Node27</title>
<g id="a_node28"><a xlink:href="search_8h.html" target="_top" xlink:title="search.h">
<polygon fill="#ffffff" stroke="#000000" points="1512,-112.5 1512,-131.5 1566,-131.5 1566,-112.5 1512,-112.5"/>
<text text-anchor="middle" x="1539" y="-119.5" font-family="Helvetica,sans-Serif" font-size="10.00" fill="#000000">search.h</text>
</a>
</g>
</g>
<!-- Node0&#45;&gt;Node27 -->
<g id="edge69" class="edge">
<title>Node0&#45;&gt;Node27</title>
<path fill="none" stroke="#191970" d="M1618.2431,-280.4862C1604.8497,-253.6994 1566.6282,-177.2565 1548.6145,-141.2289"/>
<polygon fill="#191970" stroke="#191970" points="1551.5166,-139.2069 1543.9139,-131.8279 1545.2556,-142.3374 1551.5166,-139.2069"/>
</g>
<!-- Node35 -->
<g id="node36" class="node">
<title>Node35</title>
<polygon fill="#ffffff" stroke="#bfbfbf" points="1651,-224.5 1651,-243.5 1743,-243.5 1743,-224.5 1651,-224.5"/>
<text text-anchor="middle" x="1697" y="-231.5" font-family="Helvetica,sans-Serif" font-size="10.00" fill="#000000">ui_searchdialog.h</text>
</g>
<!-- Node0&#45;&gt;Node35 -->
<g id="edge66" class="edge">
<title>Node0&#45;&gt;Node35</title>
<path fill="none" stroke="#191970" d="M1635.8898,-280.2455C1646.9254,-271.8943 1663.0292,-259.7076 1675.9353,-249.9408"/>
<polygon fill="#191970" stroke="#191970" points="1678.3959,-252.4681 1684.2579,-243.6427 1674.1717,-246.8862 1678.3959,-252.4681"/>
</g>
<!-- Node36 -->
<g id="node37" class="node">
<title>Node36</title>
<polygon fill="#ffffff" stroke="#bfbfbf" points="1761,-224.5 1761,-243.5 1853,-243.5 1853,-224.5 1761,-224.5"/>
<text text-anchor="middle" x="1807" y="-231.5" font-family="Helvetica,sans-Serif" font-size="10.00" fill="#000000">ui_mainwindow.h</text>
</g>
<!-- Node0&#45;&gt;Node36 -->
<g id="edge68" class="edge">
<title>Node0&#45;&gt;Node36</title>
<path fill="none" stroke="#191970" d="M1654.6307,-280.3733C1685.3596,-271.021 1732.176,-256.7725 1765.8022,-246.5385"/>
<polygon fill="#191970" stroke="#191970" points="1767.2344,-249.7612 1775.782,-243.5011 1765.1962,-243.0644 1767.2344,-249.7612"/>
</g>
<!-- Node2 -->
<g id="node3" class="node">
<title>Node2</title>
<g id="a_node3"><a xlink:href="listFiles_8h.html" target="_top" xlink:title="listFiles.h">
<polygon fill="#ffffff" stroke="#000000" points="1506.5,-56.5 1506.5,-75.5 1565.5,-75.5 1565.5,-56.5 1506.5,-56.5"/>
<text text-anchor="middle" x="1536" y="-63.5" font-family="Helvetica,sans-Serif" font-size="10.00" fill="#000000">listFiles.h</text>
</a>
</g>
</g>
<!-- Node1&#45;&gt;Node2 -->
<g id="edge2" class="edge">
<title>Node1&#45;&gt;Node2</title>
<path fill="none" stroke="#191970" d="M1266.0162,-228.8829C1352.3213,-216.9404 1551.375,-184.2164 1591,-132 1604.6663,-113.991 1582.8696,-94.171 1562.8124,-80.9976"/>
<polygon fill="#191970" stroke="#191970" points="1564.4845,-77.916 1554.1429,-75.6133 1560.7914,-83.8625 1564.4845,-77.916"/>
</g>
<!-- Node1&#45;&gt;Node9 -->
<g id="edge9" class="edge">
<title>Node1&#45;&gt;Node9</title>
<path fill="none" stroke="#191970" d="M1190.5873,-224.3733C1155.7395,-214.9001 1102.4118,-200.4032 1064.6707,-190.1435"/>
<polygon fill="#191970" stroke="#191970" points="1065.5185,-186.747 1054.9506,-187.5011 1063.6822,-193.5019 1065.5185,-186.747"/>
</g>
<!-- Node17 -->
<g id="node18" class="node">
<title>Node17</title>
<polygon fill="#ffffff" stroke="#bfbfbf" points="0,-.5 0,-19.5 52,-19.5 52,-.5 0,-.5"/>
<text text-anchor="middle" x="26" y="-7.5" font-family="Helvetica,sans-Serif" font-size="10.00" fill="#000000">QDialog</text>
</g>
<!-- Node1&#45;&gt;Node17 -->
<g id="edge65" class="edge">
<title>Node1&#45;&gt;Node17</title>
<path fill="none" stroke="#191970" d="M1185.9748,-232.3066C1063.1424,-226.4528 681.2743,-203.353 374,-132 253.7847,-104.0845 117.2939,-49.0344 57.2021,-23.5429"/>
<polygon fill="#191970" stroke="#191970" points="58.4638,-20.276 47.8925,-19.5702 55.7163,-26.7143 58.4638,-20.276"/>
</g>
<!-- Node3 -->
<g id="node4" class="node">
<title>Node3</title>
<polygon fill="#ffffff" stroke="#bfbfbf" points="863,-.5 863,-19.5 901,-19.5 901,-.5 863,-.5"/>
<text text-anchor="middle" x="882" y="-7.5" font-family="Helvetica,sans-Serif" font-size="10.00" fill="#000000">QFtp</text>
</g>
<!-- Node2&#45;&gt;Node3 -->
<g id="edge3" class="edge">
<title>Node2&#45;&gt;Node3</title>
<path fill="none" stroke="#191970" d="M1506.1995,-63.4483C1397.0014,-54.098 1019.4984,-21.7736 911.2339,-12.5032"/>
<polygon fill="#191970" stroke="#191970" points="911.316,-8.9975 901.0538,-11.6315 910.7187,-15.972 911.316,-8.9975"/>
</g>
<!-- Node4 -->
<g id="node5" class="node">
<title>Node4</title>
<polygon fill="#ffffff" stroke="#bfbfbf" points="1300,-.5 1300,-19.5 1386,-19.5 1386,-.5 1300,-.5"/>
<text text-anchor="middle" x="1343" y="-7.5" font-family="Helvetica,sans-Serif" font-size="10.00" fill="#000000">QSharedPointer</text>
</g>
<!-- Node2&#45;&gt;Node4 -->
<g id="edge4" class="edge">
<title>Node2&#45;&gt;Node4</title>
<path fill="none" stroke="#191970" d="M1506.2667,-57.3727C1474.0818,-48.0341 1422.4616,-33.0562 1385.8897,-22.4447"/>
<polygon fill="#191970" stroke="#191970" points="1386.5815,-19.0011 1376.0022,-19.5758 1384.6308,-25.7238 1386.5815,-19.0011"/>
</g>
<!-- Node5 -->
<g id="node6" class="node">
<title>Node5</title>
<polygon fill="#ffffff" stroke="#bfbfbf" points="1636,-.5 1636,-19.5 1710,-19.5 1710,-.5 1636,-.5"/>
<text text-anchor="middle" x="1673" y="-7.5" font-family="Helvetica,sans-Serif" font-size="10.00" fill="#000000">QTreeWidget</text>
</g>
<!-- Node2&#45;&gt;Node5 -->
<g id="edge5" class="edge">
<title>Node2&#45;&gt;Node5</title>
<path fill="none" stroke="#191970" d="M1559.5511,-56.3733C1581.8391,-47.2629 1615.4937,-33.5062 1640.3637,-23.3404"/>
<polygon fill="#191970" stroke="#191970" points="1641.8239,-26.5247 1649.7562,-19.5011 1639.1753,-20.0451 1641.8239,-26.5247"/>
</g>
<!-- Node6 -->
<g id="node7" class="node">
<title>Node6</title>
<polygon fill="#ffffff" stroke="#bfbfbf" points="1475.5,-.5 1475.5,-19.5 1552.5,-19.5 1552.5,-.5 1475.5,-.5"/>
<text text-anchor="middle" x="1514" y="-7.5" font-family="Helvetica,sans-Serif" font-size="10.00" fill="#000000">QHeaderView</text>
</g>
<!-- Node2&#45;&gt;Node6 -->
<g id="edge6" class="edge">
<title>Node2&#45;&gt;Node6</title>
<path fill="none" stroke="#191970" d="M1532.1679,-56.2455C1529.2341,-48.7776 1525.0953,-38.2427 1521.509,-29.1137"/>
<polygon fill="#191970" stroke="#191970" points="1524.7024,-27.6704 1517.7882,-19.6427 1518.1871,-30.23 1524.7024,-27.6704"/>
</g>
<!-- Node7 -->
<g id="node8" class="node">
<title>Node7</title>
<polygon fill="#ffffff" stroke="#bfbfbf" points="1570.5,-.5 1570.5,-19.5 1617.5,-19.5 1617.5,-.5 1570.5,-.5"/>
<text text-anchor="middle" x="1594" y="-7.5" font-family="Helvetica,sans-Serif" font-size="10.00" fill="#000000">QHash</text>
</g>
<!-- Node2&#45;&gt;Node7 -->
<g id="edge7" class="edge">
<title>Node2&#45;&gt;Node7</title>
<path fill="none" stroke="#191970" d="M1546.1028,-56.2455C1554.5028,-48.1352 1566.6494,-36.4075 1576.6084,-26.7919"/>
<polygon fill="#191970" stroke="#191970" points="1579.25,-29.1066 1584.0129,-19.6427 1574.3878,-24.0707 1579.25,-29.1066"/>
</g>
<!-- Node8 -->
<g id="node9" class="node">
<title>Node8</title>
<polygon fill="#ffffff" stroke="#bfbfbf" points="1086,-.5 1086,-19.5 1140,-19.5 1140,-.5 1086,-.5"/>
<text text-anchor="middle" x="1113" y="-7.5" font-family="Helvetica,sans-Serif" font-size="10.00" fill="#000000">iostream</text>
</g>
<!-- Node2&#45;&gt;Node8 -->
<g id="edge8" class="edge">
<title>Node2&#45;&gt;Node8</title>
<path fill="none" stroke="#191970" d="M1506.2555,-62.0622C1430.963,-52.0944 1232.9501,-25.8799 1150.189,-14.9234"/>
<polygon fill="#191970" stroke="#191970" points="1150.5939,-11.4465 1140.221,-13.6037 1149.6751,-18.386 1150.5939,-11.4465"/>
</g>
<!-- Node9&#45;&gt;Node2 -->
<g id="edge35" class="edge">
<title>Node9&#45;&gt;Node2</title>
<path fill="none" stroke="#191970" d="M1059.6151,-177.7402C1180.7663,-176.538 1540.2127,-169.7898 1575,-132 1588.7401,-117.074 1572.2908,-96.5234 1556.7321,-82.3381"/>
<polygon fill="#191970" stroke="#191970" points="1558.7089,-79.4223 1548.8416,-75.5638 1554.149,-84.7335 1558.7089,-79.4223"/>
</g>
<!-- Node9&#45;&gt;Node3 -->
<g id="edge55" class="edge">
<title>Node9&#45;&gt;Node3</title>
<path fill="none" stroke="#191970" d="M980.3017,-176.0537C920.3202,-172.1886 811.0204,-161.2262 787,-132 755.8877,-94.1448 817.4391,-48.2488 855.3305,-25.0236"/>
<polygon fill="#191970" stroke="#191970" points="857.5866,-27.7534 864.3833,-19.626 854.0017,-21.7409 857.5866,-27.7534"/>
</g>
<!-- Node9&#45;&gt;Node5 -->
<g id="edge57" class="edge">
<title>Node9&#45;&gt;Node5</title>
<path fill="none" stroke="#191970" d="M1059.5524,-177.4367C1187.0648,-175.2894 1581.6951,-165.9386 1627,-132 1659.4825,-107.6669 1669.0293,-57.5739 1671.8341,-29.7405"/>
<polygon fill="#191970" stroke="#191970" points="1675.3342,-29.8788 1672.6518,-19.6292 1668.357,-29.3145 1675.3342,-29.8788"/>
</g>
<!-- Node9&#45;&gt;Node6 -->
<g id="edge63" class="edge">
<title>Node9&#45;&gt;Node6</title>
<path fill="none" stroke="#191970" d="M1059.6081,-176.2706C1186.0705,-170.56 1572.9594,-151.5524 1591,-132 1605.1181,-116.6988 1592.3372,-81.261 1575,-56 1566.3274,-43.3638 1553.0567,-32.7632 1541.1054,-24.935"/>
<polygon fill="#191970" stroke="#191970" points="1542.667,-21.7855 1532.3213,-19.5013 1538.9845,-27.7386 1542.667,-21.7855"/>
</g>
<!-- Node9&#45;&gt;Node7 -->
<g id="edge56" class="edge">
<title>Node9&#45;&gt;Node7</title>
<path fill="none" stroke="#191970" d="M1059.8774,-176.3545C1189.1445,-170.8298 1589.359,-152.1563 1608,-132 1633.9279,-103.9645 1616.7199,-55.4358 1604.0453,-28.8158"/>
<polygon fill="#191970" stroke="#191970" points="1607.122,-27.1431 1599.5091,-19.7746 1600.8653,-30.2823 1607.122,-27.1431"/>
</g>
<!-- Node9&#45;&gt;Node8 -->
<g id="edge47" class="edge">
<title>Node9&#45;&gt;Node8</title>
<path fill="none" stroke="#191970" d="M985.1939,-168.4929C953.6236,-157.9484 914.2476,-138.814 930,-112 934.4352,-104.4502 1035.7661,-50.5329 1085.694,-24.2851"/>
<polygon fill="#191970" stroke="#191970" points="1087.4397,-27.3217 1094.6672,-19.5748 1084.1862,-21.1237 1087.4397,-27.3217"/>
</g>
<!-- Node10 -->
<g id="node11" class="node">
<title>Node10</title>
<g id="a_node11"><a xlink:href="serverconnection_8h.html" target="_top" xlink:title="serverconnection.h">
<polygon fill="#ffffff" stroke="#000000" points="588.5,-112.5 588.5,-131.5 687.5,-131.5 687.5,-112.5 588.5,-112.5"/>
<text text-anchor="middle" x="638" y="-119.5" font-family="Helvetica,sans-Serif" font-size="10.00" fill="#000000">serverconnection.h</text>
</a>
</g>
</g>
<!-- Node9&#45;&gt;Node10 -->
<g id="edge10" class="edge">
<title>Node9&#45;&gt;Node10</title>
<path fill="none" stroke="#191970" d="M980.2003,-172.1655C912.9912,-162.3128 776.6424,-142.3245 697.8567,-130.7748"/>
<polygon fill="#191970" stroke="#191970" points="698.0063,-127.2594 687.6044,-129.2718 696.9909,-134.1854 698.0063,-127.2594"/>
</g>
<!-- Node12 -->
<g id="node13" class="node">
<title>Node12</title>
<polygon fill="#ffffff" stroke="#bfbfbf" points="496,-.5 496,-19.5 546,-19.5 546,-.5 496,-.5"/>
<text text-anchor="middle" x="521" y="-7.5" font-family="Helvetica,sans-Serif" font-size="10.00" fill="#000000">QString</text>
</g>
<!-- Node9&#45;&gt;Node12 -->
<g id="edge64" class="edge">
<title>Node9&#45;&gt;Node12</title>
<path fill="none" stroke="#191970" d="M980.2964,-176.674C868.801,-172.6275 558.5677,-159.0334 522,-132 493.622,-111.021 491.1934,-90.4164 499,-56 501.144,-46.548 505.478,-36.7672 509.7367,-28.6675"/>
<polygon fill="#191970" stroke="#191970" points="512.8961,-30.1895 514.7417,-19.7567 506.7929,-26.7615 512.8961,-30.1895"/>
</g>
<!-- Node13 -->
<g id="node14" class="node">
<title>Node13</title>
<polygon fill="#ffffff" stroke="#bfbfbf" points="564.5,-.5 564.5,-19.5 645.5,-19.5 645.5,-.5 564.5,-.5"/>
<text text-anchor="middle" x="605" y="-7.5" font-family="Helvetica,sans-Serif" font-size="10.00" fill="#000000">QMessageBox</text>
</g>
<!-- Node9&#45;&gt;Node13 -->
<g id="edge54" class="edge">
<title>Node9&#45;&gt;Node13</title>
<path fill="none" stroke="#191970" d="M980.3468,-175.7832C874.913,-169.6491 593.1368,-151.603 556,-132 520.8778,-113.4604 487.8374,-89.607 509,-56 519.3034,-39.6378 537.2197,-28.9665 554.8053,-22.0674"/>
<polygon fill="#191970" stroke="#191970" points="556.2491,-25.2684 564.4906,-18.6104 553.896,-18.6757 556.2491,-25.2684"/>
</g>
<!-- Node15 -->
<g id="node16" class="node">
<title>Node15</title>
<polygon fill="#ffffff" stroke="#bfbfbf" points="742.5,-.5 742.5,-19.5 793.5,-19.5 793.5,-.5 742.5,-.5"/>
<text text-anchor="middle" x="768" y="-7.5" font-family="Helvetica,sans-Serif" font-size="10.00" fill="#000000">QMutex</text>
</g>
<!-- Node9&#45;&gt;Node15 -->
<g id="edge62" class="edge">
<title>Node9&#45;&gt;Node15</title>
<path fill="none" stroke="#191970" d="M980.27,-176.2996C917.9238,-172.727 801.4701,-162.1038 775,-132 750.2388,-103.8398 756.3325,-56.4083 762.4783,-29.7402"/>
<polygon fill="#191970" stroke="#191970" points="765.9591,-30.2526 765.0256,-19.699 759.174,-28.5313 765.9591,-30.2526"/>
</g>
<!-- Node16 -->
<g id="node17" class="node">
<title>Node16</title>
<g id="a_node17"><a xlink:href="inputDialog_8h.html" target="_top" xlink:title="inputDialog.h">
<polygon fill="#ffffff" stroke="#000000" points="312,-56.5 312,-75.5 386,-75.5 386,-56.5 312,-56.5"/>
<text text-anchor="middle" x="349" y="-63.5" font-family="Helvetica,sans-Serif" font-size="10.00" fill="#000000">inputDialog.h</text>
</a>
</g>
</g>
<!-- Node9&#45;&gt;Node16 -->
<g id="edge46" class="edge">
<title>Node9&#45;&gt;Node16</title>
<path fill="none" stroke="#191970" d="M980.4215,-176.9269C851.8044,-173.1841 450.9743,-159.4175 400,-132 380.751,-121.6465 366.4714,-100.5584 357.9928,-84.9931"/>
<polygon fill="#191970" stroke="#191970" points="360.9285,-83.046 353.2649,-75.7304 354.6937,-86.2284 360.9285,-83.046"/>
</g>
<!-- Node22 -->
<g id="node23" class="node">
<title>Node22</title>
<polygon fill="#ffffff" stroke="#bfbfbf" points="424.5,-.5 424.5,-19.5 477.5,-19.5 477.5,-.5 424.5,-.5"/>
<text text-anchor="middle" x="451" y="-7.5" font-family="Helvetica,sans-Serif" font-size="10.00" fill="#000000">QDebug</text>
</g>
<!-- Node9&#45;&gt;Node22 -->
<g id="edge49" class="edge">
<title>Node9&#45;&gt;Node22</title>
<path fill="none" stroke="#191970" d="M980.1888,-176.8512C865.196,-173.2066 538.2964,-160.4274 500,-132 467.1392,-107.6075 456.2724,-57.5383 452.7106,-29.7245"/>
<polygon fill="#191970" stroke="#191970" points="456.1728,-29.1857 451.616,-19.6209 449.2135,-29.9397 456.1728,-29.1857"/>
</g>
<!-- Node23 -->
<g id="node24" class="node">
<title>Node23</title>
<polygon fill="#ffffff" stroke="#bfbfbf" points="518.5,-56.5 518.5,-75.5 555.5,-75.5 555.5,-56.5 518.5,-56.5"/>
<text text-anchor="middle" x="537" y="-63.5" font-family="Helvetica,sans-Serif" font-size="10.00" fill="#000000">QUrl</text>
</g>
<!-- Node9&#45;&gt;Node23 -->
<g id="edge61" class="edge">
<title>Node9&#45;&gt;Node23</title>
<path fill="none" stroke="#191970" d="M980.3327,-175.8293C878.3703,-169.9744 612.7549,-152.8815 579,-132 561.7324,-121.3179 550.3092,-100.6037 543.7933,-85.2175"/>
<polygon fill="#191970" stroke="#191970" points="546.9417,-83.6567 540.0547,-75.6056 540.4178,-86.1942 546.9417,-83.6567"/>
</g>
<!-- Node24 -->
<g id="node25" class="node">
<title>Node24</title>
<g id="a_node25"><a xlink:href="loader_8h.html" target="_top" xlink:title="loader.h">
<polygon fill="#ffffff" stroke="#000000" points="796.5,-112.5 796.5,-131.5 847.5,-131.5 847.5,-112.5 796.5,-112.5"/>
<text text-anchor="middle" x="822" y="-119.5" font-family="Helvetica,sans-Serif" font-size="10.00" fill="#000000">loader.h</text>
</a>
</g>
</g>
<!-- Node9&#45;&gt;Node24 -->
<g id="edge28" class="edge">
<title>Node9&#45;&gt;Node24</title>
<path fill="none" stroke="#191970" d="M985.9626,-168.3733C950.0839,-158.2258 893.8245,-142.314 857.4292,-132.0204"/>
<polygon fill="#191970" stroke="#191970" points="858.2991,-128.6292 847.724,-129.2755 856.394,-135.365 858.2991,-128.6292"/>
</g>
<!-- Node26 -->
<g id="node27" class="node">
<title>Node26</title>
<polygon fill="#ffffff" stroke="#bfbfbf" points="1070,-56.5 1070,-75.5 1124,-75.5 1124,-56.5 1070,-56.5"/>
<text text-anchor="middle" x="1097" y="-63.5" font-family="Helvetica,sans-Serif" font-size="10.00" fill="#000000">QThread</text>
</g>
<!-- Node9&#45;&gt;Node26 -->
<g id="edge60" class="edge">
<title>Node9&#45;&gt;Node26</title>
<path fill="none" stroke="#191970" d="M990.5093,-168.4608C960.1449,-157.0485 919.6623,-136.3949 938,-112 941.7623,-106.9949 1014.1224,-87.4778 1059.9161,-75.5324"/>
<polygon fill="#191970" stroke="#191970" points="1061.011,-78.8642 1069.8092,-72.9616 1059.2504,-72.0892 1061.011,-78.8642"/>
</g>
<!-- Node9&#45;&gt;Node27 -->
<g id="edge36" class="edge">
<title>Node9&#45;&gt;Node27</title>
<path fill="none" stroke="#191970" d="M1059.77,-176.5804C1141.1909,-173.1662 1332.7639,-162.5287 1502.1536,-131.8603"/>
<polygon fill="#191970" stroke="#191970" points="1502.7901,-135.302 1511.9924,-130.0515 1501.5244,-128.4174 1502.7901,-135.302"/>
</g>
<!-- Node28 -->
<g id="node29" class="node">
<title>Node28</title>
<polygon fill="#ffffff" stroke="#bfbfbf" points="1152.5,-56.5 1152.5,-75.5 1189.5,-75.5 1189.5,-56.5 1152.5,-56.5"/>
<text text-anchor="middle" x="1171" y="-63.5" font-family="Helvetica,sans-Serif" font-size="10.00" fill="#000000">QDir</text>
</g>
<!-- Node9&#45;&gt;Node28 -->
<g id="edge58" class="edge">
<title>Node9&#45;&gt;Node28</title>
<path fill="none" stroke="#191970" d="M1004.0308,-168.4323C984.3374,-155.4405 955.2836,-131.5923 971,-112 1017.1514,-54.467 1061.3227,-93.3885 1133,-76 1136.0827,-75.2521 1139.2993,-74.446 1142.4994,-73.6275"/>
<polygon fill="#191970" stroke="#191970" points="1143.6872,-76.935 1152.4817,-71.0266 1141.9223,-70.1611 1143.6872,-76.935"/>
</g>
<!-- Node29 -->
<g id="node30" class="node">
<title>Node29</title>
<polygon fill="#ffffff" stroke="#bfbfbf" points="980,-112.5 980,-131.5 1060,-131.5 1060,-112.5 980,-112.5"/>
<text text-anchor="middle" x="1020" y="-119.5" font-family="Helvetica,sans-Serif" font-size="10.00" fill="#000000">QMainWindow</text>
</g>
<!-- Node9&#45;&gt;Node29 -->
<g id="edge48" class="edge">
<title>Node9&#45;&gt;Node29</title>
<path fill="none" stroke="#191970" d="M1020,-168.2455C1020,-160.9382 1020,-150.6944 1020,-141.7046"/>
<polygon fill="#191970" stroke="#191970" points="1023.5001,-141.6426 1020,-131.6427 1016.5001,-141.6427 1023.5001,-141.6426"/>
</g>
<!-- Node30 -->
<g id="node31" class="node">
<title>Node30</title>
<polygon fill="#ffffff" stroke="#bfbfbf" points="1078,-112.5 1078,-131.5 1118,-131.5 1118,-112.5 1078,-112.5"/>
<text text-anchor="middle" x="1098" y="-119.5" font-family="Helvetica,sans-Serif" font-size="10.00" fill="#000000">QFile</text>
</g>
<!-- Node9&#45;&gt;Node30 -->
<g id="edge50" class="edge">
<title>Node9&#45;&gt;Node30</title>
<path fill="none" stroke="#191970" d="M1033.5866,-168.2455C1045.3305,-159.814 1062.5199,-147.4729 1076.1882,-137.6598"/>
<polygon fill="#191970" stroke="#191970" points="1078.4871,-140.3179 1084.5691,-131.6427 1074.4046,-134.6316 1078.4871,-140.3179"/>
</g>
<!-- Node31 -->
<g id="node32" class="node">
<title>Node31</title>
<polygon fill="#ffffff" stroke="#bfbfbf" points="1136,-112.5 1136,-131.5 1192,-131.5 1192,-112.5 1136,-112.5"/>
<text text-anchor="middle" x="1164" y="-119.5" font-family="Helvetica,sans-Serif" font-size="10.00" fill="#000000">QFileInfo</text>
</g>
<!-- Node9&#45;&gt;Node31 -->
<g id="edge51" class="edge">
<title>Node9&#45;&gt;Node31</title>
<path fill="none" stroke="#191970" d="M1044.7545,-168.3733C1068.2849,-159.2226 1103.8687,-145.3844 1130.0426,-135.2057"/>
<polygon fill="#191970" stroke="#191970" points="1131.5171,-138.3877 1139.5685,-131.5011 1128.9799,-131.8636 1131.5171,-138.3877"/>
</g>
<!-- Node32 -->
<g id="node33" class="node">
<title>Node32</title>
<polygon fill="#ffffff" stroke="#bfbfbf" points="1210,-112.5 1210,-131.5 1278,-131.5 1278,-112.5 1210,-112.5"/>
<text text-anchor="middle" x="1244" y="-119.5" font-family="Helvetica,sans-Serif" font-size="10.00" fill="#000000">QFileDialog</text>
</g>
<!-- Node9&#45;&gt;Node32 -->
<g id="edge52" class="edge">
<title>Node9&#45;&gt;Node32</title>
<path fill="none" stroke="#191970" d="M1058.2525,-168.4369C1097.6165,-158.5959 1158.8597,-143.2851 1200.156,-132.961"/>
<polygon fill="#191970" stroke="#191970" points="1201.0882,-136.3358 1209.9407,-130.5148 1199.3904,-129.5448 1201.0882,-136.3358"/>
</g>
<!-- Node33 -->
<g id="node34" class="node">
<title>Node33</title>
<polygon fill="#ffffff" stroke="#bfbfbf" points="1296,-112.5 1296,-131.5 1386,-131.5 1386,-112.5 1296,-112.5"/>
<text text-anchor="middle" x="1341" y="-119.5" font-family="Helvetica,sans-Serif" font-size="10.00" fill="#000000">QListWidgetItem</text>
</g>
<!-- Node9&#45;&gt;Node33 -->
<g id="edge53" class="edge">
<title>Node9&#45;&gt;Node33</title>
<path fill="none" stroke="#191970" d="M1059.8345,-171.2969C1110.1016,-162.803 1199.4845,-147.5828 1285.9454,-132.1727"/>
<polygon fill="#191970" stroke="#191970" points="1286.6974,-135.5938 1295.9264,-130.3905 1285.4669,-128.7028 1286.6974,-135.5938"/>
</g>
<!-- Node34 -->
<g id="node35" class="node">
<title>Node34</title>
<polygon fill="#ffffff" stroke="#bfbfbf" points="1404.5,-112.5 1404.5,-131.5 1493.5,-131.5 1493.5,-112.5 1404.5,-112.5"/>
<text text-anchor="middle" x="1449" y="-119.5" font-family="Helvetica,sans-Serif" font-size="10.00" fill="#000000">QStandardPaths</text>
</g>
<!-- Node9&#45;&gt;Node34 -->
<g id="edge59" class="edge">
<title>Node9&#45;&gt;Node34</title>
<path fill="none" stroke="#191970" d="M1059.5216,-173.9547C1126.272,-166.9477 1265.8001,-151.5506 1394.2329,-132.0385"/>
<polygon fill="#191970" stroke="#191970" points="1394.8917,-135.4785 1404.2467,-130.5052 1393.8321,-128.5591 1394.8917,-135.4785"/>
</g>
<!-- Node10&#45;&gt;Node3 -->
<g id="edge24" class="edge">
<title>Node10&#45;&gt;Node3</title>
<path fill="none" stroke="#191970" d="M658.8033,-112.4509C702.5608,-92.3655 804.1632,-45.7284 853.7538,-22.9655"/>
<polygon fill="#191970" stroke="#191970" points="855.3176,-26.0988 862.9458,-18.7462 852.3974,-19.737 855.3176,-26.0988"/>
</g>
<!-- Node10&#45;&gt;Node4 -->
<g id="edge25" class="edge">
<title>Node10&#45;&gt;Node4</title>
<path fill="none" stroke="#191970" d="M669.6677,-112.4971C718.7589,-98.1209 816.3962,-70.94 901,-56 1040.1199,-31.4331 1206.3601,-18.4758 1289.7452,-13.089"/>
<polygon fill="#191970" stroke="#191970" points="1289.9806,-16.5812 1299.7386,-12.4541 1289.5368,-9.5952 1289.9806,-16.5812"/>
</g>
<!-- Node11 -->
<g id="node12" class="node">
<title>Node11</title>
<g id="a_node12"><a xlink:href="logger_8h.html" target="_top" xlink:title="logger.h">
<polygon fill="#ffffff" stroke="#000000" points="612.5,-56.5 612.5,-75.5 663.5,-75.5 663.5,-56.5 612.5,-56.5"/>
<text text-anchor="middle" x="638" y="-63.5" font-family="Helvetica,sans-Serif" font-size="10.00" fill="#000000">logger.h</text>
</a>
</g>
</g>
<!-- Node10&#45;&gt;Node11 -->
<g id="edge11" class="edge">
<title>Node10&#45;&gt;Node11</title>
<path fill="none" stroke="#191970" d="M638,-112.2455C638,-104.9382 638,-94.6944 638,-85.7046"/>
<polygon fill="#191970" stroke="#191970" points="641.5001,-85.6426 638,-75.6427 634.5001,-85.6427 641.5001,-85.6426"/>
</g>
<!-- Node10&#45;&gt;Node16 -->
<g id="edge16" class="edge">
<title>Node10&#45;&gt;Node16</title>
<path fill="none" stroke="#191970" d="M588.6475,-112.4369C534.7301,-101.9892 448.9971,-85.3766 396.0193,-75.111"/>
<polygon fill="#191970" stroke="#191970" points="396.6848,-71.6749 386.2016,-73.2086 395.3531,-78.5471 396.6848,-71.6749"/>
</g>
<!-- Node10&#45;&gt;Node22 -->
<g id="edge27" class="edge">
<title>Node10&#45;&gt;Node22</title>
<path fill="none" stroke="#191970" d="M629.2591,-112.3374C616.1972,-98.3626 590.2952,-72.3927 564,-56 540.0441,-41.0656 510.4043,-29.2135 487.4918,-21.2822"/>
<polygon fill="#191970" stroke="#191970" points="488.3962,-17.8937 477.8021,-18.0214 486.1635,-24.5281 488.3962,-17.8937"/>
</g>
<!-- Node10&#45;&gt;Node23 -->
<g id="edge26" class="edge">
<title>Node10&#45;&gt;Node23</title>
<path fill="none" stroke="#191970" d="M620.4071,-112.2455C604.621,-103.4928 581.2361,-90.527 563.2413,-80.5496"/>
<polygon fill="#191970" stroke="#191970" points="564.8341,-77.4308 554.3913,-75.6427 561.4397,-83.5528 564.8341,-77.4308"/>
</g>
<!-- Node11&#45;&gt;Node12 -->
<g id="edge12" class="edge">
<title>Node11&#45;&gt;Node12</title>
<path fill="none" stroke="#191970" d="M617.887,-56.3733C599.1897,-47.4241 571.1256,-33.9917 550.0066,-23.8835"/>
<polygon fill="#191970" stroke="#191970" points="551.3817,-20.6614 540.8506,-19.5011 548.3595,-26.9755 551.3817,-20.6614"/>
</g>
<!-- Node11&#45;&gt;Node13 -->
<g id="edge13" class="edge">
<title>Node11&#45;&gt;Node13</title>
<path fill="none" stroke="#191970" d="M632.2518,-56.2455C627.7565,-48.617 621.3752,-37.7881 615.9175,-28.5267"/>
<polygon fill="#191970" stroke="#191970" points="618.7747,-26.4811 610.6823,-19.6427 612.7439,-30.035 618.7747,-26.4811"/>
</g>
<!-- Node14 -->
<g id="node15" class="node">
<title>Node14</title>
<polygon fill="#ffffff" stroke="#bfbfbf" points="663.5,-.5 663.5,-19.5 724.5,-19.5 724.5,-.5 663.5,-.5"/>
<text text-anchor="middle" x="694" y="-7.5" font-family="Helvetica,sans-Serif" font-size="10.00" fill="#000000">QTextEdit</text>
</g>
<!-- Node11&#45;&gt;Node14 -->
<g id="edge14" class="edge">
<title>Node11&#45;&gt;Node14</title>
<path fill="none" stroke="#191970" d="M647.7545,-56.2455C655.8648,-48.1352 667.5925,-36.4075 677.2081,-26.7919"/>
<polygon fill="#191970" stroke="#191970" points="679.7611,-29.1887 684.3573,-19.6427 674.8113,-24.2389 679.7611,-29.1887"/>
</g>
<!-- Node11&#45;&gt;Node15 -->
<g id="edge15" class="edge">
<title>Node11&#45;&gt;Node15</title>
<path fill="none" stroke="#191970" d="M660.3478,-56.3733C681.4033,-47.3032 713.1495,-33.6279 736.7175,-23.4755"/>
<polygon fill="#191970" stroke="#191970" points="738.1444,-26.6719 745.9438,-19.5011 735.375,-20.243 738.1444,-26.6719"/>
</g>
<!-- Node16&#45;&gt;Node8 -->
<g id="edge23" class="edge">
<title>Node16&#45;&gt;Node8</title>
<path fill="none" stroke="#191970" d="M386.1075,-63.2801C515.4503,-53.7995 945.587,-22.2711 1075.5143,-12.7476"/>
<polygon fill="#191970" stroke="#191970" points="1076.0295,-16.2194 1085.7469,-11.9976 1075.5178,-9.2381 1076.0295,-16.2194"/>
</g>
<!-- Node16&#45;&gt;Node17 -->
<g id="edge17" class="edge">
<title>Node16&#45;&gt;Node17</title>
<path fill="none" stroke="#191970" d="M311.9076,-61.5226C258.6328,-54.777 157.2448,-40.7678 62.0687,-20.036"/>
<polygon fill="#191970" stroke="#191970" points="62.8062,-16.6146 52.2868,-17.8762 61.297,-23.45 62.8062,-16.6146"/>
</g>
<!-- Node18 -->
<g id="node19" class="node">
<title>Node18</title>
<polygon fill="#ffffff" stroke="#bfbfbf" points="252.5,-.5 252.5,-19.5 311.5,-19.5 311.5,-.5 252.5,-.5"/>
<text text-anchor="middle" x="282" y="-7.5" font-family="Helvetica,sans-Serif" font-size="10.00" fill="#000000">QLineEdit</text>
</g>
<!-- Node16&#45;&gt;Node18 -->
<g id="edge18" class="edge">
<title>Node16&#45;&gt;Node18</title>
<path fill="none" stroke="#191970" d="M337.3295,-56.2455C327.4339,-47.9746 313.0373,-35.9416 301.4099,-26.2232"/>
<polygon fill="#191970" stroke="#191970" points="303.4542,-23.3703 293.5368,-19.6427 298.965,-28.7413 303.4542,-23.3703"/>
</g>
<!-- Node19 -->
<g id="node20" class="node">
<title>Node19</title>
<polygon fill="#ffffff" stroke="#bfbfbf" points="330,-.5 330,-19.5 406,-19.5 406,-.5 330,-.5"/>
<text text-anchor="middle" x="368" y="-7.5" font-family="Helvetica,sans-Serif" font-size="10.00" fill="#000000">QFormLayout</text>
</g>
<!-- Node16&#45;&gt;Node19 -->
<g id="edge19" class="edge">
<title>Node16&#45;&gt;Node19</title>
<path fill="none" stroke="#191970" d="M352.3095,-56.2455C354.8433,-48.7776 358.4177,-38.2427 361.515,-29.1137"/>
<polygon fill="#191970" stroke="#191970" points="364.8298,-30.237 364.7284,-19.6427 358.2009,-27.9879 364.8298,-30.237"/>
</g>
<!-- Node20 -->
<g id="node21" class="node">
<title>Node20</title>
<polygon fill="#ffffff" stroke="#bfbfbf" points="70.5,-.5 70.5,-19.5 117.5,-19.5 117.5,-.5 70.5,-.5"/>
<text text-anchor="middle" x="94" y="-7.5" font-family="Helvetica,sans-Serif" font-size="10.00" fill="#000000">QLabel</text>
</g>
<!-- Node16&#45;&gt;Node20 -->
<g id="edge20" class="edge">
<title>Node16&#45;&gt;Node20</title>
<path fill="none" stroke="#191970" d="M311.8433,-59.3587C269.5528,-51.5675 198.236,-37.7258 127.6705,-19.9944"/>
<polygon fill="#191970" stroke="#191970" points="128.2754,-16.537 117.7215,-17.4668 126.5517,-23.3214 128.2754,-16.537"/>
</g>
<!-- Node21 -->
<g id="node22" class="node">
<title>Node21</title>
<polygon fill="#ffffff" stroke="#bfbfbf" points="136,-.5 136,-19.5 234,-19.5 234,-.5 136,-.5"/>
<text text-anchor="middle" x="185" y="-7.5" font-family="Helvetica,sans-Serif" font-size="10.00" fill="#000000">QDialogButtonBox</text>
</g>
<!-- Node16&#45;&gt;Node21 -->
<g id="edge21" class="edge">
<title>Node16&#45;&gt;Node21</title>
<path fill="none" stroke="#191970" d="M320.8074,-56.3733C293.6547,-47.1016 252.4093,-33.0178 222.4975,-22.804"/>
<polygon fill="#191970" stroke="#191970" points="223.4192,-19.4204 212.8247,-19.5011 221.1572,-26.0449 223.4192,-19.4204"/>
</g>
<!-- Node16&#45;&gt;Node22 -->
<g id="edge22" class="edge">
<title>Node16&#45;&gt;Node22</title>
<path fill="none" stroke="#191970" d="M366.767,-56.2455C382.7095,-47.4928 406.3259,-34.527 424.4989,-24.5496"/>
<polygon fill="#191970" stroke="#191970" points="426.3552,-27.5233 433.4366,-19.6427 422.9863,-21.3873 426.3552,-27.5233"/>
</g>
<!-- Node24&#45;&gt;Node3 -->
<g id="edge32" class="edge">
<title>Node24&#45;&gt;Node3</title>
<path fill="none" stroke="#191970" d="M830.9834,-112.4157C838.9361,-103.5294 850.425,-89.6571 858,-76 866.2128,-61.1929 872.5779,-43.0281 876.683,-29.5061"/>
<polygon fill="#191970" stroke="#191970" points="880.0712,-30.3884 879.4829,-19.8099 873.3459,-28.4464 880.0712,-30.3884"/>
</g>
<!-- Node24&#45;&gt;Node4 -->
<g id="edge31" class="edge">
<title>Node24&#45;&gt;Node4</title>
<path fill="none" stroke="#191970" d="M847.857,-114.6896C905.2566,-98.486 1039.9225,-60.6153 1061,-56 1139.9192,-38.7192 1232.5581,-24.8083 1289.5192,-16.9737"/>
<polygon fill="#191970" stroke="#191970" points="1290.2929,-20.4007 1299.7286,-15.582 1289.3474,-13.4648 1290.2929,-20.4007"/>
</g>
<!-- Node24&#45;&gt;Node11 -->
<g id="edge29" class="edge">
<title>Node24&#45;&gt;Node11</title>
<path fill="none" stroke="#191970" d="M796.4156,-114.2134C764.3731,-104.4614 709.3154,-87.7047 673.2857,-76.7391"/>
<polygon fill="#191970" stroke="#191970" points="674.2489,-73.3738 663.6631,-73.8105 672.2107,-80.0705 674.2489,-73.3738"/>
</g>
<!-- Node24&#45;&gt;Node15 -->
<g id="edge34" class="edge">
<title>Node24&#45;&gt;Node15</title>
<path fill="none" stroke="#191970" d="M817.396,-112.4509C808.4691,-93.936 788.6642,-52.8591 777.0251,-28.7187"/>
<polygon fill="#191970" stroke="#191970" points="780.0881,-27.0125 772.5924,-19.5249 773.7827,-30.0527 780.0881,-27.0125"/>
</g>
<!-- Node25 -->
<g id="node26" class="node">
<title>Node25</title>
<polygon fill="#ffffff" stroke="#bfbfbf" points="910.5,-56.5 910.5,-75.5 975.5,-75.5 975.5,-56.5 910.5,-56.5"/>
<text text-anchor="middle" x="943" y="-63.5" font-family="Helvetica,sans-Serif" font-size="10.00" fill="#000000">QStringList</text>
</g>
<!-- Node24&#45;&gt;Node25 -->
<g id="edge30" class="edge">
<title>Node24&#45;&gt;Node25</title>
<path fill="none" stroke="#191970" d="M842.8006,-112.3733C862.2243,-103.3838 891.4224,-89.8706 913.2964,-79.7471"/>
<polygon fill="#191970" stroke="#191970" points="914.8656,-82.8776 922.4708,-75.5011 911.9255,-76.5249 914.8656,-82.8776"/>
</g>
<!-- Node24&#45;&gt;Node26 -->
<g id="edge33" class="edge">
<title>Node24&#45;&gt;Node26</title>
<path fill="none" stroke="#191970" d="M847.8713,-116.7317C896.8354,-106.7608 1003.2058,-85.0999 1059.8139,-73.5724"/>
<polygon fill="#191970" stroke="#191970" points="1060.6792,-76.9681 1069.7797,-71.543 1059.2824,-70.1089 1060.6792,-76.9681"/>
</g>
<!-- Node27&#45;&gt;Node2 -->
<g id="edge37" class="edge">
<title>Node27&#45;&gt;Node2</title>
<path fill="none" stroke="#191970" d="M1538.4774,-112.2455C1538.086,-104.9382 1537.5372,-94.6944 1537.0556,-85.7046"/>
<polygon fill="#191970" stroke="#191970" points="1540.5466,-85.4411 1536.5166,-75.6427 1533.5566,-85.8156 1540.5466,-85.4411"/>
</g>
<!-- Node27&#45;&gt;Node3 -->
<g id="edge38" class="edge">
<title>Node27&#45;&gt;Node3</title>
<path fill="none" stroke="#191970" d="M1511.939,-114.2056C1508.9326,-113.4225 1505.9076,-112.6702 1503,-112 1486.2658,-108.1425 1215.945,-58.7891 1199,-56 1093.3217,-38.6054 967.2401,-21.3489 911.2625,-13.8672"/>
<polygon fill="#191970" stroke="#191970" points="911.7118,-10.3962 901.3371,-12.545 910.7874,-17.3349 911.7118,-10.3962"/>
</g>
<!-- Node27&#45;&gt;Node4 -->
<g id="edge39" class="edge">
<title>Node27&#45;&gt;Node4</title>
<path fill="none" stroke="#191970" d="M1522.2892,-112.4509C1487.9352,-92.8201 1409.1953,-47.8259 1368.4576,-24.5472"/>
<polygon fill="#191970" stroke="#191970" points="1370.0875,-21.4475 1359.6686,-19.5249 1366.6145,-27.5252 1370.0875,-21.4475"/>
</g>
<!-- Node27&#45;&gt;Node5 -->
<g id="edge40" class="edge">
<title>Node27&#45;&gt;Node5</title>
<path fill="none" stroke="#191970" d="M1550.4248,-112.4509C1573.3677,-93.2747 1625.267,-49.8962 1653.6193,-26.1988"/>
<polygon fill="#191970" stroke="#191970" points="1656.1759,-28.6235 1661.6042,-19.5249 1651.6867,-23.2525 1656.1759,-28.6235"/>
</g>
<!-- Node27&#45;&gt;Node6 -->
<g id="edge41" class="edge">
<title>Node27&#45;&gt;Node6</title>
<path fill="none" stroke="#191970" d="M1526.2752,-112.2466C1516.4593,-103.8582 1503.6367,-90.7955 1498,-76 1492.1131,-60.5476 1497.4787,-42.2171 1503.5344,-28.8"/>
<polygon fill="#191970" stroke="#191970" points="1506.7797,-30.1357 1508.1248,-19.6266 1500.5197,-27.0032 1506.7797,-30.1357"/>
</g>
<!-- Node27&#45;&gt;Node7 -->
<g id="edge42" class="edge">
<title>Node27&#45;&gt;Node7</title>
<path fill="none" stroke="#191970" d="M1548.5257,-112.1898C1556.6123,-103.3706 1567.9892,-89.7278 1575,-76 1582.4568,-61.3988 1587.3847,-43.4424 1590.349,-29.9473"/>
<polygon fill="#191970" stroke="#191970" points="1593.8428,-30.3269 1592.3896,-19.8322 1586.9811,-28.9425 1593.8428,-30.3269"/>
</g>
<!-- Node27&#45;&gt;Node8 -->
<g id="edge44" class="edge">
<title>Node27&#45;&gt;Node8</title>
<path fill="none" stroke="#191970" d="M1511.9803,-113.7259C1469.2727,-100.758 1383.4684,-75.1513 1310,-56 1254.5061,-41.5342 1189.6577,-26.8076 1149.9649,-18.0381"/>
<polygon fill="#191970" stroke="#191970" points="1150.7126,-14.6189 1140.1939,-15.8875 1149.2078,-21.4553 1150.7126,-14.6189"/>
</g>
<!-- Node27&#45;&gt;Node26 -->
<g id="edge45" class="edge">
<title>Node27&#45;&gt;Node26</title>
<path fill="none" stroke="#191970" d="M1511.9897,-113.9633C1508.9738,-113.2255 1505.9327,-112.5502 1503,-112 1345.3937,-82.4329 1302.4385,-100.7228 1144,-76 1140.7854,-75.4984 1137.4594,-74.9175 1134.1306,-74.2932"/>
<polygon fill="#191970" stroke="#191970" points="1134.7352,-70.845 1124.2443,-72.3256 1133.3688,-77.7103 1134.7352,-70.845"/>
</g>
<!-- Node27&#45;&gt;Node28 -->
<g id="edge43" class="edge">
<title>Node27&#45;&gt;Node28</title>
<path fill="none" stroke="#191970" d="M1511.9677,-114.0748C1508.9559,-113.3161 1505.9218,-112.6054 1503,-112 1391.9267,-88.9852 1257.5054,-74.3481 1199.6982,-68.6747"/>
<polygon fill="#191970" stroke="#191970" points="1199.7931,-65.1677 1189.5028,-67.6897 1199.1199,-72.1353 1199.7931,-65.1677"/>
</g>
</g>
</svg>
        <g id="navigator" transform="translate(0 0)" fill="#404254">
                <rect fill="#f2f5e9" fill-opacity="0.5" stroke="#606060" stroke-width=".5" x="0" y="0" width="60" height="60"/>
                <use id="zoomplus" xlink:href="#zoomPlus" x="17" y="9" onmousedown="handleZoom(evt,'in')"/>
                <use id="zoomminus" xlink:href="#zoomMin" x="42" y="9" onmousedown="handleZoom(evt,'out')"/>
                <use id="reset" xlink:href="#resetDef" x="30" y="36" onmousedown="handleReset()"/>
                <g id="arrowUp" xlink:href="#dirArrow" transform="translate(30 24)" onmousedown="handlePan(0,-1)">
                  <use xlink:href="#rim" fill="#404040">
                        <set attributeName="fill" to="#808080" begin="arrowUp.mouseover" end="arrowUp.mouseout"/>
                  </use>
                  <path fill="none" stroke="white" stroke-width="1.5" d="M0,-3.0v7 M-2.5,-0.5L0,-3.0L2.5,-0.5"/>
                </g>
                <g id="arrowRight" xlink:href="#dirArrow" transform="rotate(90) translate(36 -43)" onmousedown="handlePan(1,0)">
                  <use xlink:href="#rim" fill="#404040">
                        <set attributeName="fill" to="#808080" begin="arrowRight.mouseover" end="arrowRight.mouseout"/>
                  </use>
                  <path fill="none" stroke="white" stroke-width="1.5" d="M0,-3.0v7 M-2.5,-0.5L0,-3.0L2.5,-0.5"/>
                </g>
                <g id="arrowDown" xlink:href="#dirArrow" transform="rotate(180) translate(-30 -48)" onmousedown="handlePan(0,1)">
                  <use xlink:href="#rim" fill="#404040">
                        <set attributeName="fill" to="#808080" begin="arrowDown.mouseover" end="arrowDown.mouseout"/>
                  </use>
                  <path fill="none" stroke="white" stroke-width="1.5" d="M0,-3.0v7 M-2.5,-0.5L0,-3.0L2.5,-0.5"/>
                </g>
                <g id="arrowLeft" xlink:href="#dirArrow" transform="rotate(270) translate(-36 17)" onmousedown="handlePan(-1,0)">
                  <use xlink:href="#rim" fill="#404040">
                        <set attributeName="fill" to="#808080" begin="arrowLeft.mouseover" end="arrowLeft.mouseout"/>
                  </use>
                  <path fill="none" stroke="white" stroke-width="1.5" d="M0,-3.0v7 M-2.5,-0.5L0,-3.0L2.5,-0.5"/>
                </g>
        </g>
        <svg viewBox="0 0 15 15" width="100%" height="30px" preserveAspectRatio="xMaxYMin meet">
         <g id="arrow_out" transform="scale(0.3 0.3)">
          <a xlink:href="searchdialog_8cpp__incl_org.svg" target="_base">
           <rect id="button" ry="5" rx="5" y="6" x="6" height="38" width="38"
                fill="#f2f5e9" fill-opacity="0.5" stroke="#606060" stroke-width="1.0"/>
           <path id="arrow"
             d="M 11.500037,31.436501 C 11.940474,20.09759 22.043105,11.32322 32.158766,21.979434 L 37.068811,17.246167 C 37.068811,17.246167 37.088388,32 37.088388,32 L 22.160133,31.978069 C 22.160133,31.978069 26.997745,27.140456 26.997745,27.140456 C 18.528582,18.264221 13.291696,25.230495 11.500037,31.436501 z"
             style="fill:#404040;"/>
          </a>
         </g>
        </svg>
</svg>
