<?xml version="1.0" encoding="UTF-8" standalone="no"?>
<!DOCTYPE svg PUBLIC "-//W3C//DTD SVG 1.1//EN"
 "http://www.w3.org/Graphics/SVG/1.1/DTD/svg11.dtd">
<!-- Generated by graphviz version 2.40.1 (20161225.0304)
 -->
<!-- Title: serverconnection.cpp Pages: 1 -->
<svg width="873pt" height="196pt"
 viewBox="0.00 0.00 873.00 196.00" xmlns="http://www.w3.org/2000/svg" xmlns:xlink="http://www.w3.org/1999/xlink">
<g id="graph0" class="graph" transform="scale(1 1) rotate(0) translate(4 192)">
<title>serverconnection.cpp</title>
<polygon fill="#ffffff" stroke="transparent" points="-4,4 -4,-192 869,-192 869,4 -4,4"/>
<!-- Node0 -->
<g id="node1" class="node">
<title>Node0</title>
<polygon fill="#bfbfbf" stroke="#000000" points="527.5,-168.5 527.5,-187.5 637.5,-187.5 637.5,-168.5 527.5,-168.5"/>
<text text-anchor="middle" x="582.5" y="-175.5" font-family="Helvetica,sans-Serif" font-size="10.00" fill="#000000">serverconnection.cpp</text>
</g>
<!-- Node1 -->
<g id="node2" class="node">
<title>Node1</title>
<g id="a_node2"><a xlink:href="serverconnection_8h.html" target="_top" xlink:title="serverconnection.h">
<polygon fill="#ffffff" stroke="#000000" points="533,-112.5 533,-131.5 632,-131.5 632,-112.5 533,-112.5"/>
<text text-anchor="middle" x="582.5" y="-119.5" font-family="Helvetica,sans-Serif" font-size="10.00" fill="#000000">serverconnection.h</text>
</a>
</g>
</g>
<!-- Node0&#45;&gt;Node1 -->
<g id="edge1" class="edge">
<title>Node0&#45;&gt;Node1</title>
<path fill="none" stroke="#191970" d="M582.5,-168.2455C582.5,-160.9382 582.5,-150.6944 582.5,-141.7046"/>
<polygon fill="#191970" stroke="#191970" points="586.0001,-141.6426 582.5,-131.6427 579.0001,-141.6427 586.0001,-141.6426"/>
</g>
<!-- Node4 -->
<g id="node5" class="node">
<title>Node4</title>
<polygon fill="#ffffff" stroke="#bfbfbf" points="0,-.5 0,-19.5 81,-19.5 81,-.5 0,-.5"/>
<text text-anchor="middle" x="40.5" y="-7.5" font-family="Helvetica,sans-Serif" font-size="10.00" fill="#000000">QMessageBox</text>
</g>
<!-- Node0&#45;&gt;Node4 -->
<g id="edge19" class="edge">
<title>Node0&#45;&gt;Node4</title>
<path fill="none" stroke="#191970" d="M527.2563,-169.1669C445.8059,-155.1218 289.5279,-124.2503 163.5,-76 127.3363,-62.1546 88.3973,-39.8798 64.2369,-25.0926"/>
<polygon fill="#191970" stroke="#191970" points="65.781,-21.9319 55.4377,-19.6369 62.0923,-27.8811 65.781,-21.9319"/>
</g>
<!-- Node13 -->
<g id="node14" class="node">
<title>Node13</title>
<polygon fill="#ffffff" stroke="#bfbfbf" points="812,-.5 812,-19.5 865,-19.5 865,-.5 812,-.5"/>
<text text-anchor="middle" x="838.5" y="-7.5" font-family="Helvetica,sans-Serif" font-size="10.00" fill="#000000">QDebug</text>
</g>
<!-- Node0&#45;&gt;Node13 -->
<g id="edge20" class="edge">
<title>Node0&#45;&gt;Node13</title>
<path fill="none" stroke="#191970" d="M601.4936,-168.4464C634.6251,-151.481 704.6796,-114.2649 759.5,-76 781.5098,-60.637 804.885,-40.5841 820.4481,-26.6317"/>
<polygon fill="#191970" stroke="#191970" points="823.1732,-28.8855 828.2323,-19.5766 818.4723,-23.6988 823.1732,-28.8855"/>
</g>
<!-- Node2 -->
<g id="node3" class="node">
<title>Node2</title>
<g id="a_node3"><a xlink:href="logger_8h.html" target="_top" xlink:title="logger.h">
<polygon fill="#ffffff" stroke="#000000" points="173,-56.5 173,-75.5 224,-75.5 224,-56.5 173,-56.5"/>
<text text-anchor="middle" x="198.5" y="-63.5" font-family="Helvetica,sans-Serif" font-size="10.00" fill="#000000">logger.h</text>
</a>
</g>
</g>
<!-- Node1&#45;&gt;Node2 -->
<g id="edge2" class="edge">
<title>Node1&#45;&gt;Node2</title>
<path fill="none" stroke="#191970" d="M532.6924,-114.7364C453.939,-103.2515 302.573,-81.1773 233.9148,-71.1647"/>
<polygon fill="#191970" stroke="#191970" points="234.4164,-67.7009 224.016,-69.7211 233.4062,-74.6276 234.4164,-67.7009"/>
</g>
<!-- Node7 -->
<g id="node8" class="node">
<title>Node7</title>
<g id="a_node8"><a xlink:href="inputDialog_8h.html" target="_top" xlink:title="inputDialog.h">
<polygon fill="#ffffff" stroke="#000000" points="582.5,-56.5 582.5,-75.5 656.5,-75.5 656.5,-56.5 582.5,-56.5"/>
<text text-anchor="middle" x="619.5" y="-63.5" font-family="Helvetica,sans-Serif" font-size="10.00" fill="#000000">inputDialog.h</text>
</a>
</g>
</g>
<!-- Node1&#45;&gt;Node7 -->
<g id="edge7" class="edge">
<title>Node1&#45;&gt;Node7</title>
<path fill="none" stroke="#191970" d="M588.9449,-112.2455C594.0382,-104.5367 601.2908,-93.5598 607.452,-84.2348"/>
<polygon fill="#191970" stroke="#191970" points="610.5365,-85.9155 613.1289,-75.6427 604.6962,-82.0566 610.5365,-85.9155"/>
</g>
<!-- Node1&#45;&gt;Node13 -->
<g id="edge18" class="edge">
<title>Node1&#45;&gt;Node13</title>
<path fill="none" stroke="#191970" d="M599.9175,-112.2847C630.8323,-95.0727 693.0387,-60.5951 703.5,-56 736.1079,-41.6771 774.6912,-28.9276 802.2415,-20.5049"/>
<polygon fill="#191970" stroke="#191970" points="803.2981,-23.842 811.8609,-17.6027 801.2762,-17.1404 803.2981,-23.842"/>
</g>
<!-- Node15 -->
<g id="node16" class="node">
<title>Node15</title>
<polygon fill="#ffffff" stroke="#bfbfbf" points="712.5,-56.5 712.5,-75.5 750.5,-75.5 750.5,-56.5 712.5,-56.5"/>
<text text-anchor="middle" x="731.5" y="-63.5" font-family="Helvetica,sans-Serif" font-size="10.00" fill="#000000">QFtp</text>
</g>
<!-- Node1&#45;&gt;Node15 -->
<g id="edge15" class="edge">
<title>Node1&#45;&gt;Node15</title>
<path fill="none" stroke="#191970" d="M608.114,-112.3733C634.4954,-102.4581 675.5196,-87.0396 702.9342,-76.7361"/>
<polygon fill="#191970" stroke="#191970" points="704.2369,-79.9856 712.3663,-73.1912 701.7742,-73.4331 704.2369,-79.9856"/>
</g>
<!-- Node16 -->
<g id="node17" class="node">
<title>Node16</title>
<polygon fill="#ffffff" stroke="#bfbfbf" points="422.5,-56.5 422.5,-75.5 508.5,-75.5 508.5,-56.5 422.5,-56.5"/>
<text text-anchor="middle" x="465.5" y="-63.5" font-family="Helvetica,sans-Serif" font-size="10.00" fill="#000000">QSharedPointer</text>
</g>
<!-- Node1&#45;&gt;Node16 -->
<g id="edge16" class="edge">
<title>Node1&#45;&gt;Node16</title>
<path fill="none" stroke="#191970" d="M562.387,-112.3733C543.6897,-103.4241 515.6256,-89.9917 494.5066,-79.8835"/>
<polygon fill="#191970" stroke="#191970" points="495.8817,-76.6614 485.3506,-75.5011 492.8595,-82.9755 495.8817,-76.6614"/>
</g>
<!-- Node17 -->
<g id="node18" class="node">
<title>Node17</title>
<polygon fill="#ffffff" stroke="#bfbfbf" points="527,-56.5 527,-75.5 564,-75.5 564,-56.5 527,-56.5"/>
<text text-anchor="middle" x="545.5" y="-63.5" font-family="Helvetica,sans-Serif" font-size="10.00" fill="#000000">QUrl</text>
</g>
<!-- Node1&#45;&gt;Node17 -->
<g id="edge17" class="edge">
<title>Node1&#45;&gt;Node17</title>
<path fill="none" stroke="#191970" d="M576.0551,-112.2455C570.9618,-104.5367 563.7092,-93.5598 557.548,-84.2348"/>
<polygon fill="#191970" stroke="#191970" points="560.3038,-82.0566 551.8711,-75.6427 554.4635,-85.9155 560.3038,-82.0566"/>
</g>
<!-- Node3 -->
<g id="node4" class="node">
<title>Node3</title>
<polygon fill="#ffffff" stroke="#bfbfbf" points="99.5,-.5 99.5,-19.5 149.5,-19.5 149.5,-.5 99.5,-.5"/>
<text text-anchor="middle" x="124.5" y="-7.5" font-family="Helvetica,sans-Serif" font-size="10.00" fill="#000000">QString</text>
</g>
<!-- Node2&#45;&gt;Node3 -->
<g id="edge3" class="edge">
<title>Node2&#45;&gt;Node3</title>
<path fill="none" stroke="#191970" d="M185.6102,-56.2455C174.5746,-47.8943 158.4708,-35.7076 145.5647,-25.9408"/>
<polygon fill="#191970" stroke="#191970" points="147.3283,-22.8862 137.2421,-19.6427 143.1041,-28.4681 147.3283,-22.8862"/>
</g>
<!-- Node2&#45;&gt;Node4 -->
<g id="edge4" class="edge">
<title>Node2&#45;&gt;Node4</title>
<path fill="none" stroke="#191970" d="M172.7629,-56.878C146.7587,-47.6613 106.3423,-33.3365 77.0284,-22.9468"/>
<polygon fill="#191970" stroke="#191970" points="78.1444,-19.629 67.5496,-19.5872 75.8059,-26.2269 78.1444,-19.629"/>
</g>
<!-- Node5 -->
<g id="node6" class="node">
<title>Node5</title>
<polygon fill="#ffffff" stroke="#bfbfbf" points="168,-.5 168,-19.5 229,-19.5 229,-.5 168,-.5"/>
<text text-anchor="middle" x="198.5" y="-7.5" font-family="Helvetica,sans-Serif" font-size="10.00" fill="#000000">QTextEdit</text>
</g>
<!-- Node2&#45;&gt;Node5 -->
<g id="edge5" class="edge">
<title>Node2&#45;&gt;Node5</title>
<path fill="none" stroke="#191970" d="M198.5,-56.2455C198.5,-48.9382 198.5,-38.6944 198.5,-29.7046"/>
<polygon fill="#191970" stroke="#191970" points="202.0001,-29.6426 198.5,-19.6427 195.0001,-29.6427 202.0001,-29.6426"/>
</g>
<!-- Node6 -->
<g id="node7" class="node">
<title>Node6</title>
<polygon fill="#ffffff" stroke="#bfbfbf" points="247,-.5 247,-19.5 298,-19.5 298,-.5 247,-.5"/>
<text text-anchor="middle" x="272.5" y="-7.5" font-family="Helvetica,sans-Serif" font-size="10.00" fill="#000000">QMutex</text>
</g>
<!-- Node2&#45;&gt;Node6 -->
<g id="edge6" class="edge">
<title>Node2&#45;&gt;Node6</title>
<path fill="none" stroke="#191970" d="M211.3898,-56.2455C222.4254,-47.8943 238.5292,-35.7076 251.4353,-25.9408"/>
<polygon fill="#191970" stroke="#191970" points="253.8959,-28.4681 259.7579,-19.6427 249.6717,-22.8862 253.8959,-28.4681"/>
</g>
<!-- Node8 -->
<g id="node9" class="node">
<title>Node8</title>
<polygon fill="#ffffff" stroke="#bfbfbf" points="664.5,-.5 664.5,-19.5 716.5,-19.5 716.5,-.5 664.5,-.5"/>
<text text-anchor="middle" x="690.5" y="-7.5" font-family="Helvetica,sans-Serif" font-size="10.00" fill="#000000">QDialog</text>
</g>
<!-- Node7&#45;&gt;Node8 -->
<g id="edge8" class="edge">
<title>Node7&#45;&gt;Node8</title>
<path fill="none" stroke="#191970" d="M631.8673,-56.2455C642.4554,-47.8943 657.9064,-35.7076 670.2893,-25.9408"/>
<polygon fill="#191970" stroke="#191970" points="672.5903,-28.5837 678.2745,-19.6427 668.2553,-23.0875 672.5903,-28.5837"/>
</g>
<!-- Node9 -->
<g id="node10" class="node">
<title>Node9</title>
<polygon fill="#ffffff" stroke="#bfbfbf" points="735,-.5 735,-19.5 794,-19.5 794,-.5 735,-.5"/>
<text text-anchor="middle" x="764.5" y="-7.5" font-family="Helvetica,sans-Serif" font-size="10.00" fill="#000000">QLineEdit</text>
</g>
<!-- Node7&#45;&gt;Node9 -->
<g id="edge9" class="edge">
<title>Node7&#45;&gt;Node9</title>
<path fill="none" stroke="#191970" d="M644.4264,-56.3733C668.1202,-47.2226 703.9511,-33.3844 730.3068,-23.2057"/>
<polygon fill="#191970" stroke="#191970" points="731.8314,-26.3689 739.8989,-19.5011 729.3094,-19.8389 731.8314,-26.3689"/>
</g>
<!-- Node10 -->
<g id="node11" class="node">
<title>Node10</title>
<polygon fill="#ffffff" stroke="#bfbfbf" points="316.5,-.5 316.5,-19.5 392.5,-19.5 392.5,-.5 316.5,-.5"/>
<text text-anchor="middle" x="354.5" y="-7.5" font-family="Helvetica,sans-Serif" font-size="10.00" fill="#000000">QFormLayout</text>
</g>
<!-- Node7&#45;&gt;Node10 -->
<g id="edge10" class="edge">
<title>Node7&#45;&gt;Node10</title>
<path fill="none" stroke="#191970" d="M582.3483,-57.8977C579.3552,-57.2528 576.3774,-56.6139 573.5,-56 500.2509,-40.3728 479.589,-36.4416 402.8763,-20.2845"/>
<polygon fill="#191970" stroke="#191970" points="403.2243,-16.781 392.7173,-18.1424 401.78,-23.6304 403.2243,-16.781"/>
</g>
<!-- Node11 -->
<g id="node12" class="node">
<title>Node11</title>
<polygon fill="#ffffff" stroke="#bfbfbf" points="411,-.5 411,-19.5 458,-19.5 458,-.5 411,-.5"/>
<text text-anchor="middle" x="434.5" y="-7.5" font-family="Helvetica,sans-Serif" font-size="10.00" fill="#000000">QLabel</text>
</g>
<!-- Node7&#45;&gt;Node11 -->
<g id="edge11" class="edge">
<title>Node7&#45;&gt;Node11</title>
<path fill="none" stroke="#191970" d="M588.0589,-56.4886C559.3016,-47.7883 515.3239,-34.4811 468.0961,-20.1798"/>
<polygon fill="#191970" stroke="#191970" points="468.8779,-16.7597 458.2927,-17.211 466.8491,-23.4592 468.8779,-16.7597"/>
</g>
<!-- Node12 -->
<g id="node13" class="node">
<title>Node12</title>
<polygon fill="#ffffff" stroke="#bfbfbf" points="476.5,-.5 476.5,-19.5 574.5,-19.5 574.5,-.5 476.5,-.5"/>
<text text-anchor="middle" x="525.5" y="-7.5" font-family="Helvetica,sans-Serif" font-size="10.00" fill="#000000">QDialogButtonBox</text>
</g>
<!-- Node7&#45;&gt;Node12 -->
<g id="edge12" class="edge">
<title>Node7&#45;&gt;Node12</title>
<path fill="none" stroke="#191970" d="M603.1264,-56.2455C588.5692,-47.5731 567.069,-34.7645 550.3848,-24.825"/>
<polygon fill="#191970" stroke="#191970" points="552.0683,-21.7539 541.6859,-19.6427 548.4856,-27.7676 552.0683,-21.7539"/>
</g>
<!-- Node7&#45;&gt;Node13 -->
<g id="edge13" class="edge">
<title>Node7&#45;&gt;Node13</title>
<path fill="none" stroke="#191970" d="M656.5985,-57.1098C691.7904,-48.5912 746.3861,-35.1559 802.0961,-20.3232"/>
<polygon fill="#191970" stroke="#191970" points="803.0161,-23.7002 811.7724,-17.7356 801.2077,-16.9378 803.0161,-23.7002"/>
</g>
<!-- Node14 -->
<g id="node15" class="node">
<title>Node14</title>
<polygon fill="#ffffff" stroke="#bfbfbf" points="592.5,-.5 592.5,-19.5 646.5,-19.5 646.5,-.5 592.5,-.5"/>
<text text-anchor="middle" x="619.5" y="-7.5" font-family="Helvetica,sans-Serif" font-size="10.00" fill="#000000">iostream</text>
</g>
<!-- Node7&#45;&gt;Node14 -->
<g id="edge14" class="edge">
<title>Node7&#45;&gt;Node14</title>
<path fill="none" stroke="#191970" d="M619.5,-56.2455C619.5,-48.9382 619.5,-38.6944 619.5,-29.7046"/>
<polygon fill="#191970" stroke="#191970" points="623.0001,-29.6426 619.5,-19.6427 616.0001,-29.6427 623.0001,-29.6426"/>
</g>
</g>
</svg>
